<svg width="496" height="601" viewBox="0 0 496 601" fill="none" xmlns="http://www.w3.org/2000/svg">
<path d="M146.5 270.8C162 270.8 94.4974 115.798 244.5 43.8017C272 30.6025 227 92.2998 267.5 151.3C313.482 218.286 318.871 200.755 330.075 266.769C330.226 267.66 331.401 267.944 331.882 267.179C365.624 213.515 314.125 146.546 348.5 160.299C373.5 170.301 482.69 268.29 445.5 399.8C431.5 449.305 389 555.8 246.5 558.8C104 561.8 42.0001 445.301 42 364.3C41.9999 294.284 102 213.3 120 205.3C138 197.3 119.925 270.8 146.5 270.8Z" fill="white" stroke="white" stroke-width="84"/>
<path d="M146.5 270.8C162 270.8 94.4974 115.798 244.5 43.8017C272 30.6025 227 92.2998 267.5 151.3C313.482 218.286 318.871 200.755 330.075 266.769C330.226 267.66 331.401 267.944 331.882 267.179C365.624 213.515 314.125 146.546 348.5 160.299C373.5 170.301 482.69 268.29 445.5 399.8C431.5 449.305 389 555.8 246.5 558.8C104 561.8 42.0001 445.301 42 364.3C41.9999 294.284 102 213.3 120 205.3C138 197.3 119.925 270.8 146.5 270.8Z" fill="white" stroke="black" stroke-width="21"/>
<circle cx="170" cy="371" r="26" fill="black"/>
<circle cx="285" cy="371" r="26" fill="black"/>
</svg>
