<svg width="352" height="421" viewBox="0 0 352 421" fill="none" xmlns="http://www.w3.org/2000/svg">
<path d="M62.2224 369.442C62.7774 369.338 63.342 369.315 63.8133 369.329C72.8201 369.596 82.3523 382.258 86.475 385.757C87.2008 386.264 87.5374 386.509 87.4496 386.461C87.1711 386.311 86.8448 386.071 86.475 385.757C83.6375 383.772 74.8516 377.762 62.2224 369.442C56.3725 365.589 49.6981 361.239 42.4083 356.564C27.0829 346.737 25.8358 340.897 25.2397 337.966C24.9264 336.426 25.3447 334.671 26.8161 333.351C34.7395 326.241 45.0575 330.23 46.0804 330.348C54.7567 331.348 29.2618 322.455 22.587 316.578C20.0428 314.338 19.4244 311.26 19.6611 309.209C20.2138 304.42 32.4572 310.425 38.3112 311.273C41.4204 311.723 34.4836 300.98 26.384 288.912C15.8356 273.195 12.1733 256.235 9.04182 243.016C2.23419 214.28 5.85921 203.734 10.7164 191.445C11.6908 188.98 13.1033 188.535 15.4886 191.382C22.5612 199.825 27.8702 209.968 32.02 213.277C34.2784 215.078 34.3733 189.025 33.3617 157.158C32.9999 145.761 33.4343 144.043 34.1744 142.554C34.9146 141.065 36.0723 139.853 37.231 139.759C42.8375 139.306 44.7603 150.242 48.4964 155.685C50.1732 158.127 53.195 160.317 56.5703 160.4C58.5921 160.449 59.6015 155.408 69.7667 139.781C79.9318 124.155 98.8028 96.7906 109.441 80.627C115.663 71.1728 118.872 65.8342 120.631 62.7272C118.79 65.8941 115.879 70.4231 112.394 74.217C96.3268 91.7086 110.1 36.5846 104.436 24.1868C101.215 17.1357 95.5114 11.8707 92.9778 8.11858C91.8789 6.49112 112.673 16.5084 140.036 33.2905C155.585 42.827 161.793 49.5854 165.525 54.2008C170.953 60.9125 165.817 71.1379 165.472 96.2386C165.399 101.575 166.118 103.162 166.649 104.491C167.18 105.82 167.866 106.835 168.699 106.259C171.416 104.379 175.08 86.842 180.918 64.0623C183.606 53.5744 185.351 50.4602 186.828 49.3563C198.729 40.462 190.218 89.7919 193.466 91.6476C197.968 94.2195 206.506 86.8288 214.668 83.312C229.517 76.9149 226.861 102.255 231.191 105.232C239.596 111.009 251.774 126.918 261.137 134.281C264.948 137.278 268.614 138.186 270.894 137.476C274.455 136.366 273.466 123.236 273.031 110.799C272.897 109.337 272.968 108.868 272.977 109.162C272.994 109.706 273.012 110.252 273.031 110.799C273.335 114.124 274.699 122.584 280.264 138.883C287.054 158.768 301.911 193.937 309.616 212.805C309.62 212.815 309.624 212.824 309.628 212.834C317.874 233.027 318.798 235.442 318.029 237.267C317.656 238.151 315.921 237.944 314.553 237.199C308.567 233.938 307.503 227.636 305.799 220.693C305.39 219.027 305.476 217.677 305.917 216.458C306.451 214.981 307.787 213.784 309.628 212.834C309.624 212.824 309.62 212.815 309.616 212.805C301.911 193.937 287.054 158.768 280.264 138.883C274.699 122.584 273.335 114.124 273.031 110.799C273.466 123.236 274.455 136.366 270.894 137.476C268.614 138.186 264.948 137.278 261.137 134.281C251.774 126.918 239.596 111.009 231.191 105.232C226.861 102.255 229.517 76.9149 214.668 83.312C206.506 86.8288 197.968 94.2195 193.466 91.6476C190.218 89.7919 198.729 40.462 186.828 49.3563C185.351 50.4602 183.606 53.5744 180.918 64.0623C175.08 86.842 171.416 104.379 168.699 106.259C167.866 106.835 167.18 105.82 166.649 104.491C166.118 103.162 165.399 101.575 165.472 96.2386C165.817 71.1379 170.953 60.9125 165.525 54.2008C161.793 49.5854 155.585 42.827 140.036 33.2905C112.673 16.5084 91.8789 6.49112 92.9778 8.11858C95.5114 11.8707 101.215 17.1357 104.436 24.1868C110.1 36.5846 96.3268 91.7086 112.394 74.217C115.879 70.4231 118.79 65.8941 120.631 62.7272C121.879 60.5223 122.396 59.4413 122.74 58.8109C122.881 58.5515 122.095 60.2086 120.631 62.7272C118.872 65.8342 115.663 71.1728 109.441 80.627C98.8028 96.7906 79.9318 124.155 69.7667 139.781C59.6015 155.408 58.5921 160.449 56.5703 160.4C53.195 160.317 50.1732 158.127 48.4964 155.685C44.7603 150.242 42.8375 139.306 37.231 139.759C36.0723 139.853 34.9146 141.065 34.1744 142.554C33.4343 144.043 32.9999 145.761 33.3617 157.158C34.3733 189.025 34.2784 215.078 32.02 213.277C27.8702 209.968 22.5612 199.825 15.4886 191.382C13.1033 188.535 11.6908 188.98 10.7164 191.445C5.85921 203.734 2.23419 214.28 9.04182 243.016C12.1733 256.235 15.8356 273.195 26.384 288.912C34.4836 300.98 41.4204 311.723 38.3112 311.273C32.4572 310.425 20.2138 304.42 19.6611 309.209C19.4244 311.26 20.0428 314.338 22.587 316.578C29.2618 322.455 54.7567 331.348 46.0804 330.348C45.0575 330.23 34.7395 326.241 26.8161 333.351C25.3447 334.671 24.9264 336.426 25.2397 337.966C25.8358 340.897 27.0829 346.737 42.4083 356.564C49.6981 361.239 56.3725 365.589 62.2224 369.442Z" fill="#E4E4E4"/>
<path d="M242.623 101.898C251.969 110.632 259.521 120.268 267.243 126.516C268.021 127.13 268.806 127.568 269.276 127.743C269.503 127.832 269.649 127.849 269.535 127.83C269.416 127.828 269.028 127.717 267.951 128.029C264.791 129.084 263.778 131.05 263.47 131.558C263.138 132.198 263.183 132.246 263.196 132.151C263.26 131.914 263.387 131.092 263.451 130.208C263.591 128.393 263.6 126.157 263.559 123.897C263.474 119.329 263.202 114.479 263.042 109.465C263.049 109.625 263.049 109.797 263.106 110.295C263.185 110.458 262.889 110.263 263.735 112.758C264.078 113.462 264.293 114.523 266.334 116.48C267.364 117.413 269.199 118.619 271.71 118.938C274.212 119.295 276.785 118.46 278.236 117.507C278.991 117.034 279.55 116.55 279.986 116.116C280.205 115.898 280.392 115.691 280.558 115.495C280.694 115.332 280.735 115.28 280.816 115.176C281.105 114.803 281.317 114.48 281.488 114.195C281.827 113.627 282.012 113.212 282.153 112.873C282.659 111.576 282.663 111.213 282.745 110.851C282.802 110.528 282.826 110.314 282.839 110.205C282.887 109.743 282.884 109.588 282.887 109.532C282.892 109.376 282.89 109.354 282.89 109.334C282.89 109.307 282.891 109.363 282.895 109.422C282.903 109.558 282.917 109.746 282.939 109.968C282.981 110.401 283.042 110.884 283.117 111.399C283.267 112.424 283.467 113.535 283.694 114.65C284.148 116.886 284.712 119.201 285.342 121.545C286.596 126.202 288.089 130.925 289.709 135.659C298.328 160.05 308.972 184.729 318.832 209.042C320.487 213.125 322.129 217.165 323.751 221.264C324.573 223.348 325.376 225.391 326.188 227.646C326.593 228.785 327.004 229.943 327.428 231.484C327.636 232.28 327.878 233.163 328.044 234.635C328.239 235.931 328.12 238.962 327.127 241.101C325.428 245.318 321.192 247.161 319.359 247.453C317.284 247.866 316.041 247.715 314.948 247.579C312.821 247.247 311.385 246.678 309.837 245.856C303.136 242.471 299.343 234.862 298.135 230.224C296.957 226.109 296.746 224.265 296.541 222.965C295.909 218.805 296.278 217.377 297.311 213.849C297.363 213.698 297.417 213.549 297.472 213.404C299.524 208.387 302.591 206.675 304.591 205.364C306.695 204.119 308.436 203.42 310.043 202.827C313.239 201.686 315.943 201.058 318.903 200.747C323.658 200.292 328.127 200.271 332.998 200.849C339.778 202.076 341.328 205.961 342.498 207.637C343.603 209.624 344.111 211.143 344.579 212.615C345.46 215.506 345.925 218.039 346.326 220.527C347.096 225.472 347.485 230.156 347.783 234.804C348.355 244.083 348.47 253.193 348.487 262.329C348.501 265.961 347.535 268.996 346.487 271.461C338.969 285.541 335.851 285.802 334.651 286.857C333.338 287.459 333.364 286.462 330.292 289.644C318.143 301.834 329.888 292.741 325.83 298.175C325.618 298.405 325.403 298.637 325.187 298.87C322.558 301.695 320.26 304.643 318.041 307.978C317.714 308.461 317.453 308.878 317.4 308.969C317.375 309.003 317.411 308.958 317.521 308.625C317.613 308.293 317.858 307.618 317.745 306.264C317.671 304.921 316.784 303.113 315.936 302.308C315.093 301.453 314.545 301.23 314.262 301.09C313.703 300.861 313.882 300.982 314.14 301.023C318.342 301.829 322.71 302.222 327.233 302.354C329.506 302.423 331.799 302.424 334.249 302.427C335.484 302.431 336.73 302.432 338.178 302.489C338.894 302.52 339.679 302.561 340.635 302.678C341.648 302.863 342.612 302.775 345.116 304C347.806 305.293 350.578 308.777 351.206 311.713C351.947 314.64 351.702 316.787 351.47 318.598C351.614 316.777 351.761 314.633 350.949 311.788C350.244 308.93 347.489 305.635 344.864 304.47C342.717 303.442 341.793 303.493 340.869 303.354C339.973 303.267 339.3 303.258 338.622 303.256C337.311 303.26 336.165 303.323 335.044 303.385C336.123 303.383 337.285 303.385 338.608 303.454C339.291 303.492 339.974 303.539 340.856 303.666C341.762 303.838 342.688 303.856 344.66 304.85C347.83 306.389 350.053 310.372 350.308 312.535C350.717 314.803 350.486 315.969 350.407 316.379C350.286 316.761 350.269 316.43 350.082 314.801C349.96 313.983 349.832 312.775 349.083 311.005C348.392 309.268 346.535 306.926 344.151 305.802C344.096 305.773 344.041 305.746 343.987 305.719C344.04 305.747 344.094 305.776 344.148 305.807C346.917 307.196 349.108 310.93 349.251 313.517C349.543 316.161 349.103 318.121 348.667 319.964C349.36 321.087 347.006 329.331 345.853 333.811C345.439 335.521 345.201 336.884 345.263 337.274C345.392 338.067 346.056 335.948 346.685 334.072C347.2 332.524 347.684 331.014 347.699 331.038C347.794 331.178 347.484 332.355 346.952 334.156C345.031 341.429 338.221 365.72 336.479 367.523C333.564 373.513 334.673 368.505 332.761 372.26C332.579 372.607 332.348 373.026 332.096 373.452C328.621 378.676 328.332 379.179 327.53 380.449C326.708 381.536 325.189 382.859 318.898 385.767C315.369 389.911 314.646 389.737 309.269 393.613C308.558 394.123 309.474 394.226 309.174 394.466C301.386 400.726 306.891 395.269 306.818 395.246C305.721 394.986 300.108 399.23 297.005 401.561C296.194 402.169 295.532 402.636 295.129 402.89C287.794 407.669 279.823 410.029 272.785 411.807C259.543 415.096 246.979 415.152 233.117 414.674C227.46 414.455 221.759 413.019 216.119 410.688C212.981 409.418 206.737 406.563 201.19 402.499C197.983 400.147 196.928 396.253 196.346 393.868C196.369 393.946 196.397 394.047 196.476 394.214C196.516 394.298 196.57 394.4 196.659 394.527C196.704 394.591 196.758 394.661 196.828 394.737C196.862 394.775 196.9 394.815 196.943 394.855C196.993 394.9 197.006 394.918 197.14 395.02C197.551 395.384 198.578 395.587 199.183 395.312C199.784 395.082 200.043 394.724 200.118 394.64C200.241 394.486 200.299 394.38 200.344 394.298C200.505 393.967 200.466 394.007 200.493 393.942C200.517 393.861 200.515 393.864 200.518 393.854C200.52 393.846 200.515 393.867 200.51 393.89C200.499 393.936 200.485 394 200.469 394.062C200.438 394.191 200.401 394.327 200.357 394.466C200.269 394.744 200.155 395.037 199.994 395.34C199.683 395.933 199.101 396.657 198.215 397.043C196.445 397.772 195.05 397.391 194.08 397.133C193.088 396.836 192.363 396.483 191.774 396.182C186.157 392.913 189.663 393.888 187.034 391.981C186.736 391.934 186.442 391.886 186.156 391.843C185.921 391.83 185.759 391.895 185.723 391.983C185.685 392.075 185.794 392.137 185.828 392.198C185.9 392.311 185.767 392.685 185.692 393.167C185.521 394.143 185.371 395.475 185.187 396.972C184.789 400.015 184.385 403.942 183.057 409.456C183.384 412.018 183.25 413.012 182.256 415.016C181.382 416.574 179.545 418.99 175.183 420.15C174.429 420.343 173.614 420.492 172.734 420.564C172.523 420.574 171.978 420.47 171.783 420.391C166.89 418.661 159.797 417.028 154.017 414.048C153.902 413.994 153.59 413.799 153.489 413.724C153.024 413.349 152.874 413.218 152.714 413.103C152.559 412.991 152.356 412.878 152.072 412.764C151.506 412.536 150.735 412.344 149.986 412.159C151.121 412.219 151.979 412.357 152.492 412.517C153.014 412.685 153.172 412.779 153.848 413.249C153.931 413.31 154.185 413.468 154.277 413.512C157.515 414.855 159.176 415.121 165.705 417.361C166.449 417.622 168.885 418.514 172.04 419.771C172.178 419.827 172.563 419.9 172.711 419.893C175.663 419.783 179.757 418.41 181.518 414.655C184.294 404.193 183.656 394.396 183.142 395.595C182.04 396.765 181.797 408.069 181.501 408.465C180.425 410.825 180.229 404.64 181.066 399.063C181.068 400.476 181.077 402.156 181.095 403.651C182.129 397.48 181.685 396.402 181.377 395.713C181.232 395.371 181.134 395.133 181.411 394.397C181.553 394.03 181.784 393.538 182.212 392.854C182.673 392.205 183.173 391.185 184.613 390.504C185.236 390.29 185.523 390.494 185.731 390.654C185.928 390.836 186.075 391.018 186.398 391.378C186.541 391.527 186.722 391.7 186.953 391.905C187.229 391.928 186.565 391.311 186.535 391.115C186.531 391.088 186.539 391.067 186.565 391.058C186.639 391.03 186.865 391.093 187.346 391.337C189.168 392.292 192.204 395.06 193.103 394.615C194.026 394.273 189.074 391.555 186.909 390.396C186.382 390.123 185.928 390.086 185.789 390.074C185.78 390.08 185.771 390.086 185.762 390.092C184.759 390.029 184.268 390.568 184.051 390.703C183.83 390.875 183.787 390.863 183.882 390.682C183.979 390.522 184.22 390.13 184.862 389.827C185.504 389.507 186.464 389.61 187.136 389.961C189.352 391.041 192.029 392.664 192.308 392.713C193.935 393.239 194.315 393.052 194.772 392.962C194.997 392.908 195.243 392.865 195.582 392.82C195.893 392.79 196.409 392.636 196.231 392.531C195.946 392.622 195.71 392.822 195.621 392.91C195.556 392.972 195.536 392.993 195.532 392.961C195.53 392.945 195.532 392.917 195.537 392.873C195.539 392.85 195.542 392.826 195.549 392.784C195.553 392.761 195.556 392.737 195.567 392.686C195.574 392.654 195.579 392.627 195.602 392.537C195.612 392.504 195.633 392.416 195.695 392.249C195.717 392.192 195.757 392.088 195.83 391.946C195.867 391.873 195.915 391.787 195.986 391.677C196.022 391.622 196.065 391.561 196.117 391.493C196.152 391.449 196.143 391.457 196.23 391.356C196.314 391.26 196.418 391.152 196.559 391.034C196.836 390.805 197.298 390.498 197.99 390.389C198.677 390.269 199.486 390.478 199.959 390.787C200.081 390.862 200.188 390.939 200.282 391.016C200.36 391.081 200.381 391.101 200.426 391.143C200.507 391.218 200.575 391.29 200.635 391.359C200.754 391.496 200.839 391.618 200.906 391.724C201.162 392.147 201.2 392.346 201.249 392.498C201.907 394.983 202.8 397.403 204.261 398.424C205.505 399.36 206.692 400.141 207.475 400.607C209.904 402.026 206.469 399.285 208.114 400.21C209.751 401.13 211.611 402.62 213.647 403.506C214.525 403.884 214.706 403.375 215.126 403.556C219.636 405.347 216.262 405.144 220.436 406.654C223.204 407.826 232.517 408.356 226.327 406.898C228.683 407.325 230.985 407.551 233.26 407.532C233.961 407.528 234.668 407.522 235.38 407.512C234.677 407.451 233.969 407.392 233.264 407.331C232.04 407.214 230.811 407.025 229.641 406.746C231.021 406.992 232.217 407.058 233.27 407.026C236.838 406.938 239.132 406.416 242.001 406.316C245.838 406.17 249.353 407.107 253.486 406.183C262.248 404.273 240.308 406.636 237.399 406.028C236.316 405.949 240.481 405.092 241.111 405.047C243.939 404.905 247.286 405.379 249.444 405.205C257.138 404.539 261.684 403.103 268.278 401.186C268.679 401.064 269.08 400.938 269.478 400.808C277.055 398.401 283.259 395.919 289.323 391.131C300.588 382.418 315.854 372.042 319.754 365.643C321.584 361.948 323.028 358.203 324.217 354.484C326.737 346.386 328.684 341.059 329.751 336.902C330.524 333.749 331.094 331.373 331.605 329.339C332.564 325.363 333.241 322.64 334.395 318.117C334.685 316.953 334.809 315.762 334.794 315.749C334.807 315.746 334.804 316.217 335.262 317.065C335.698 317.917 336.661 318.722 337.123 318.918C338.138 319.432 338.484 319.444 338.648 319.488C338.808 319.516 338.774 319.497 338.679 319.482C338.478 319.448 338.033 319.409 337.533 319.385C336.534 319.335 335.277 319.322 334.02 319.308C331.475 319.284 328.749 319.251 326.081 319.127C320.73 318.894 315.539 318.268 311.24 317.427C310.346 317.253 309.372 317.044 308.086 316.552C306.857 315.996 304.768 315.356 302.639 312.215C300.454 308.826 301.117 305.034 301.591 303.623C302.663 300.526 303.413 299.803 303.954 298.79C306.502 294.486 308.892 290.93 309.844 289.783C310.606 288.855 311.39 287.941 312.202 287.035C316.147 282.613 320.21 278.014 323.825 273.381C327.394 269.055 330.57 263.093 330.133 262.542C329.944 248.219 329.506 234.366 327.958 224.292C327.475 221.174 326.987 218.791 326.647 217.53C326.501 216.923 326.342 216.614 326.673 216.956C326.838 217.108 327.173 217.478 327.882 217.929C328.569 218.375 329.72 218.842 330.872 218.934C329.892 218.705 329.105 218.578 328.55 218.557C320.864 218.61 322.676 219.318 317.066 220.195C314.288 220.847 314.029 220.404 313.727 220.473C312.557 220.903 313.601 220.995 314.403 219.527C314.727 219.258 314.928 218.416 314.907 218.413C314.909 218.413 314.913 218.428 314.921 218.454C315.752 221.778 316.414 224.68 317.146 226.429C317.942 228.238 318.194 228.423 319.03 228.979C318.641 228.791 318.454 228.688 317.66 228.563C317.233 228.524 316.681 228.41 315.325 228.68C314.648 228.834 313.7 229.104 312.523 229.887C311.359 230.637 310.052 232.11 309.438 233.647C309.236 234.105 309.009 234.959 308.965 235.549C308.909 236.156 308.95 236.505 308.969 236.677C309.02 237.012 309.006 236.798 308.935 236.533C308.793 235.964 308.494 235.039 308.18 234.132C307.535 232.276 306.785 230.291 306.018 228.284C304.497 224.309 302.91 220.267 301.305 216.199C299.762 212.289 298.168 208.325 296.547 204.348C295.973 202.939 296.405 202.913 296.006 202.002C294.298 198.124 294.453 200.192 292.72 196.109C289.111 187.61 285.614 178.791 282.056 169.63C281.703 168.72 282.03 168.121 281.211 166.047C280.394 163.974 279.307 162.575 278.066 159.29C275.908 153.554 274.017 147.751 272.133 141.66C271.198 138.624 270.263 135.516 269.312 132.325C268.842 130.749 267.654 128.953 267.008 126.518C266.401 124.222 265.803 121.607 265.289 118.733C265.034 117.296 264.806 115.835 264.617 114.259C264.526 113.488 264.444 112.683 264.382 111.829C264.351 111.39 264.325 110.955 264.309 110.456C264.301 110.21 264.294 109.941 264.294 109.618C264.295 109.438 264.296 109.283 264.306 108.99C264.312 108.883 264.315 108.65 264.361 108.206C264.363 108.194 264.386 107.972 264.425 107.73C264.477 107.455 264.499 107.163 264.779 106.302C264.954 105.847 265.098 105.256 265.962 104.013C266.044 103.991 267.984 100.621 272.806 100.436C275.103 100.372 277.141 101.353 278.237 102.226C279.377 103.119 279.901 103.888 280.272 104.456C280.969 105.597 281.099 106.15 281.244 106.58C281.369 106.999 281.421 107.259 281.462 107.47C281.5 107.665 281.53 107.874 281.536 107.918C281.541 107.954 281.545 107.988 281.549 108.02C281.607 108.512 281.607 108.701 281.615 108.899C281.606 112.381 281.661 115.751 281.746 118.392C281.853 121.779 281.965 125.183 281.866 128.827C281.805 130.674 281.72 132.53 281.351 134.816C281.147 135.97 280.92 137.198 280.251 138.903C279.524 140.39 278.515 143.691 273.409 145.55C263.71 147.516 259.919 143.636 255.86 140.991C246.595 133.48 240.345 125.725 233.405 118.8C230.321 115.658 227.95 112.844 226.594 111.92C226.531 111.877 226.469 111.833 226.409 111.79C223.609 109.542 223.43 108.381 222.881 107.516C222.476 106.72 222.259 106.181 222.107 105.843C221.803 105.145 221.667 104.906 221.531 104.7C221.285 104.323 220.872 103.615 220.24 100.626C219.38 96.3151 218.581 92.4232 217.65 90.7078C217.452 90.3158 217.292 90.1546 217.389 90.2583C217.467 90.3524 217.934 90.6959 218.412 90.8207C218.89 90.9589 219.17 90.8976 219.061 90.9126C218.963 90.9243 218.594 91.0136 218.082 91.235C215.351 92.4005 212.207 94.3164 208.583 96.3532C206.734 97.3723 204.797 98.455 202.153 99.4646C199.647 100.22 195.46 102.277 189.209 99.0995C187.326 98.0043 186.384 96.6717 185.81 95.7091C185.316 94.8417 185.17 94.4232 184.977 93.8979C184.618 92.8311 184.553 92.3822 184.446 91.8255C184.399 91.5629 184.359 91.2916 184.33 91.0652C184.303 90.8665 184.281 90.6714 184.261 90.4784C184.222 90.1017 184.19 89.6832 184.171 89.3624C184.093 88.0492 184.092 86.8776 184.101 85.781C184.127 83.5735 184.218 81.5112 184.31 79.4956C184.5 75.4391 184.721 71.5225 184.836 67.6768C184.947 63.8627 184.977 60.0264 184.663 56.8093C184.585 56.028 184.479 55.2797 184.361 54.7059C184.258 54.147 184.068 53.6854 184.175 53.929C184.24 54.036 184.4 54.4275 185.087 55.09C185.745 55.7629 187.33 56.6465 188.821 56.738C189.512 56.8004 190.141 56.7357 190.612 56.6324C191.01 56.5457 191.309 56.4354 191.515 56.3452C191.912 56.1647 191.941 56.1086 191.9 56.1432C192.66 55.5464 192.705 55.3177 192.664 55.4064C192.611 55.4838 192.442 55.7862 192.272 56.1583C191.918 56.9205 191.526 57.958 191.159 59.0484C190.419 61.248 189.741 63.6887 189.104 66.1602C187.063 74.0771 185.144 82.038 183.106 90.1399C182.346 93.1373 181.559 96.2759 180.641 99.5707C180.176 101.226 179.683 102.923 179.051 104.763C178.721 105.709 178.386 106.635 177.866 107.796C177.598 108.385 177.293 109.017 176.833 109.786C176.235 110.639 175.973 111.53 173.597 113.336C172.771 113.908 171.539 114.589 169.843 114.894C168.163 115.22 166.161 114.954 164.786 114.382C162.005 113.181 161.19 111.892 160.509 111.095C159.299 109.449 158.996 108.556 158.62 107.699C158.39 107.176 157.827 105.729 157.552 104.583C157.253 103.403 157.087 102.334 156.973 101.359C156.752 99.409 156.718 97.7382 156.719 96.1182C156.687 86.4067 157.706 76.5484 158.697 68.6858C159.105 65.2359 159.389 63.5002 159.557 62.2232C159.726 60.9715 159.749 60.0958 159.529 59.6482C159.458 59.5039 159.381 59.3976 159.259 59.2677C154.993 54.423 153.203 53.8069 146.835 48.89C143.391 46.3208 139.591 43.3556 135.565 40.5791C132.886 38.7356 130.182 36.9464 127.496 35.3808C120.629 31.4031 117.007 30.4029 108.999 26.134C106.158 24.6302 102.847 22.7931 99.4427 20.9787C97.7456 20.0746 96.012 19.1686 94.3452 18.3461C93.5139 17.9362 92.6947 17.5452 91.9549 17.2162C91.7821 17.1391 91.5987 17.0595 91.4383 16.9918C91.2885 16.9283 91.1323 16.865 91.0358 16.8273C90.9548 16.7936 90.8561 16.765 91.051 16.8198C91.1119 16.8362 91.2008 16.8596 91.3373 16.8897C91.4057 16.9047 91.4862 16.9213 91.5835 16.9392C91.6804 16.9571 91.9119 16.9967 92.1716 17.0239C92.4417 17.0517 92.7842 17.0793 93.2784 17.0683C93.5392 17.0604 93.7695 17.0509 94.1954 16.9975C94.9163 16.8946 95.9172 16.7214 97.2786 16.0063C98.6084 15.3247 100.362 13.8039 101.266 11.7262C102.18 9.5508 102.108 8.24854 102 6.98127C101.661 4.57839 100.93 3.66323 100.539 3.01329C100.855 3.49636 101.467 4.2718 102.117 5.04268C105.427 8.94531 109.869 13.8882 112.86 20.3383C116.19 29.4366 115.073 33.9567 115.196 39.6276C115.044 45.0191 114.668 50.1821 114.352 55.2189C114.045 60.2058 113.725 65.2761 113.898 69.4339C113.944 70.4466 114.035 71.3811 114.145 71.9637C114.191 72.2264 114.256 72.409 114.21 72.2574C114.114 72.0971 114.104 71.5193 112.741 70.1219C111.44 68.5462 107.51 67.5974 106.052 68.105C104.507 68.4406 104.274 68.7578 104.162 68.7923C104.098 68.8339 104.255 68.7193 104.484 68.5009C104.681 68.3134 104.953 68.0388 105.278 67.6803C106.905 65.8851 108.506 63.7382 109.996 61.4653C110.745 60.3228 111.465 59.1518 112.155 57.9576C112.499 57.3624 112.835 56.7612 113.154 56.1704C113.316 55.8691 113.467 55.5834 113.616 55.2946C113.687 55.1567 113.758 55.0187 113.822 54.8897C113.848 54.8366 113.884 54.7642 113.899 54.7318C113.91 54.7095 113.916 54.697 113.909 54.711C113.903 54.7233 113.892 54.7465 113.857 54.8243C113.844 54.8526 113.851 54.8342 113.787 54.9829C113.758 55.052 113.721 55.1369 113.652 55.317C113.617 55.4097 113.574 55.5249 113.509 55.72C113.443 55.9277 113.355 56.1624 113.216 56.8119C113.15 57.1556 113.053 57.5818 113.018 58.495C113.118 59.4186 112.59 60.9087 114.828 64.4467C115.951 66.1604 118.579 68.0029 120.982 68.3636C123.414 68.7947 125.182 68.2806 126.274 67.869C128.439 66.9566 128.949 66.2783 129.455 65.8571C130.317 65.0119 130.462 64.7319 130.658 64.4806C130.826 64.2465 130.91 64.1139 130.979 64.0074C131.222 63.6175 131.244 63.5607 131.292 63.4763C127.207 71.4154 122.316 78.8077 117.634 86.0194C104.512 105.941 90.8992 125.424 77.8776 145.057C75.6881 148.381 73.6006 151.706 71.6053 155.102C70.6081 156.797 69.6453 158.499 68.6279 160.311C68.1073 161.231 67.6035 162.148 66.8606 163.354C66.4599 163.982 66.0656 164.655 65.1226 165.787C64.6036 166.377 63.976 167.114 62.6159 168.051C61.3251 168.988 58.6824 170.019 56.3379 169.897C49.4966 169.58 44.6523 166.136 41.2817 161.773C41.0964 161.526 40.9144 161.271 40.7377 161.011C37.8424 156.52 36.8906 153.22 35.61 150.509C35.0358 149.209 34.4054 148.075 34.1919 147.807C34.1085 147.672 34.1562 147.845 34.8221 148.269C35.4423 148.701 36.9646 149.131 37.978 148.998C41.0021 148.609 41.6617 147.514 42.0493 147.218C42.4003 146.836 42.413 146.742 42.4531 146.669C42.4304 146.715 42.5338 146.489 42.582 146.331C42.6355 146.165 42.6506 146.074 42.6473 146.083C42.6383 146.098 42.5872 146.42 42.5545 146.816C42.4842 147.626 42.4495 148.715 42.4359 149.822C42.4102 152.063 42.4524 154.453 42.5093 156.867C42.8452 171.94 43.0613 187.081 42.1672 202.082C41.9387 204.854 41.3617 200.425 40.926 209.502C40.8581 210.374 40.8067 211.233 40.6603 212.42C40.624 212.708 40.5838 213.004 40.5181 213.381C40.4535 213.745 40.3899 214.095 40.2444 214.642C40.11 215.111 39.9354 215.826 39.3183 216.953C39.0907 217.352 38.7988 217.808 38.3505 218.331C37.8622 218.854 37.4533 219.409 35.9337 220.249C34.5859 221.014 32.3154 221.368 30.7659 221.028C29.1255 220.724 27.9344 220.002 27.1506 219.383C21.858 215.11 19.356 210.966 15.3187 205.319C13.2257 202.302 11.148 199.429 8.97612 196.837C8.8287 196.657 8.70605 196.553 8.84113 196.673C9.03106 196.753 9.25751 197.311 11.4762 197.807C12.5585 198.029 14.3066 197.898 15.5771 197.301C16.8621 196.725 17.5623 196.006 17.9388 195.577C18.6643 194.682 18.6004 194.539 18.6126 194.566C11.615 209.39 13.1375 224.065 16.9566 241.141C20.4062 257.18 24.3617 272.098 32.6999 284.673C35.1388 288.388 37.5775 292.113 39.9792 295.988C41.1739 297.924 42.3705 299.901 43.5453 302.059C44.1354 303.155 44.7246 304.272 45.3344 305.719C45.6426 306.501 45.9696 307.199 46.2948 308.79C46.345 309.66 46.9475 310.554 45.8518 313.781C45.3034 315.457 43.0476 317.717 41.144 318.237C39.1597 318.864 38.1618 318.684 37.2522 318.587C32.4149 317.714 29.6374 316.483 26.5775 315.625C25.1325 315.194 23.6965 314.831 22.8468 314.725C22.6452 314.699 22.4949 314.691 22.4724 314.691C22.4554 314.685 22.5501 314.709 23.0047 314.602C23.4244 314.492 24.3914 314.204 25.4116 313.164C26.438 312.132 26.8647 310.724 26.9197 310.047C26.9125 309.957 26.9299 310.358 27.0227 310.551C27.1137 310.774 27.2147 310.923 27.4111 311.099C29.737 313.037 35.101 315.637 39.6529 317.741C41.8318 318.749 44.0446 319.735 46.3456 320.799C47.5187 321.347 48.6623 321.871 50.0694 322.631C50.4822 322.861 50.794 323.03 51.3818 323.413C51.5194 323.504 51.6517 323.594 51.8129 323.71C52.0159 323.858 52.2347 324.025 52.4865 324.241C52.6126 324.349 52.7471 324.47 52.8932 324.612C53.0542 324.767 53.35 325.071 53.6303 325.427C53.9187 325.796 54.2532 326.266 54.5872 326.974C54.8664 327.488 55.7172 329.792 55.0699 332.099C54.8036 333.224 54.0941 334.433 53.5827 335.023C53.1005 335.609 52.5927 336.05 52.1285 336.382C51.1912 337.043 50.4433 337.314 49.8618 337.498C49.5111 337.603 49.4642 337.609 49.3014 337.649C49.1613 337.681 49.0305 337.707 48.9072 337.73C48.6607 337.775 48.4439 337.804 48.246 337.825C48.0483 337.846 47.8697 337.859 47.703 337.867C47.5342 337.875 47.4712 337.877 47.3617 337.879C47.1616 337.884 46.9764 337.882 46.7989 337.878C46.6272 337.874 46.4322 337.865 46.3024 337.857C46.1805 337.851 46.0605 337.843 45.941 337.834C45.7022 337.815 45.4657 337.793 45.2253 337.767C44.145 337.616 44.1731 337.571 43.9224 337.521C43.7683 337.483 43.621 337.444 43.5242 337.42C43.2985 337.361 43.1264 337.317 42.9571 337.276C42.6121 337.191 42.3046 337.121 41.9909 337.057C41.3716 336.931 40.7672 336.837 40.1787 336.776C39.0021 336.654 37.8898 336.667 36.8844 336.81C34.8626 337.107 33.3619 337.845 32.004 339.132C32.5473 338.777 33.181 337.377 32.9427 336.4C33.2689 339.959 40.2409 345.476 46.9444 349.491C54.7172 354.235 62.4435 359.014 70.1043 363.843C73.9543 366.27 77.7502 368.685 81.5651 371.144C83.4725 372.373 85.3465 373.588 87.2593 374.841C88.1924 375.451 89.1654 376.092 90.1079 376.716C90.5806 377.029 91.0472 377.34 91.5449 377.674C91.77 377.824 92.0471 378.012 92.2715 378.164C92.4085 378.257 92.5485 378.353 92.6666 378.434C92.7537 378.495 92.8361 378.553 92.9186 378.611C92.9609 378.641 92.9936 378.664 93.1027 378.744C93.1517 378.781 93.2055 378.821 93.2811 378.879C93.3192 378.908 93.363 378.942 93.4193 378.987C93.4476 379.01 93.4791 379.035 93.5157 379.065C93.5249 379.073 93.5344 379.08 93.5443 379.089C93.5611 379.102 93.5148 379.064 93.5949 379.131C93.689 379.21 93.804 379.306 94.0196 379.508C94.2594 379.769 94.4918 379.85 95.4279 381.179C95.7541 382.026 97.1952 382.728 96.9433 387.699C96.7786 390.179 94.5637 393.582 92.2564 394.738C89.9822 396.001 88.422 395.999 87.4406 396.027C85.4988 395.971 84.9688 395.678 84.4612 395.544C83.9994 395.389 83.7574 395.281 83.5625 395.196C83.1889 395.027 83.0321 394.939 82.898 394.868C80.6843 393.594 80.2201 392.985 79.4835 392.375C78.823 391.78 78.2846 391.256 77.7855 390.765C76.7884 389.78 75.9179 388.888 75.0645 388.03C73.3691 386.321 71.7635 384.757 70.1905 383.397C67.2062 380.63 63.4963 378.963 63.5189 379.269C63.662 379.249 63.7694 379.388 65.0134 378.952C65.6201 378.711 66.6341 378.229 67.7005 377.076C68.7788 375.949 69.5401 374.157 69.6893 372.915C68.8674 378.597 69.411 380.47 71.1079 382.562C81.6388 395.241 91.3134 404.497 103.563 406.312C120.48 408.735 137.721 410.072 153.955 410.861C157.493 410.949 156.097 413.469 153.702 414.331C151.451 414.042 149.387 413.601 147.05 413.181C144.272 416.163 144.733 415.52 133.856 415.388C127.164 415.235 132.512 416.471 128.929 416.806C124.3 417.445 102.335 417.507 106.694 415.818C105.319 416.037 104.044 416.24 102.696 416.433C102.648 416.429 102.6 416.425 102.552 416.421C85.9269 415.216 73.0312 403.47 62.8414 392.238C62.3328 391.699 61.911 391.322 61.5532 391.047C60.5141 390.157 59.732 389.804 58.4799 387.768C55.1075 382.006 55.6378 376.025 56.4852 370.979C56.6583 368.985 58.6403 367.047 60.0572 366.607C61.5212 366.04 62.712 365.978 63.9121 365.994C64.2954 366.004 64.6792 366.031 65.0627 366.072C70.2077 367.033 71.2184 366.946 76.1775 370.434C80.7498 374.174 79.974 374.835 85.9271 379.501C85.3561 378.515 85.6734 378.611 86.5504 379.394C86.9866 379.782 87.5662 380.349 88.2115 380.977C88.5409 381.296 88.8772 381.621 89.2034 381.917C89.36 382.06 89.5231 382.201 89.6346 382.291C89.7473 382.387 89.8556 382.445 89.6781 382.345C89.5907 382.301 89.5236 382.251 89.1405 382.098C88.9031 382.03 88.7326 381.87 87.6396 381.79C87.099 381.807 86.0131 381.678 84.4737 382.865C83.7408 383.452 83.1365 384.433 82.9306 385.299C82.7095 386.172 82.776 386.865 82.8664 387.349C83.0732 388.315 83.3359 388.669 83.4967 388.952C83.666 389.219 83.7832 389.361 83.876 389.473C84.0589 389.689 84.1527 389.775 84.2273 389.848C84.3662 389.979 84.4367 390.035 84.4591 390.054C84.4704 390.064 84.4803 390.072 84.4892 390.079C84.5069 390.093 84.5205 390.104 84.5316 390.113C84.5537 390.13 84.566 390.14 84.5737 390.145C84.5886 390.157 84.5854 390.154 84.5742 390.145C84.5561 390.132 84.5375 390.118 84.508 390.096C84.4471 390.051 84.371 389.996 84.3104 389.952C84.1686 389.85 84.02 389.743 83.8713 389.637C83.7046 389.518 83.5688 389.421 83.4101 389.308C83.2471 389.192 83.0889 389.079 82.9359 388.971C82.2802 388.505 81.6502 388.057 80.9559 387.565C79.62 386.618 78.2311 385.635 76.8849 384.688C74.2247 382.816 71.6695 381.043 69.961 379.924C69.0352 379.31 60.9126 375.172 56.9529 372.435C52.9661 369.674 47.1991 365.11 40.6977 361.391C40.3467 361.19 40.0052 361.006 39.6707 360.833C36.9996 359.429 34.8434 358.767 31.9171 356.557C29.6081 354.778 27.3669 351.961 24.8232 348.838C23.2721 347.101 20.3041 342.606 19.6676 339.099C18.7919 335.499 20.2063 332.415 20.7715 331.526C21.6118 330.134 22.3955 329.424 22.8971 328.983C24.8336 327.438 21.6128 330.651 24.4788 328.293C30.7619 322.957 41.6363 323.281 46.6787 325.157C46.9478 325.191 47.1263 325.204 47.175 325.207C47.1639 325.214 47.1782 325.187 46.7188 325.254C46.6011 325.274 46.4786 325.297 46.269 325.355C45.9472 325.449 45.4846 325.593 44.8457 326.024C44.5297 326.241 44.1715 326.539 43.8267 326.953C43.469 327.356 42.951 328.243 42.7816 329.054C42.3575 330.724 43.0688 332.277 43.1781 332.455C43.6297 333.32 44.0017 333.604 44.1041 333.716C44.2279 333.831 44.2998 333.886 44.3388 333.915C44.4066 333.965 44.3733 333.937 44.3154 333.9C44.2068 333.828 43.9695 333.689 43.7629 333.576C42.8276 333.062 41.6575 332.498 40.5141 331.953C38.1955 330.854 35.8023 329.763 33.4252 328.645C28.6084 326.281 24.1183 324.518 19.0635 320.581C18.9367 320.472 18.8125 320.362 18.6911 320.25C16.9787 318.532 18.1176 320.325 18.6745 321.022C18.7979 321.195 18.8684 321.296 18.8047 321.247C18.7399 321.196 18.6757 321.145 18.6121 321.093C14.4936 317.586 13.7457 313.857 13.4277 311.872C13.1662 309.774 13.4003 308.828 13.5018 308.498C13.672 307.863 13.734 308.354 13.8927 308.229C13.9763 308.168 14.0658 307.96 14.2886 307.394C14.5321 306.848 14.8861 305.68 16.2667 304.312C17.0175 303.561 18.3017 302.785 19.5317 302.464C20.7475 302.129 21.8586 302.091 22.8743 302.14C24.9056 302.257 26.707 302.702 28.593 303.206C32.2314 304.187 36.5452 305.734 39.0732 306.01C38.8439 305.975 38.5319 305.945 38.1169 305.977C37.6295 306.017 36.9629 306.141 36.2045 306.558C34.4812 307.464 33.8284 309.372 33.7771 309.925C33.7118 310.313 33.712 310.522 33.711 310.693C33.7121 310.864 33.7232 310.982 33.7291 311.048C33.7439 311.196 33.7508 311.233 33.7439 311.234C33.7139 311.199 33.5275 310.771 33.3196 310.394C32.8999 309.616 32.3767 308.787 31.9142 308.113C30.9795 306.757 30.2423 305.918 30.0417 306.006C30.8194 304.701 27.0476 300.613 26.2234 299.448C23.3178 295.267 24.3507 295.145 22.0145 291.844C21.7798 291.513 21.5167 291.15 21.2206 290.75C19.9532 289.025 21.5746 292.942 20.3376 290.996C17.2994 286.126 15.9332 281.044 13.2197 274.168C12.5796 272.498 11.8335 272.163 10.7697 269.161C9.56099 266.163 6.71293 253.307 7.21967 259.468C6.15493 252.496 5.45764 250.543 3.88929 244.237C3.66287 243.321 3.4343 242.353 3.19482 241.259C2.70082 238.949 2.9135 235.846 1.85409 230.918C1.50887 229.248 0.654306 229.413 0.326231 226.839C-0.35381 220.905 0.0802264 215.118 1.15421 207.382C2.00646 201.254 4.04451 195.163 6.15312 189.642C6.46935 188.86 6.79767 187.992 7.7624 186.816C8.25231 186.242 8.98384 185.534 10.1165 185.017C11.2384 184.484 12.7092 184.348 13.7698 184.546C15.9362 184.978 16.8181 185.819 17.5895 186.41C18.3372 187.041 18.8539 187.605 19.3342 188.161C23.4789 192.965 26.9104 198.141 30.1244 202.976C32.1713 205.924 30.983 206.114 34.0096 209.515C34.0928 209.597 34.3589 209.81 34.6513 209.977C34.2732 209.668 33.5232 209.189 32.4129 209.129C31.2189 209.027 29.9783 209.722 29.6105 210.091C29.2147 210.437 29.0263 210.718 28.9071 210.9C28.8141 211.044 28.7747 211.117 28.7427 211.171C28.6442 211.344 28.6983 211.101 28.7091 210.856C28.7509 210.328 28.7915 209.475 28.8074 208.664C28.8489 206.958 28.8494 205.067 28.9401 203.616C29.1432 201.422 29.7715 189.616 29.7679 187.197C29.8122 183.238 28.9663 182.546 29.1022 180.378C29.4733 174.092 30.7894 179.117 28.9638 171.586C29.8401 169.087 29.633 164.677 30.7344 163.219C29.9031 161.633 30.0291 159.712 30.0918 157.262C30.129 155.796 30.1507 154.147 29.9691 152.255C29.5904 147.929 27.4949 143.375 30.3912 140.674C30.6939 140.465 31.0285 140.345 31.39 140.322C31.6091 139.857 31.9585 139.178 32.6452 138.352C33.3676 137.589 34.2998 136.324 36.9214 135.931C38.7422 135.657 41.0535 136.327 42.4924 137.389C43.9695 138.427 44.8887 139.58 45.615 140.566C47.0313 142.56 47.7461 144.087 48.0402 144.653C50.2445 149.307 48.4465 147.143 50.0196 150.375C50.1555 150.645 50.2694 150.59 50.5476 150.891C50.827 151.167 51.2752 151.945 52.0899 153.218C52.0908 153.219 52.0917 153.221 52.0927 153.222C52.3106 153.713 54.501 156.101 56.6758 156.084C56.1469 156.059 55.48 156.246 55.128 156.448C54.7591 156.651 54.6385 156.789 54.5866 156.837C54.5036 156.931 54.6635 156.751 54.8091 156.527C55.1296 156.049 55.5205 155.371 55.9014 154.699C56.6685 153.338 57.4375 151.942 58.1246 150.735C59.5041 148.303 60.5762 146.533 60.7799 146.226C68.7333 134.562 57.1756 153.146 56.4585 155.937C56.0875 156.3 55.7218 156.641 55.3775 156.909C55.1433 157.235 54.9533 157.397 55.1018 157.255C55.1992 157.11 56.1022 156.69 56.659 156.771C55.8655 156.804 55.984 157.139 56.6421 157.463C56.3916 157.498 56.0441 157.628 55.8752 157.77C55.704 157.909 55.6951 157.999 55.7493 157.998C55.869 157.997 56.1547 157.736 56.3925 157.443C57.8969 155.523 59.9965 150.49 61.496 148.71C62.2459 147.799 63.0154 149.086 61.1617 152.036C63.3557 148.999 61.2281 153.638 62.2929 152.542C63.0883 151.67 67.5594 144.353 70.184 140.053C71.2514 138.264 71.9423 136.959 71.7787 136.812C71.1477 137.755 70.4752 138.776 69.8044 139.806C68.59 141.668 67.356 143.628 66.2832 145.339C64.3665 147.044 64.5055 143.138 66.7515 137.82C68.2532 134.239 70.7055 129.997 73.8844 126.523C79.5886 120.293 72.7414 132.26 82.8793 115.318C81.1412 117.8 79.6077 119.859 78.0245 122.117C77.0623 121.826 80.436 118.705 81.4729 116.624C81.9677 115.624 77.5884 120.898 80.7137 115.862C84.7004 112.411 85.7539 108.392 90.523 101.315C89.3972 103.416 88.2674 105.52 87.1409 107.622C96.0485 96.2365 77.5476 124.163 93.7249 101.25C91.8712 104.071 89.9795 106.844 88.1346 109.691C89.4735 108.611 89.2244 111.62 90.308 110.576C93.1501 107.84 95.9458 102.829 98.6372 98.9716C99.8193 97.2749 99.4327 98.5615 99.5321 98.4185C101.145 96.1066 100.311 96.2963 101.666 94.2173C103.366 91.6189 108.853 84.4331 109.594 83.1819C111.548 79.9242 107.104 84.5525 107.235 84.1927C107.635 83.1216 108.524 81.708 109.264 80.5105C110.144 79.0872 110.834 77.9387 110.43 77.8392C109.992 78.5777 109.501 79.3829 108.932 80.2922C101.762 91.7487 85.8973 113.973 100.969 89.6421C95.2408 96.0306 95.2924 93.074 101.954 82.8811C104.246 79.3587 105.043 78.2973 105.445 77.9972C106.023 77.5469 105.845 78.5481 107.865 76.2234C108.347 75.7282 115.824 64.5662 115.662 63.6981C116.396 64.7683 119.502 61.5154 119.054 64.6696C119.011 65.1265 116.046 69.8439 117.889 68.6904C118.815 68.1247 121.167 66.2634 121.465 66.9714C121.689 65.7509 121.881 64.4571 122.064 63.2146C122.856 61.7644 123.517 60.4688 124.039 59.5195C124.038 59.5213 124.035 59.5265 124.021 59.5499C124.014 59.5624 124.005 59.5785 123.981 59.614C123.943 59.6582 123.962 59.68 123.727 59.9009C123.656 59.9591 123.567 60.0433 123.334 60.1468C123.126 60.2396 122.581 60.3908 122.013 60.0647C121.451 59.7223 121.344 59.258 121.302 59.062C121.263 58.8426 121.276 58.7358 121.281 58.6535C121.317 58.3657 121.341 58.362 121.354 58.31C121.379 58.238 121.384 58.2306 121.388 58.2195C121.395 58.2033 121.388 58.2171 121.384 58.2258C121.371 58.2527 121.359 58.2761 121.344 58.3039C121.312 58.3681 121.285 58.418 121.252 58.4809C121.19 58.6 121.12 58.7288 121.062 58.8333C120.93 59.0742 120.807 59.2893 120.685 59.4973C120.438 59.9177 120.192 60.3146 119.964 60.6607C119.497 61.3724 119.062 61.9622 118.622 62.5095C117.737 63.6068 116.848 64.5309 115.599 65.8145C115.97 65.846 119.486 63.1907 115.588 68.1446C115.372 68.3775 114.839 68.3678 112.697 70.6556C111.934 71.4558 111.254 72.114 110.672 72.6356C109.93 73.3087 109.473 73.6164 109.076 73.8415C108.669 74.0711 108.455 74.0912 108.359 73.9924C108.177 73.7702 108.47 73.1286 109.281 71.3579C109.289 71.34 109.298 71.322 109.306 71.3038C109.294 71.3186 109.282 71.3333 109.27 71.348C108.313 72.5561 107.429 73.37 107.018 73.6134C106.948 73.6612 106.928 73.6609 107.066 73.6347C107.162 73.6142 107.547 73.5764 107.921 73.6808C108.31 73.7755 108.681 74.0188 108.837 74.1705C108.996 74.3194 109.037 74.4017 109.033 74.3849C108.961 74.2732 108.731 73.3806 108.669 72.5438C108.592 71.6987 108.579 70.7536 108.601 69.8207C108.704 65.9874 109.202 61.9099 109.44 54.9906C107.592 57.3347 106.593 63.4452 108.367 74.051C108.024 74.4863 107.665 74.8207 107.393 75.2874C106.533 72.5632 106.928 69.3104 106.983 67.8084C107.099 66.1333 107.188 65.2644 107.196 64.6953C107.229 63.4999 106.945 63.2033 106.774 58.3999C106.688 56.0643 107.821 43.519 106.242 47.6261C105.879 48.5929 105.356 56.3835 104.946 55.4518C104.863 55.2833 105.311 45.7913 105.465 44.9716C106.521 39.7829 107.04 41.8474 107.444 41.6394C107.639 41.5194 107.815 40.8608 107.935 38.3329C107.829 35.7753 108.846 31.6618 106.363 23.7305C106.307 23.6014 106.243 23.4915 106.173 23.3933C105.791 22.8888 105.253 22.6815 104.544 21.507C102.922 18.9566 103.409 18.5881 101.728 16.4688C100.041 14.3623 96.9206 12.1415 95.1469 8.64876C93.8022 5.52666 95.3528 6.97263 98.3243 10.0028C101.319 13.0086 105.411 18.2575 106.789 22.2322C108.571 23.2895 103.08 13.1954 96.7234 5.58942C96.9029 5.88462 97.239 6.3091 97.4175 7.42026C97.4849 7.99509 97.5146 8.65129 97.1634 9.61307C96.7946 10.6205 95.979 11.4471 95.3129 11.8332C94.6349 12.2378 94.1136 12.3502 93.7444 12.4155C93.5203 12.4502 93.5008 12.4481 93.4182 12.4565C93.3473 12.4627 93.2824 12.4666 93.2225 12.469C92.9835 12.4781 92.8219 12.4672 92.6987 12.4564C92.4444 12.4308 92.3911 12.4139 92.3461 12.4071C92.3022 12.3989 92.2844 12.3952 92.2831 12.3962C92.2837 12.4005 92.4562 12.4614 92.5893 12.5162C92.9084 12.6434 93.297 12.812 93.6766 12.9834C94.477 13.3441 95.2765 13.728 96.1242 14.143C97.7839 14.9577 99.484 15.8293 101.158 16.7028C104.53 18.4633 107.765 20.2163 110.678 21.8144C116.478 24.9999 120.856 27.4958 121.694 27.92C134.597 34.564 113.512 22.8398 112.639 21.8819C112.29 21.4431 113.876 19.038 107.622 17.7865C105.78 17.4192 112.084 21.6088 107.973 19.7475C103.871 17.9099 105.833 18.0114 105.572 17.8052C104.683 17.1016 100.275 15.1987 99.7968 14.8415C92.0418 9.20689 94.012 6.89822 103.55 16.1791C108.881 17.9023 98.2606 10.8321 104.654 13.4066C112.46 16.5897 117.189 20.7702 118.071 21.3206C128.726 28.1692 117.004 19.2452 130.08 27.5362C137.293 32.1988 118.382 22.0575 135.303 31.9717C136.936 32.9436 138.256 33.7264 139.369 34.3771C147.726 39.3991 142.353 35.22 143.956 34.6608C144.376 34.5196 152.247 39.1034 141.756 32.5309C141.421 32.6297 140.938 32.7027 140.393 32.7071C140.126 32.7104 139.846 32.6976 139.563 32.6639C137.152 30.8493 133.845 26.5963 132.484 25.7165C125.89 21.4611 125.714 22.5558 122.278 19.2253C124.495 21.982 120.235 18.6573 118.319 17.9143C111.258 15.2219 119.769 20.1341 105.508 11.1434C107.193 12.6949 108.649 14.1387 110.229 15.6726C108.448 14.7448 106.667 13.8327 104.861 12.9284C102.859 10.3209 92.9641 5.84129 102.404 8.85603C100.767 7.97912 99.2623 7.21061 97.8418 6.54295C97.1477 6.2171 96.4486 5.90363 95.7543 5.62411C95.3812 5.4755 95.0676 5.35369 94.6207 5.20986C94.4457 5.15447 94.1467 5.06345 93.8266 5.00252C93.6341 4.97226 93.3109 4.88974 92.7029 4.94681C92.4782 4.97562 91.9587 5.03194 91.3336 5.42656C90.698 5.75794 89.9869 6.8921 89.9516 7.56142C89.8143 8.98677 90.2987 9.47361 90.4768 9.80733C94.0211 14.5182 95.9922 15.9192 97.6002 16.9058C98.0459 17.1537 99.1694 18.4448 100.283 20.0801C100.322 19.6069 100.793 18.688 101.066 18.8881C103.618 20.7299 103.997 25.5847 102.753 24.4775C102.813 24.6131 102.871 24.7462 102.927 24.8762C103.286 25.7381 103.444 26.6177 103.502 26.9334C103.686 28.0891 103.414 27.585 103.104 27.0125C102.791 26.4583 102.447 25.9827 102.563 26.8071C102.823 27.1986 103.427 34.0014 103.096 34.153C101.362 35.0908 103.213 23.4801 101.331 46.5864C102.726 47.2296 102.941 36.3828 104.278 39.2132C105.778 42.2923 103.24 48.3265 105.081 49.8032C104.727 50.2818 104.445 50.4851 104.052 50.891C104.213 60.5062 102.633 60.5429 102.142 63.4934C101.92 64.9097 101.68 67.6754 101.777 70.7238C101.836 72.2536 101.959 73.8686 102.408 75.5562C102.635 76.3672 102.948 77.2863 103.6 78.2072C104.198 79.1301 105.611 80.1204 106.881 80.1918C108.25 80.2903 108.918 79.9671 109.594 79.6759C110.127 79.417 110.483 79.1658 110.756 78.9543C111.027 78.742 111.173 78.589 111.179 78.5358C111.186 78.4806 111.139 78.4634 110.884 78.5803C110.639 78.688 110.252 78.8862 109.701 79.0952C109.099 79.2865 108.272 79.731 106.684 79.4278C105.058 79.0892 104.025 77.4893 103.67 76.2598C103.271 75.0111 103.111 73.5449 103.055 72.061C103.358 73.8326 103.453 75.6638 104.907 77.625C105.277 78.0748 105.899 78.5554 106.602 78.7192C107.287 78.8945 108.001 78.7826 108.514 78.6067C109.623 78.2186 110.386 77.5928 111.044 77.0257C112.503 77.9922 112.407 78.6827 114.712 76.3459C116.164 74.7864 118.681 71.8528 122.493 66.0016C123.297 64.7564 124.023 63.9298 124.654 63.1271C124.97 62.7244 125.254 62.3399 125.511 61.8998C125.637 61.6834 125.759 61.4488 125.865 61.2074C125.926 61.0714 125.968 60.9646 126.028 60.8075C126.052 60.7409 126.081 60.6634 126.11 60.5801C126.122 60.5438 126.139 60.495 126.165 60.4272C126.171 60.4109 126.177 60.394 126.184 60.3752C126.192 60.3533 126.192 60.354 126.243 60.2283C126.27 60.148 126.291 60.1421 126.403 59.7412C126.432 59.622 126.475 59.4836 126.511 59.1188C126.525 58.9289 126.549 58.6832 126.484 58.2237C126.399 57.7883 126.291 56.9657 125.315 56.0166C124.309 55.0178 122.634 54.8835 121.89 55.1155C121.084 55.3222 120.758 55.5869 120.514 55.7541C120.062 56.1018 119.964 56.2567 119.855 56.378C119.67 56.6061 119.631 56.6796 119.585 56.749C119.544 56.8133 119.522 56.8514 119.503 56.8831C119.468 56.9446 119.451 56.9778 119.435 57.0083C119.18 57.7092 119.109 58.2975 119.041 59.1151C118.068 58.0005 113.563 67.4295 112.809 68.1771C109.759 71.4152 114.345 62.6429 117.969 56.2085C118.011 56.1352 118.018 56.1064 118.208 55.8102C118.264 55.7257 118.328 55.6239 118.504 55.4014C118.596 55.2869 118.711 55.1425 118.958 54.899C119.241 54.6618 119.493 54.273 120.791 53.719C121.442 53.4725 122.567 53.1501 124.071 53.513C125.569 53.8328 126.98 55.1254 127.468 56.0798C128.456 58.0531 128.141 58.701 128.174 59.1776C128.091 60.0367 128 60.1713 127.953 60.3662C127.854 60.6822 127.819 60.751 127.787 60.8344C127.757 60.9081 127.738 60.9509 127.722 60.9879C127.696 61.0456 127.698 61.0412 127.687 61.0645C127.655 61.1329 127.626 61.191 127.604 61.2338C127.572 61.2964 127.532 61.3719 127.501 61.4308C127.444 61.5356 127.376 61.6585 127.322 61.7543C127.201 61.9693 127.087 62.164 126.976 62.3478C126.747 62.7292 126.519 63.0889 126.294 63.4287C125.841 64.1098 125.393 64.7186 124.96 65.2445C124.1 66.2882 123.308 66.9881 122.704 67.1931C121.266 71.3033 120.19 70.5673 117.399 74.4274C116.658 75.4136 115.998 76.2403 115.386 76.9653C113.736 78.7614 112.907 80.0104 109.791 81.3034C109.346 81.4583 108.861 81.5829 108.327 81.6483C107.754 81.7229 106.98 81.7253 106.251 81.5605C104.728 81.2711 103.278 80.0885 102.645 79.0777C101.337 77.0045 101.256 75.2993 101.16 73.4353C100.547 71.0447 100.107 72.6196 101.059 76.6661C101.436 77.7177 101.736 79.2395 103.893 80.899C105.031 81.722 106.595 82.1178 107.923 82.0075C109.101 81.9318 110.117 81.5421 110.78 81.2292C113.542 79.7919 114.598 78.5094 115.826 77.3695C117.865 75.3135 118.77 74.5946 116.419 77.9142C115.31 79.1235 114.951 80.5213 110.855 82.8234C110.261 83.0969 109.57 83.3499 108.742 83.5073C107.904 83.6757 106.576 83.732 105.341 83.4096C102.578 82.7441 100.786 80.5612 100.045 79.1887C98.5284 76.3232 98.3437 74.2497 98.0349 72.1297C97.5418 67.8814 97.6054 63.3949 97.7586 58.4112C97.9199 53.4271 98.2475 47.9983 98.4229 42.3109C98.506 39.4724 98.551 36.5624 98.4343 33.7587C98.3759 32.3871 98.2699 30.9761 98.0957 29.7852C97.9371 28.5816 97.5985 27.4418 97.5008 27.3553C95.3619 22.8042 91.7197 19.4396 86.3958 12.563C85.9777 11.8176 85.0045 10.7638 84.9988 7.7041C84.9669 6.39836 85.7992 3.73744 87.3962 2.29829C88.9383 0.820902 90.3934 0.402518 91.3205 0.187417C91.5597 0.135545 91.7768 0.0994787 91.9755 0.072978C92.174 0.0474515 92.1918 0.0469871 92.2943 0.0367603C92.466 0.0206251 92.6229 0.0111728 92.7681 0.00582075C93.0582 -0.00468063 93.3017 0.000585556 93.5157 0.0114188C93.9425 0.0340862 94.2561 0.0775099 94.5235 0.120984C94.9342 0.190527 95.1259 0.237535 95.3659 0.295937C95.5845 0.350035 95.8134 0.415881 95.9244 0.44863C96.1936 0.528006 96.4509 0.612483 96.6802 0.691461C96.8717 0.757109 97.0608 0.82488 97.2519 0.895698C97.9722 1.16343 98.5554 1.40269 99.1731 1.66272C100.338 2.15489 101.415 2.63987 102.518 3.14974C104.66 4.14032 106.767 5.16681 108.852 6.20656C113.02 8.28864 117.12 10.4397 121.173 12.6288C129.273 17.0072 137.119 21.5099 144.536 25.9523C155.43 32.4645 165.613 40.0087 172.472 48.5837C178.275 56.1221 176.905 63.0785 176.876 66.8375C176.577 70.9188 176.191 73.9325 175.954 76.3601C175.196 83.5608 174.811 90.0764 174.792 96.3667C174.788 97.5647 174.835 98.6881 174.935 99.4711C174.983 99.8606 175.043 100.141 175.082 100.267C175.102 100.334 175.113 100.359 175.139 100.424C175.166 100.493 175.214 100.609 175.377 101.004C175.398 101.052 175.406 101.055 175.358 100.954C175.303 100.849 175.221 100.651 174.859 100.164C174.445 99.7171 173.944 98.7088 171.401 97.6027C170.146 97.0807 168.242 96.8312 166.682 97.1382C165.104 97.4247 164.014 98.0418 163.334 98.5077C162.175 99.3398 161.894 99.8044 161.666 100.075C161.488 100.311 161.431 100.415 161.416 100.434C161.39 100.474 161.488 100.279 161.588 100.032C161.799 99.5208 162.061 98.7829 162.313 98.0049C162.815 96.4532 163.31 94.6944 163.772 92.9679C164.703 89.4782 165.564 85.9308 166.412 82.4254C168.102 75.4011 169.728 68.5247 171.453 61.6368C172.136 58.924 172.862 56.2017 173.82 53.2808C174.311 51.8088 174.837 50.3131 175.627 48.561C176.572 46.8181 176.97 44.77 180.934 41.4691C181.662 40.924 182.456 40.4038 183.373 39.9328C184.511 39.3659 185.686 38.8621 187.568 38.5633C189.465 38.2686 191.846 38.4272 194.047 39.3709C196.197 40.2737 197.761 41.7089 198.704 42.8377C202.176 47.5128 201.978 49.7675 202.559 52.1161C203.289 56.6024 203.305 60.2096 203.316 63.9692C203.298 71.3114 202.685 78.8784 202.55 85.921C202.547 86.305 202.543 87.0385 202.57 87.7632C202.577 87.9465 202.586 88.1182 202.595 88.2628C202.606 88.4316 202.62 88.5671 202.626 88.6201C202.631 88.6776 202.641 88.6498 202.558 88.3156C202.5 88.1008 202.405 87.7296 202.118 87.1009C201.9 86.7124 201.148 84.7147 198.367 83.0695C197.165 82.3599 195.807 82.2651 195.408 82.3148C194.955 82.358 195.136 82.3819 195.531 82.2381C196.361 81.9645 197.96 81.1805 199.635 80.263C203.039 78.4027 207.056 76.0542 210.902 74.5699C214.36 73.102 218.635 72.7594 220.916 73.3134C222.051 73.5491 222.588 73.817 222.461 73.8994C222.319 73.9953 221.532 73.8944 219.986 73.928C219.04 73.796 214.197 74.428 211.517 75.997C207.713 78.1024 204.925 80.0916 212.131 77.4235C212.781 77.2002 213.456 76.9928 214.266 76.7939C212.313 77.1159 213.708 76.0358 216.694 75.2901C219.651 74.3134 224.87 75.7597 225.438 76.2609C232.541 80.2836 232.974 83.9392 234.29 85.8016C235.328 87.8308 235.855 89.0468 236.363 90.3469C236.858 91.6347 237.284 93.0185 237.771 95.0044C238.014 95.9777 238.273 97.1324 238.562 98.2439C238.704 98.7915 238.867 99.3389 238.966 99.5876C239.005 99.695 239.048 99.7393 238.908 99.4588C238.731 99.2172 238.548 98.4637 236.754 97.1392C238.783 98.5249 240.673 100.109 242.623 101.898ZM277.738 111.983C278.293 127.822 277.967 130.534 278.617 129.353C279.219 128.236 280.108 123.759 281.316 127.321C281.373 122.879 281.186 118.752 281.036 114.662C280.925 115.741 280.814 116.811 280.701 117.904C280.701 117.908 280.701 117.913 280.701 117.918C279.716 115.918 278.722 113.941 277.738 111.983ZM222.046 404.087C223.192 404.13 224.307 404.127 225.496 404.104C228.114 404.851 230.735 405.322 233.301 405.449C234.279 405.492 235.267 405.531 236.244 405.563C235.753 405.778 235.28 405.995 234.786 406.207C234.291 406.199 233.782 406.189 233.287 406.178C229.606 406.096 225.81 405.328 222.046 404.087ZM108.693 27.2125C108.54 33.7784 109.994 33.0896 109.042 41.2087C110.267 40.283 111.465 39.206 112.662 38.1648C112.648 34.9669 112.459 33.0199 112.235 30.828C111.876 28.5715 112.163 26.6885 110.355 21.5811C110.539 22.921 110.493 24.1686 110.337 25.1805C110.744 26.5736 111.016 27.9382 111.204 29.1055C110.756 30.1074 110.274 27.6637 109.578 25.8827C108.792 23.9878 108.392 23.1745 108.687 27.1897C108.689 27.1973 108.691 27.2049 108.693 27.2125ZM111.804 69.0569C112.571 68.1919 114.175 66.2621 115.753 63.9795C116.539 62.8484 117.331 61.6254 118.025 60.4636C118.374 59.8794 118.701 59.3088 118.992 58.7723C119.145 58.4923 119.274 58.247 119.405 57.9904C119.464 57.8764 119.527 57.7493 119.583 57.6336C119.611 57.5778 119.636 57.5253 119.658 57.4781C119.666 57.4593 119.678 57.4345 119.678 57.4316C119.672 57.447 119.697 57.386 119.644 57.5101C119.624 57.5656 119.608 57.5724 119.516 57.8805C119.492 57.9703 119.459 58.0778 119.422 58.3357C119.405 58.4692 119.383 58.6393 119.396 58.9428C119.425 59.2457 119.415 59.7103 119.872 60.5168C120.262 61.3444 121.776 62.2525 122.795 62.148C123.82 62.1095 124.267 61.7903 124.56 61.6235C125.108 61.2538 125.193 61.0933 125.311 60.9717C125.501 60.7438 125.533 60.6789 125.577 60.6156C125.614 60.5578 125.633 60.5262 125.648 60.5014C125.676 60.4535 125.686 60.4351 125.693 60.4221C125.198 61.4082 124.721 62.4427 124.636 62.8248C124.188 64.6064 125.365 63.0383 126.624 60.9297C126.601 60.9684 126.604 60.9783 126.456 61.211C126.412 61.2776 126.361 61.3586 126.221 61.537C126.147 61.6287 126.055 61.7446 125.859 61.9398C125.634 62.1307 125.432 62.4387 124.41 62.8895C123.896 63.0906 123.018 63.3635 121.801 63.1063C120.591 62.8853 119.387 61.8598 118.962 61.0643C118.103 59.4243 118.371 58.8759 118.34 58.4818C118.406 57.7689 118.482 57.6612 118.519 57.5021C118.599 57.2455 118.626 57.1943 118.649 57.1326C118.67 57.0788 118.682 57.052 118.691 57.0318C118.703 57.0021 118.701 57.0062 118.705 56.9972C118.714 56.9733 118.709 56.9809 118.702 56.9916C118.692 57.0063 118.669 57.0476 118.648 57.082C118.61 57.1473 118.558 57.2374 118.511 57.3178C118.411 57.4905 118.309 57.6654 118.2 57.8506C117.985 58.2169 117.758 58.5996 117.521 58.9945C117.057 59.7667 116.561 60.5726 116.083 61.3225C115.128 62.8237 114.223 64.1247 113.711 64.7713C112.591 66.0258 113.62 64.9468 117.359 56.9924C117.102 56.9819 116.949 56.7806 116.743 56.6755C114.663 60.4777 112.153 64.3198 109.437 67.6143C110.299 68.0083 110.91 68.6972 111.804 69.0569ZM212.969 89.451C211.65 90.0913 208.906 91.8023 205.517 93.8035C203.803 94.7862 201.942 95.847 199.625 96.6613C197.432 97.4528 193.879 98.0545 190.765 96.3764C188.827 95.2416 188.303 93.7738 188.091 93.4058C187.826 92.845 187.661 92.3047 187.569 92.0023C187.387 91.4084 187.267 90.8203 187.188 90.4916C187.023 89.7842 186.912 89.2292 186.814 89.0323C186.637 88.6159 186.382 88.8287 186.445 90.9709C186.47 91.3174 186.526 91.7647 186.678 92.3756C186.782 92.7774 186.924 93.2698 187.209 93.8987C187.416 94.2765 188.043 95.9852 190.248 97.2801C192.572 98.6367 195.809 98.753 197.919 98.2038C200.114 97.6854 201.778 96.8221 203.256 95.9951C206.174 94.3111 208.396 92.6497 209.856 91.8594C212.06 90.6589 210.088 92.673 214.116 90.1285C213.765 89.9026 213.462 89.6063 212.958 89.4593C212.962 89.4565 212.965 89.4538 212.969 89.451ZM219.34 82.2509C217.731 82.229 216.176 82.7306 214.712 83.4136C211.541 84.9109 208.591 86.8419 205.587 88.6785C208.573 87.8176 213.088 84.9697 215.274 84.7167C215.804 84.6386 216.148 84.7156 216.302 84.9345C216.054 85.0485 215.797 85.175 215.531 85.3147C214.639 85.7833 213.759 86.2955 212.875 86.8397C211.826 87.0571 210.778 87.3029 209.726 87.5644C206.209 90.3194 209.053 89.4669 201.224 93.1653C206.361 92.8749 208.105 92.381 216.229 86.9348C216.984 86.4643 217.716 86.0537 218.494 85.773C217.704 86.4443 218.159 87.547 218.734 88.1622C218.999 88.4769 219.161 88.7536 219.022 88.7182C218.97 88.7038 218.889 88.5806 219.007 88.4853C219.118 88.3901 219.448 88.3687 219.974 88.5824C220.381 88.7843 220.192 88.0765 219.959 87.6527C219.733 87.2258 219.559 87.0999 219.546 87.0508C219.581 86.58 219.807 86.2329 220.2 86.002C220.569 85.7571 221.095 85.6746 221.074 85.1369C221.061 84.8933 220.532 84.4626 219.823 84.2337C219.114 83.9844 218.242 83.9555 217.965 83.7234C217.84 83.6077 218.476 83.2353 219.074 82.9769C219.626 82.7167 220.178 82.5012 219.34 82.2509ZM221.864 90.4623C220.941 89.5408 221.08 93.6835 222.161 98.2984C224.023 105.66 223.161 93.3936 221.864 90.4623ZM222.022 404.081C222.03 404.083 222.038 404.085 222.046 404.087C222.042 404.087 222.037 404.087 222.033 404.087C222.029 404.085 222.026 404.083 222.022 404.081ZM108.911 71.7485C109.106 72.4755 109.337 73.3297 109.562 73.7803C109.658 73.9812 109.778 74.0993 109.704 73.9176C109.661 73.8244 109.553 73.6551 109.353 73.4619C109.13 73.2463 108.783 73.0121 108.402 72.8642C107.641 72.5587 106.959 72.6442 106.78 72.6518C106.534 72.6749 106.509 72.6546 106.499 72.5957C106.491 72.4795 106.542 72.2794 106.397 72.1476C106.609 72.0704 106.921 71.8932 107.32 71.5962C107.656 71.3565 108.051 71.0342 108.491 70.6322C108.849 70.3081 109.204 69.9728 109.556 69.6304C109.372 69.4937 109.178 69.3681 108.996 69.2324C108.685 69.5741 108.371 69.9083 108.056 70.2321C107.665 70.6331 107.318 70.9597 107.024 71.211C106.69 71.5004 106.393 71.7165 106.227 71.8095C106.062 71.923 105.965 71.8481 106.612 71.6625C107.131 71.4095 109.272 71.66 110.137 72.537C110.539 72.871 110.744 73.1664 110.839 73.3074C110.924 73.4358 110.942 73.4757 110.935 73.4342C110.924 73.3704 110.842 73.0213 110.797 72.6729C110.68 71.8704 110.624 70.8552 110.609 69.7977C110.027 70.421 109.447 70.999 108.911 71.7485ZM111.003 85.3582C107.081 91.1177 111.174 86.8313 110.742 88.3818C110.317 89.9269 106.516 94.8644 107.523 94.6476C109.828 91.2654 112.233 87.7198 114.545 84.257C113.297 84.735 112.204 84.948 110.995 85.3699C110.998 85.366 111 85.3621 111.003 85.3582ZM310.686 230.103C309.206 225.723 310.651 227.193 306.307 218.953C306.31 218.959 306.312 218.966 306.315 218.972C307.301 222.016 308.428 225.374 309.605 228.795C310.185 230.493 310.79 232.229 311.316 233.857C311.572 234.651 311.819 235.468 311.939 235.999C312.001 236.253 312.016 236.455 312 236.295C311.994 236.219 311.985 236.017 312.027 235.716C312.065 235.42 312.183 235.031 312.269 234.84C312.666 233.849 313.519 232.9 314.259 232.431C315.009 231.94 315.592 231.784 315.992 231.696C316.793 231.547 317.05 231.626 317.226 231.645C317.539 231.711 317.455 231.723 317.513 231.764C316.738 231.388 316.137 230.987 315.552 230.457C315.932 231.236 316.479 231.817 317.227 232.289C317.21 232.317 317.34 232.354 317.129 232.32C317.005 232.316 316.815 232.253 316.143 232.379C315.806 232.454 315.31 232.584 314.658 233.009C314.016 233.413 313.265 234.243 312.916 235.112C312.802 235.339 312.682 235.925 312.689 236.117C312.685 236.335 312.695 236.296 312.664 236.162C312.606 235.881 312.435 235.283 312.231 234.657C311.811 233.368 311.264 231.842 310.686 230.103ZM101.733 10.0141C99.9368 8.7671 105.683 16.6445 107.225 18.5742C110.063 21.3592 104.62 11.5328 101.733 10.0141ZM325.312 310.137C331.12 308.556 323.301 307.378 313.331 305.599C312.872 305.514 312.443 305.39 312.311 305.332C312.249 305.311 312.292 305.304 312.492 305.497C312.688 305.667 313.003 306.216 313.032 306.628C313.073 307.041 312.989 307.171 312.993 307.137C312.989 307.106 313.038 306.948 313.121 306.756C313.291 306.364 313.582 305.835 313.897 305.275C313.923 305.228 313.95 305.18 313.977 305.132C314.078 304.953 314.003 305.014 313.817 305.223C313.595 305.474 313.205 305.944 312.872 306.381C312.708 306.595 312.562 306.806 312.476 306.919C312.384 307.034 312.383 307.022 312.322 306.784C312.268 306.544 312.043 306.226 311.918 306.173C311.789 306.104 311.765 306.161 311.756 306.206C311.768 306.319 311.657 306.358 311.591 306.405C311.586 306.416 311.606 306.409 311.695 306.57C311.797 306.738 311.753 307.01 311.775 306.833C311.821 306.491 312.424 305.429 312.899 304.624C313.217 304.074 313.474 303.604 313.587 303.316C314.053 302.154 312.802 302.866 313.744 301.056C314.763 299.095 317.32 296.136 319.592 293.77C321.026 292.256 322.224 290.899 322.75 289.964C322.917 289.669 319.258 292.577 318.746 292.999C318.726 293.016 318.711 293.029 318.701 293.037C314.787 296.544 312.828 301.356 312.408 301.998C311.957 302.676 311.59 303.185 311.279 303.568C310.039 305.127 309.675 304.646 309.13 305.432C308.893 305.826 308.619 306.377 308.672 307.177C308.709 308.007 309.374 308.78 309.929 309.087C311.073 309.74 312.03 309.774 312.578 309.858C312.81 309.884 312.962 309.901 313.006 309.914C315.52 310.628 314.598 310.643 312.487 310.37C311.89 310.283 311.196 310.166 310.381 309.84C309.975 309.67 309.518 309.447 309.059 309.015C308.596 308.598 308.194 307.841 308.146 307.152C308.221 304.514 309.368 303.667 309.852 302.637C310.261 301.958 310.575 301.426 310.707 301.143C313.036 296.597 309.562 299.391 316.3 290.77C316.617 290.389 316.952 289.989 317.304 289.569C318.058 288.694 327.078 278.666 315.588 290.12C315.362 290.344 315.131 290.574 314.894 290.815C315.103 290.554 315.308 290.3 315.511 290.051C326.497 276.179 321.841 281.135 314.63 289.247C311.67 292.504 308.628 296.629 306.342 300.347C305.918 301.035 305.445 301.764 304.913 302.87C304.514 303.947 303.307 305.709 304.344 309.23C305.745 312.712 308.046 313.341 309.062 313.809C310.218 314.231 311.041 314.367 311.76 314.483C313.469 314.729 314.755 314.846 315.432 314.886C318.231 315.029 314.144 313.698 315.862 313.546C319.765 313.257 326.11 313.3 325.572 312.091C324.549 309.875 317.991 310.682 312.615 309.651C311.903 309.519 311.211 309.334 310.569 308.983C311.393 308.753 311.741 308.319 312.828 307.999C312.608 308.052 312.63 308.147 312.859 308.27C314.352 309.269 324.854 310.382 325.312 310.142C325.312 310.14 325.312 310.139 325.312 310.137ZM336.432 245.214C336.827 237.397 335.313 238.038 335.613 230.912C333.621 224.86 334.867 237.039 334.789 238.5C334.791 245.077 333.244 244.976 333.912 251.68C334.757 249.351 335.611 247.434 336.432 245.214ZM308.17 301.894C308.214 301.798 308.256 301.707 308.295 301.621C309.183 299.667 308.655 300.13 307.767 301.277C307.222 302.037 306.424 302.948 305.731 304.839C305.398 305.759 305.193 307.302 305.616 308.618C306.021 309.923 306.642 310.555 306.722 310.7C307.558 311.813 307.73 311.952 307.377 311.868C307.09 311.73 305.857 311.211 304.933 308.979C304.057 306.644 304.758 304.49 305.215 303.38C305.723 302.174 306.244 301.348 306.713 300.589C309.847 295.711 314.206 290.834 308.305 301.627C308.26 301.715 308.216 301.804 308.17 301.894ZM191.229 80.1815C191.402 77.4953 190.566 79.1806 190.452 76.8032C190.357 74.4393 191.303 66.4706 190.796 66.6707C190.36 66.8692 188.57 81.3694 188.826 66.7759C188.549 67.2583 188.354 67.0888 188.108 67.3188C188 71.2909 187.771 75.3551 187.58 79.4596C188.445 77.2444 189.363 74.9996 190.194 72.8964C190.702 75.1992 189.858 76.4522 189.853 76.5688C189.854 76.5688 189.855 76.5689 189.856 76.5689C189.703 80.8437 190.881 86.1838 191.229 80.1815ZM287.242 168.648C289.304 168.688 285.002 163.619 283.842 161.285C282.678 158.959 282.056 155.376 281.774 156.921C282.751 161.059 287.011 168.651 287.245 168.647C287.244 168.647 287.243 168.648 287.242 168.648ZM326.101 212.606C319.898 213.331 320.774 213.453 313.637 214.629C314.035 214.985 314.422 215.361 314.8 215.726C320.163 214.537 319.834 213.215 326.75 213.593C327.861 213.731 325.505 214.614 330.453 214.584C329.091 213.889 327.597 213.199 326.101 212.606ZM311.593 225.38C310.985 223.309 310.127 221.204 309.306 219.832C308.799 219.204 308.423 218.818 308.104 218.766C307.803 218.722 307.487 219.08 307.692 220.228C307.969 221.536 308.51 223.608 309.658 226.293C310.486 228.143 313.168 230.038 311.593 225.38ZM232.168 107.858C231.463 107.281 230.842 106.819 230.338 106.472C228.842 105.253 228.779 104.392 228.509 103.953C228.3 103.48 228.245 103.374 228.245 103.482C228.249 103.587 228.334 103.965 228.535 104.507C228.786 105.074 228.985 105.856 230.123 106.786C231.948 108.256 234.308 110.767 235.153 111.919C232.887 109.829 231.04 108.361 229.664 107.454C227.836 106.022 227.705 104.975 227.315 104.209C227.014 103.459 226.846 102.9 226.72 102.49C226.479 101.683 226.417 101.451 226.445 101.635C226.477 101.82 226.599 102.425 226.873 103.363C227.288 104.311 227.15 105.632 229.513 107.674C233.171 110.363 238.026 116.041 238.313 117.542C241.189 119.745 246.763 123.908 241.817 118.157C239.747 115.777 240.132 117.01 240.002 116.869C236.063 112.673 237.314 112.349 232.168 107.858ZM336.87 258.772C336.835 258.291 336.205 259.066 336.052 257.518C335.903 255.996 336.277 252.506 335.873 252.172C335.476 251.835 335.308 258.814 335.614 260.937C335.931 263.089 337.177 263.139 336.87 258.772ZM332.329 211.453C332.069 211.317 331.889 211.321 331.762 211.357C330.389 211.454 330.704 211.915 331.632 212.464C331.548 212.658 331.354 212.749 331.365 213C331.368 213.252 331.455 213.664 331.529 214.121C331.689 215.044 331.822 216.094 331.932 216.419C334.784 227.245 332.813 210.344 332.329 211.453ZM255.862 126.088C244.432 115.839 250.318 125.499 256.718 133.2C257.865 133.897 259.046 134.579 260.226 135.193C255.307 132.907 247.71 127.687 259.062 136.92C260.733 138.1 262.872 139.466 266.032 140.236C262.353 138.992 261.009 137.613 260.32 137.079C259.673 136.493 259.858 136.517 260.377 136.8C261.39 137.415 264.063 138.691 264.151 138.63C265.086 137.872 263.005 136.556 260.98 134.48C257.545 131.051 253.228 126.174 255.871 126.098C255.868 126.095 255.865 126.092 255.862 126.088ZM329.707 275.648C325.901 280.906 314.442 294.096 320.827 288.895C323.956 284.526 327.02 280.132 329.707 275.648ZM165.147 50.1404C161.851 45.396 157.804 41.8611 152.185 37.7949C156.573 42.3751 153.211 39.9673 151.389 38.9457C148.614 37.3782 154.793 41.8974 154.731 42.0127C153.967 42.7462 150.288 39.6413 158.634 46.7825C156.403 45.2023 154.113 43.7661 151.775 42.4086C158.273 47.5547 159.197 49.5175 162.039 53.8106C160.669 50.2864 162.109 52.0387 164.61 54.9406C165.545 56.0075 166.331 57.4355 166.918 59.0419C167.47 61.1486 168.89 56.9714 166.832 53.1444C166.24 51.9165 165.594 50.7907 165.132 50.1244C165.137 50.1297 165.142 50.1351 165.147 50.1404ZM245.16 114.274C243.806 113.345 242.451 112.604 241.082 111.772C239.866 110.591 238.629 109.417 237.352 108.278C237.401 107.91 237.484 107.556 237.497 107.172C235.85 105.566 236.239 106.496 235.695 106.07C235.696 106.069 235.697 106.067 235.698 106.066C234.505 105.154 233.378 104.355 232.271 103.661C232.226 103.725 231.794 103.161 231.571 102.603C231.323 102.037 231.116 101.38 230.947 100.756C230.606 99.4831 230.374 98.2232 230.171 96.9627C229.75 94.432 229.563 91.9056 228.855 88.544C227.977 88.8471 227.099 89.1502 226.221 89.4534C226.842 90.9837 227.332 92.5947 227.774 94.1979C228.452 94.9553 229.119 95.7302 229.784 96.5012C229.899 98.4394 229.972 100.354 230.252 102.184C230.643 103.072 231.309 104.197 231.803 104.342C232.256 104.583 232.71 104.845 233.085 105.06C235.203 108.345 233.523 107.178 231.039 105.453C228.338 102.62 228.526 97.3675 227.745 97.4763C227.578 97.4811 227.641 98.4906 227.899 100.067C228.329 101.647 228.067 103.822 230.518 106.211C234.283 108.878 238.06 112.698 239.16 113.422C239.461 113.639 238.19 109.551 241.957 114.87C242.54 115.713 239.743 118.812 246.942 121.55C247.962 121.94 247.525 117.654 245.16 114.274ZM199.388 86.6977C201.746 86.2806 201.502 86.7697 199.968 87.6967C198.583 88.6443 195.191 89.5775 194.973 89.0101C195.744 89.4711 195.885 89.9418 195.918 89.9736C195.965 90.0714 195.955 90.0592 195.944 89.9967C195.925 89.9089 195.881 89.617 195.863 89.4029C195.815 88.9087 195.795 88.3606 195.782 87.8356C195.759 86.833 195.761 85.9572 195.72 85.5306C195.668 84.607 195.294 85.4437 194.926 88.9591C193.588 84.8246 193.489 85.4117 192.716 89.9902C192.623 90.4569 192.079 87.2646 192.077 87.543C191.994 88.2819 191.947 88.9971 191.972 89.7831C191.977 90.1052 192.025 90.611 192.091 90.9607C192.134 91.1838 192.201 91.4344 192.291 91.6525C192.361 91.8364 192.582 92.2686 192.979 92.5002C194.508 93.4583 196.13 93.343 197.156 93.3023C198.208 93.2418 198.857 93.2157 198.987 93.5641C200.199 93.1077 201.229 92.5866 202.275 92.0099C197.369 93.1587 204.15 89.2604 206.112 86.9511C207.069 85.946 204.359 87.3645 205.156 86.5084C205.442 86.1953 209.304 84.2733 209.305 83.8804C209.262 82.9594 206.206 83.4194 202.082 85.0828C202.082 85.0821 202.082 85.0814 202.081 85.0807C201.153 85.6605 200.274 86.2075 199.388 86.6977ZM300.629 185.699C299.9 187.816 302.059 194.207 296.487 182.511C296.46 183.215 296.441 183.931 296.414 184.635C297.266 186.65 298.088 188.587 298.955 190.634C305.514 195.126 305.599 208.208 305.491 199.849C305.479 198.941 303.158 194.299 305.95 198.674C305.948 198.667 305.946 198.66 305.944 198.653C302.964 192.165 302.139 191.541 300.629 185.699ZM282.276 141.692C281.458 140.297 280.849 139.33 280.44 138.823C279.745 137.928 279.54 138.149 279.668 139.087C280.123 143.337 288.252 161.917 287.083 157.155C286.895 156.607 280.365 141.004 282.276 141.692ZM304.486 212.032C303.587 212.934 302.87 214.062 302.493 215.219C301.471 218.66 302.531 220.589 303.026 221.373C303.75 222.243 304.314 222.055 304.526 221.612C304.588 221.484 304.601 221.269 304.577 220.993C304.423 219.909 304.112 217.639 304.687 216.013C304.995 215.025 305.476 214.386 305.65 214.209C306.634 213.335 306.217 213.971 305.952 214.526C305.82 214.81 305.735 215.084 305.805 215.132C305.881 215.184 306.082 214.982 306.659 214.499C306.958 214.06 309.988 212.069 313.346 211.409C316.663 210.62 320.016 210.459 320.3 210.385C323.527 209.679 318.6 208.755 319.509 208.515C322.602 207.6 326.889 208.311 327.819 207.624C329.849 206.043 321.735 207.678 320.448 207.982C316.4 208.526 316.622 207.62 313.45 208.159C310.268 208.864 308.265 209.773 305.48 211.97C304.571 212.791 304.893 211.642 304.486 212.032ZM313.216 236.535C311.679 235.762 311.194 235.55 311.309 236.06C311.434 236.542 312.268 237.661 313.73 238.71C314.346 239.132 315.047 239.498 315.953 239.724C316.413 239.83 316.919 239.918 317.611 239.831C318.242 239.768 319.472 239.322 320.008 238.101C320.733 236.614 320.485 235.123 320.345 234.207C320.173 233.218 319.952 232.401 319.739 231.662C319.312 230.205 318.909 229.133 318.691 228.722C317.545 226.611 317.319 227.336 317.57 229.251C317.64 231.178 319.143 234.314 318.192 237.336C317.698 238.153 316.792 237.949 316.197 237.848C315.56 237.708 315.005 237.471 314.537 237.228C314.003 236.948 313.565 236.704 313.216 236.535ZM223.611 83.9916C224.707 84.8713 225.074 85.2734 225.137 85.051C225.177 84.849 224.881 84.0606 224.009 83.0806C223.168 82.1074 221.497 81.0244 219.522 80.8616C217.578 80.6677 215.646 81.1894 214.043 81.8612C212.248 82.6152 210.747 83.4495 209.833 84.0386C210.218 84.011 212.06 83.3001 214.36 82.5971C216.123 82.0477 218.279 81.687 220.065 82.0969C221.861 82.4737 223.028 83.544 223.611 83.9916ZM258.873 129.021C254.763 125.358 257.523 130.566 261.293 134.083C261.864 134.609 262.468 135.072 263.07 135.443C266.091 135.712 264.16 134.982 261.944 133.255C261.681 133.048 261.408 132.825 261.129 132.587C258.556 130.305 262.652 132.135 258.873 129.021ZM341.768 262.504C341.768 262.477 341.768 262.445 341.768 262.407C341.809 260.416 340.1 238.751 340.003 251.525C340.003 252.109 340.183 257.649 340.324 262.423C340.389 266.193 338.787 269.104 338.701 269.605C337.846 272.018 341.808 267.139 341.768 262.504ZM268.954 123.15C270.214 126.465 270.086 129.73 271.531 126.689C271.531 126.685 271.531 126.68 271.531 126.676C271.972 135.234 267.503 135.025 268.802 133.778C269.011 133.623 269.317 133.468 269.62 133.387C269.614 133.435 269.435 133.528 269.289 133.611C269.137 133.696 268.999 133.788 268.908 133.897C268.716 134.112 268.705 134.399 268.748 134.705C268.799 135.283 269.206 136.081 267.462 136.042C268.821 136.283 269.819 136.171 270.425 135.969C270.415 135.981 270.593 135.869 270.761 135.616C270.927 135.379 271.083 135.076 271.212 134.818C271.48 134.27 271.699 133.789 271.914 133.275C272.33 132.236 272.763 130.998 272.878 127.996C272.982 126.377 272.007 119.916 271.45 118.985C270.91 118.058 269.516 121.425 268.954 123.15ZM324.771 290.611C330.212 285.172 333.178 278.523 326.114 286.412C322.623 290.191 321.448 293.899 324.771 290.611ZM123.424 63.77C122.389 64.5656 121.333 65.3546 120.234 66.1636C120.879 65.0404 121.499 63.899 122.087 62.756C122.384 62.1777 122.673 61.5985 122.955 61.0158C123.096 60.7221 123.235 60.4295 123.372 60.1339C123.439 59.9887 123.511 59.8323 123.575 59.6892C123.615 59.6005 123.635 59.5517 123.678 59.455C123.698 59.4098 123.705 59.3925 123.732 59.3308C123.743 59.3043 123.75 59.289 123.763 59.2555C123.771 59.2367 123.778 59.221 123.794 59.1795C123.802 59.1552 123.812 59.1357 123.835 59.0448C123.843 58.9895 123.872 58.9467 123.863 58.7052C123.844 58.5853 123.856 58.3524 123.553 58.0126C123.228 57.6434 122.619 57.6353 122.416 57.7279C121.979 57.9047 121.995 57.9961 121.927 58.0463C121.881 58.0981 121.864 58.1241 121.849 58.1452C121.82 58.1856 121.811 58.2028 121.801 58.2185C121.784 58.2478 121.776 58.2632 121.767 58.2802C121.643 58.5322 121.533 58.772 121.423 59.0079C121.526 58.7688 121.63 58.5258 121.748 58.2699C121.767 58.2369 121.756 58.2423 121.838 58.1222C121.879 58.0797 121.855 58.0507 122.115 57.851C122.193 57.8013 122.299 57.7251 122.535 57.6742C122.757 57.6182 123.198 57.6611 123.489 57.9221C123.774 58.1734 123.833 58.4219 123.865 58.5581C123.893 58.7017 123.888 58.7825 123.886 58.8443C123.867 59.0674 123.845 59.0832 123.835 59.1283C123.824 59.1639 123.817 59.1817 123.811 59.197C123.769 59.3054 123.778 59.2803 123.768 59.3076C123.754 59.3419 123.734 59.3908 123.725 59.4128C123.704 59.4686 123.671 59.5445 123.651 59.5947C123.599 59.7199 123.556 59.8239 123.501 59.9507C123.407 60.1748 123.305 60.4087 123.202 60.6407C122.997 61.103 122.793 61.5499 122.58 62.0046C122.155 62.912 121.713 63.8123 121.255 64.7058C124.11 60.195 126.039 58.292 123.431 63.7576C123.429 63.7617 123.426 63.7659 123.424 63.77ZM30.3903 169.916C29.9644 172.263 31.5448 176.875 31.6497 176.281C32.443 171.849 30.9808 166.624 30.3903 169.916ZM211.816 79.4009C204.173 83.1174 208.914 82.6724 213.693 81.0475C214.34 80.8359 214.919 80.6636 215.572 80.4826C212.023 81.2848 216.769 77.8599 212.817 79.0139C212.534 79.1062 212.2 79.2336 211.816 79.4009ZM56.4585 155.937C57.0073 155.402 57.5734 154.808 58.1797 154.144C56.5862 156.435 56.2117 156.632 56.4585 155.937ZM343.869 258.875C344.056 257.549 343.98 247.569 343.674 246.227C343.088 243.454 342.037 251.266 342.514 255.803C342.571 256.315 343.703 260.201 343.869 258.854C343.869 258.861 343.869 258.868 343.869 258.875ZM115.616 63.6473C115.643 63.6465 115.659 63.6646 115.662 63.6981C115.649 63.6787 115.628 63.6695 115.616 63.6473ZM29.9836 306.125C29.9898 306.062 30.0078 306.019 30.0417 306.006C30.0216 306.041 30.0102 306.094 29.9836 306.125ZM311.141 205.407C308.904 204.842 305.103 206.025 302.818 208.193C301.706 209.212 301.127 210.255 301.432 210.257C301.709 210.323 302.907 209.256 305.067 208.186C305.605 207.704 310.248 205.539 311.141 205.407Z" fill="#E4E4E4"/>
<circle cx="103.791" cy="321.446" r="17.5" fill="#E4E4E4"/>
<circle cx="243.791" cy="321.446" r="17.5" fill="#E4E4E4"/>
</svg>
