<svg width="349" height="445" viewBox="0 0 349 445" fill="none" xmlns="http://www.w3.org/2000/svg">
<path d="M113.642 139.212C113.32 139.447 113.041 141.071 112.703 143.753C115.35 156.143 115.684 160.188 115.689 160.021C115.884 152.186 116.178 137.357 113.642 139.212Z" fill="#E4E4E4"/>
<path d="M195.05 147.792C192.128 157.488 189.147 167.272 186.237 177.114C185.729 178.841 185.374 180.157 185.07 181.568C184.948 182.125 184.822 182.874 184.8 183.138C184.784 183.263 184.79 183.388 184.788 183.143C184.786 183.085 184.783 183.008 184.775 182.909C184.766 182.809 184.759 182.702 184.715 182.431C184.627 181.935 184.468 181.153 183.893 180.052C183.564 179.17 181.271 176.383 178.648 175.699C176.043 174.94 174.647 175.333 173.604 175.579C172.522 175.908 172.378 176.047 172.088 176.189C171.846 176.322 171.73 176.406 171.682 176.44C171.549 176.547 172.009 176.164 172.385 175.77C173.258 174.881 174.263 173.706 175.281 172.451C179.354 167.386 183.45 161.529 187.51 155.702C191.569 149.859 195.608 143.913 199.805 137.899C201.907 134.894 204.009 131.917 206.293 128.846C207.432 127.319 208.607 125.778 209.908 124.192C211.48 122.44 211.926 121.302 215.826 118.369C220.434 115.765 224.547 113.554 232.706 116.886C237.292 119.561 237.897 122.14 238.687 123.635C239.352 125.229 239.644 126.404 239.904 127.515C240.385 129.67 240.605 131.471 240.795 133.2C241.156 136.637 241.32 139.78 241.484 142.892C241.795 149.092 242.04 155.057 242.49 160.919C242.512 161.293 242.589 161.5 242.505 161.23C242.417 161.004 242.092 160.005 240.753 158.921C239.414 157.817 237.635 157.532 237.045 157.576C236.383 157.6 236.42 157.673 236.646 157.584C238.726 156.87 240.84 155.834 243.214 154.472C245.757 153.126 247.699 151.375 253.126 149.364C258.617 147.477 264.504 148.847 267.982 150.45C271.633 152.08 274.194 153.893 276.565 155.547C281.226 158.885 285.02 161.832 288.862 164.044C295.69 168.015 301.479 172.75 306.766 177.657C314.196 184.768 313.017 184.841 314.94 186.925C320.012 192.702 323.552 195.68 327.037 199.882C331.485 205.227 336.087 211.187 339.656 214.635C348.651 222.934 348.815 234.577 347.663 242.563C346.306 251.077 343.944 257.968 339.801 265.84C338.961 267.287 338.084 268.515 336.835 269.853C336.185 270.526 335.506 271.216 334.231 272.09C333.559 272.523 332.784 273.048 331.177 273.555C330.354 273.795 329.259 274.053 327.688 273.964C326.149 273.898 324.02 273.234 322.486 272.014C317.986 268.328 317.895 264.029 317.771 261.949C317.735 259.636 318.024 258.01 318.296 256.501C319.3 251.681 320.23 248.735 320.333 247.975C320.346 247.93 320.353 247.942 320.365 248.023C320.377 248.085 320.386 248.288 320.459 248.682C320.477 248.781 320.5 248.891 320.53 249.013C320.561 249.14 320.589 249.253 320.664 249.5C320.804 249.948 321.024 250.526 321.446 251.215C321.769 251.766 322.725 253.046 324.119 253.864C325.526 254.731 327.158 255.047 328.325 255.024C330.889 254.888 331.402 254.308 331.966 254.054C332.502 253.729 332.594 253.616 332.729 253.498C332.959 253.275 332.908 253.269 332.868 253.278C332.61 253.394 332.054 253.925 331.692 254.226C330.893 254.927 330.426 255.166 330.024 255.3C329.253 255.549 328.814 255.209 326.731 258.288C317.425 273.008 326.943 261.341 324.248 267.636C320.753 274.229 317.361 281.123 314.573 287.833C311.724 294.716 310.57 302.839 311.332 310.177C311.271 309.725 311.012 309.34 311.074 309.471C311.123 309.577 311.483 310.013 312.047 310.562C313.18 311.688 315.05 313.255 316.85 315.47C314.952 313.339 313.022 311.891 311.787 310.844C311.172 310.333 310.747 309.925 310.607 309.801C310.457 309.655 310.598 309.955 310.581 310.273C310.417 309.407 310.284 308.486 310.182 307.561C310.226 308.456 310.297 309.4 310.396 310.297C310.352 310.002 310.162 309.795 310.305 310.047C310.433 310.274 310.848 310.766 311.352 311.284C312.377 312.331 313.62 313.555 314.189 314.277C314.777 315.015 314.755 315.15 313.854 314.422C313.064 313.755 310.83 312.119 309.539 310.846C310.437 312.384 313.633 314.763 316.078 318.675C316.27 318.738 316.639 319.079 317.104 319.694C320.556 322.974 323.604 337.008 323.77 338.366C324.638 339.994 323.179 329.77 322.988 329.818C323.556 330.019 325.697 341.052 324.033 351.416C322.683 361.841 319.108 371.567 318.667 372.86C316.125 379.711 317.051 373.288 315.046 379.1C314.729 379.987 314.464 380.768 314.265 381.409C313.546 383.558 313.132 384.686 313.017 385.369C312.96 385.692 312.95 385.943 313.062 385.867C313.117 385.8 313.226 385.723 313.384 385.012C313.445 384.625 313.585 384.062 313.356 382.846C313.198 381.658 311.969 379.698 310.713 378.985C309.176 378.052 308.453 378.12 308.06 378.053C307.668 378.026 307.547 378.049 307.506 378.058C307.442 378.083 307.719 378.085 308.155 378.081C309.086 378.167 310.556 377.709 314.051 379.051C315.554 379.687 317.3 381.092 318.194 382.953C319.113 384.806 319.166 386.68 318.916 388.174C319.113 391.578 318.487 393.136 317.986 394.617C317.039 397.046 315.872 398.676 313.546 402.521C313.063 403.316 313.969 403.015 313.774 403.375C308.922 412.526 311.92 405.117 311.847 405.125C311.121 405.226 308.868 408.573 307.856 411.094C307.681 411.542 307.599 411.933 307.6 412.027C307.597 412.073 307.613 412.031 307.592 411.877C307.572 411.727 307.495 411.459 307.349 411.216C307.037 410.697 306.703 410.552 306.713 410.553C306.699 410.55 306.859 410.616 306.987 410.661C307.159 410.726 307.4 410.797 307.689 410.871C317.737 413.337 323.015 420.77 328.545 423.812C328.908 424.041 329.489 424.268 330.377 424.617C330.832 424.814 331.362 424.983 332.207 425.577C332.619 425.88 333.171 426.362 333.583 427.153C334.004 427.94 334.107 428.902 334.021 429.561C333.256 434.223 329.865 436.046 327.495 437.43C324.952 438.79 322.42 439.677 319.989 440.549C306.704 443.361 294.922 442.001 280.405 442.098C277.709 442.064 272.872 442.086 267.554 442.094C267.536 442.094 267.481 442.092 267.463 442.091C259.25 441.741 250.027 441.297 246.034 440.932C239.546 440.339 243.039 439.789 239.691 439.2C234.078 440.69 228.866 440.537 216.691 438.453C212.055 439.499 212.685 438.397 203.975 438.178C201.701 438.135 198.915 438.215 195.977 438.439L195.99 438.439C189.35 438.716 182.826 440.751 177.408 441.805C185.915 439.207 184.649 438.406 194.7 437.493C194.955 437.479 195.389 437.463 195.979 437.448C203.105 437.124 233.72 439.523 231.342 437.987C229.99 437.175 218.066 436.998 217.608 436.833C214.973 435.871 221.684 435.39 227.542 436.135C226.082 436.19 224.296 436.223 222.702 436.268C235.879 438.16 226.998 433.818 236.847 437.744C238.056 438.224 237.529 438.606 239.573 439.165C240.009 439.019 237.504 438.418 239.693 438.485C241.867 438.55 246.038 439.642 246.687 438.986C247.694 438.04 238.551 437.851 237.854 437.742C237.846 437.747 237.839 437.753 237.831 437.758C231.796 436.82 244.501 437.601 245.082 437.535C249.033 437.153 246.421 436.507 252.313 436.347C255.676 436.258 264.221 436.924 267.376 436.997C267.511 437 267.633 437.002 267.741 437.003L267.604 436.998C268.902 436.944 268.201 436.777 267.608 436.622L267.761 436.627C267.264 436.474 266.846 436.334 267.777 436.34L267.61 436.335C267.613 436.334 267.616 436.334 267.619 436.334C269.748 436.253 272.351 436.639 274.836 436.538C275.892 436.492 275.851 435.959 276.362 435.943C281.861 435.768 278.249 436.862 283.236 436.808C286.456 436.785 297.263 435.661 289.819 435.41C293.387 435.282 296.879 435.161 300.4 434.982C298.171 434.884 295.863 434.816 293.678 434.654C300.345 434.821 303.332 433.807 307.372 433.512C310.869 433.237 314.987 433.781 316.976 432.842C317.345 432.673 317.715 432.491 318.072 432.298C321.358 430.451 319.973 430.857 316.674 432.07C314.345 432.931 303.995 433.506 302.494 433.416C301.337 433.38 305.741 432.356 306.392 432.283C309.349 432.024 312.883 432.326 314.736 431.95C315.562 431.794 316.316 431.561 316.439 431.468C319.02 430.368 320.986 429.366 322.344 428.373C323.006 427.894 323.49 427.4 323.562 427.201C323.6 427.108 323.521 427.107 323.365 427.31C323.212 427.504 323.001 427.947 322.925 428.445C322.643 429.739 323.433 432.617 324.615 433.752C325.717 434.946 326.275 435.09 326.454 435.216C326.794 435.376 326.183 435.163 325.381 434.891C324.808 434.688 324.087 434.414 323.252 433.991C314.343 429.056 309.99 424.002 305.094 423.454C304.28 423.285 303.169 423.098 301.522 422.405C299.958 421.763 297.322 420.112 295.878 417.235C293.326 411.173 295.216 408.519 295.71 406.484C299.184 398.315 303.035 393.477 304.826 389.053C305.179 388.23 305.277 387.43 305.21 387.813C305.209 388.014 305.131 388.678 305.708 389.918C306.238 391.16 307.835 392.584 309.109 392.975C310.498 393.431 310.809 393.228 310.525 393.296C310.373 393.314 310.105 393.357 309.505 393.437C309.19 393.475 308.818 393.531 308.069 393.56C307.694 393.57 307.206 393.584 306.41 393.494C305.618 393.359 304.409 393.323 302.272 392.016C299.648 390.627 297.828 386.245 297.992 384.535C297.944 382.631 298.243 381.862 298.398 381.236C298.748 380.091 298.973 379.68 299.147 379.283C299.491 378.551 299.685 378.185 299.86 377.823C300.199 377.131 300.416 376.631 300.598 376.136C302.66 370.639 304.341 365.342 305.552 360.365C307.665 351.577 308.822 346.457 308.82 342.636C308.383 333.893 307.241 332.995 304.487 327.194C304.441 327.111 304.393 327.027 304.345 326.943C304.065 326.448 303.39 325.611 301.618 323.99C300.743 323.157 299.588 322.159 298.16 320.437C296.778 318.782 294.955 315.852 294.559 312.339C293.316 300.908 295.74 289.67 299.085 281.698C299.36 281.035 299.65 280.348 299.915 279.732C303.15 272.221 305.695 265.475 306.617 263.577C308.616 259.505 310.752 255.362 313.193 251.096C314.434 248.948 315.676 246.85 317.321 244.48C318.194 243.285 318.87 242.179 320.833 240.278C321.551 239.671 321.879 239.207 323.885 238.17C324.124 238.056 324.384 237.943 324.669 237.834C324.964 237.723 325.218 237.629 325.744 237.488C326.696 237.239 327.911 237.064 329.325 237.209C332.183 237.249 335.894 240.162 336.604 241.691C338.485 245.015 338.114 245.913 338.306 247.04C338.361 247.94 338.338 248.508 338.3 249.164C337.833 254.033 336.917 256.37 336.464 258.829C336.224 259.964 336.085 261.005 336.088 261.348C336.076 261.5 336.139 261.458 335.986 260.812C335.86 260.238 335.214 258.61 333.68 257.452C332.239 256.303 330.211 255.681 328.82 255.628C327.394 255.552 326.482 255.785 325.846 255.97C324.615 256.367 324.233 256.677 323.933 256.862C323.405 257.232 323.413 257.282 323.405 257.278C323.437 257.249 323.672 256.937 323.766 256.758C328.481 247.826 330.852 235.276 328.697 231.002C328.208 229.785 327.727 229.114 327.162 228.479C321.773 222.937 320.625 220.319 319.35 218.958C312.944 211.502 314.131 213.996 309.154 208.062C306.473 204.902 306.481 203.879 306.135 203.444C303.056 199.676 301.723 199.621 299.115 196.973C292.742 190.578 286.184 184.757 279.31 180.669C274.037 177.574 269.554 173.963 265.58 171.071C263.619 169.642 261.736 168.408 260.41 167.809C259.754 167.505 259.281 167.379 259.104 167.349C258.913 167.322 259.028 167.314 258.98 167.309C258.668 167.353 256.847 168.311 255.101 169.355C253.697 170.177 253.6 169.76 252.646 170.337C248.325 172.831 250.796 172.377 245.635 174.756C244.761 175.129 243.861 175.481 242.938 175.805C241.463 176.308 239.737 176.809 237.336 176.868C235.012 176.951 231.522 176.257 228.84 174.107C223.497 169.433 223.654 165.179 223.252 162.393C222.841 156.763 222.639 151.105 222.414 145.509C222.372 144.501 222.879 144.005 222.753 141.717C222.616 139.452 222.039 137.687 221.712 134.505C221.585 133.336 221.427 132.221 221.276 131.504C221.213 131.17 221.123 130.915 221.217 131.093C221.391 131.209 221.399 132.192 223.997 133.701C225.723 134.445 225.955 134.092 226.098 134.092C226.207 134.028 226.139 134.007 226.201 133.926C226.596 133.624 226.347 133.767 226.169 133.929C225.97 134.097 225.607 134.458 225.341 134.732C224.723 135.375 224.056 136.133 223.361 136.966C222.015 138.574 220.621 140.384 219.249 142.259C218.283 143.581 217.614 145.606 216.152 147.672C211.632 154.059 204.49 163.521 200.501 169.138C196.506 174.75 192.709 180.192 188.143 185.683C186.893 187.146 185.749 188.484 183.958 190.108C182.908 190.924 182.304 191.886 178.972 193.159C177.89 193.505 176.417 193.823 174.536 193.558C172.364 193.328 169.697 191.725 168.476 189.973C167.348 188.414 167.115 187.555 166.814 186.569C166.559 185.657 166.464 184.747 166.436 184.394C166.359 183.451 166.38 182.629 166.439 181.822C166.485 181.195 166.545 180.683 166.626 180.11C166.806 178.884 166.975 178.06 167.177 177.123C167.649 175.025 167.993 173.765 168.54 171.858C170.89 163.716 173.285 155.649 175.731 147.568C177.176 142.801 179.005 138.77 179.764 136.289C181.463 130.717 179.673 134.775 181.352 129.12C183.397 122.202 185.433 115.217 187.275 108.348C188.198 104.893 189.073 101.476 189.8 98.134C190.157 96.4852 190.479 94.8163 190.655 93.4748C190.702 93.1109 190.732 92.8193 190.75 92.5838C190.771 92.321 190.767 92.1514 190.77 92.2326C190.777 92.3011 190.771 92.3853 190.842 92.7732C190.885 92.9927 190.953 93.2907 191.098 93.6978C191.269 94.1229 191.368 94.5305 192.101 95.5805C192.774 96.5223 194.017 97.6883 195.687 98.3254C197.366 98.9907 199.132 98.9555 200.266 98.6964C202.122 98.2344 202.526 97.7849 202.949 97.5201C201.284 98.7366 199.222 100.72 196.861 102.862C194.181 104.923 192.663 107.784 185.221 109.796C182.86 110.044 178.332 111.604 172.42 107.633C171.207 106.73 170.395 105.742 169.879 105.049C169.406 104.409 169.026 103.796 168.683 103.188C168.126 102.202 167.618 101.086 167.289 100.3C166.532 98.4977 165.979 96.8738 165.478 95.3324C164.462 92.1775 163.623 89.1077 162.832 86.1334C161.244 80.1244 159.819 74.2398 158.286 68.4635C156.761 62.7708 155.135 56.8907 153.163 52.3477C152.677 51.233 152.119 50.247 151.909 49.9845C151.859 49.8667 151.793 50.05 152.9 50.7227C153.518 51.0648 154.482 51.4581 155.819 51.4827C156.459 51.4933 157.114 51.4008 157.683 51.2371C158.204 51.0878 158.613 50.904 158.959 50.7132C159.3 50.5246 159.566 50.3295 159.744 50.1824C159.89 50.0617 159.995 49.9598 160.069 49.8829C160.219 49.7252 160.234 49.6878 160.21 49.7248C160.171 49.7723 159.937 50.1749 159.77 50.5341C159.351 51.4207 158.962 52.4535 158.523 53.8116C158.574 53.6445 158.533 53.7726 158.5 53.9549C158.465 54.1408 158.423 54.4035 158.385 54.6809C158.308 55.2465 158.239 55.9364 158.183 56.6053C157.322 67.4882 158.329 80.0057 156.99 94.5516C156.89 95.2513 156.779 95.9484 156.591 96.7857C156.342 97.7138 156.28 98.5414 155.159 100.647C154.489 101.596 153.621 103.832 149.377 105.269C147.31 105.886 145.13 105.612 143.815 105.158C142.351 104.652 141.731 104.213 141.048 103.743C138.924 102.096 138.608 101.35 138.012 100.615C136.125 97.9013 135.361 96.2821 134.327 94.4356C132.408 90.8919 130.677 87.691 128.928 84.6982C128.781 84.4461 128.638 84.2005 128.499 83.9611C124.995 77.9347 124.861 76.358 122.122 71.863C117.065 63.6148 115.315 62.6311 109.786 54.0905C105.394 47.3466 101.126 39.0144 96.2263 32.4149C91.3489 26.056 88.1953 23.1955 82.3667 18.6241C81.6474 18.1009 80.8919 17.5899 80.0494 17.0774C79.7234 16.8674 79.561 16.8274 80.1691 17.0837C80.5066 17.2029 81.0433 17.4479 82.3221 17.5531C83.5321 17.6816 85.8729 17.3291 87.5728 16.1121C89.2908 14.9073 89.9171 13.7195 90.278 13.0102C90.4431 12.6655 90.5393 12.4032 90.6131 12.1757C90.6746 11.9832 90.7136 11.8278 90.7399 11.7068C90.8257 11.2729 90.7826 11.3258 90.7742 11.4612C90.7013 12.1742 90.824 14.078 91.0372 15.8061C91.4718 19.3924 92.195 23.2653 92.97 26.767C93.0207 26.995 93.0722 27.2238 93.1246 27.4533C100.631 59.1173 109.888 90.782 117.882 122.876C119.325 128.719 120.706 134.54 122.002 140.459C122.65 143.422 123.272 146.385 123.856 149.405C124.148 150.914 124.429 152.43 124.695 153.977C124.828 154.75 124.958 155.543 125.082 156.343C125.141 156.73 125.205 157.162 125.262 157.565C125.293 157.785 125.322 157.997 125.349 158.204C125.364 158.321 125.377 158.419 125.391 158.533C125.399 158.593 125.403 158.63 125.409 158.68C125.412 158.704 125.414 158.719 125.414 158.718C125.414 158.717 125.414 158.715 125.407 158.667C125.404 158.642 125.399 158.607 125.39 158.544C125.385 158.512 125.379 158.473 125.37 158.419C125.366 158.392 125.36 158.361 125.354 158.325C125.353 158.32 125.352 158.315 125.352 158.311C125.351 158.308 125.351 158.306 125.35 158.304C125.347 158.286 125.338 158.233 125.329 158.188C125.31 158.09 125.287 157.967 125.237 157.756C125.179 157.532 125.132 157.274 124.877 156.576C124.731 156.21 124.573 155.743 124.008 154.819C123.333 154.033 122.698 151.918 117.965 150.478C115.637 149.844 112.505 150.419 110.707 151.569C108.843 152.693 107.996 153.876 107.451 154.689C106.431 156.346 106.341 157.069 106.171 157.624C105.925 158.663 105.936 158.962 105.904 159.252C105.883 159.516 105.88 159.661 105.876 159.776C105.963 156.185 106.027 152.645 105.968 149.263C105.938 147.591 105.874 145.914 105.748 144.532C105.689 143.861 105.59 143.194 105.554 143.051C105.549 143.025 105.55 143.043 105.589 143.169C105.607 143.227 105.64 143.329 105.696 143.474C105.752 143.617 105.829 143.808 105.988 144.119C106.354 144.602 106.558 145.937 109.718 147.805C111.421 148.764 114.069 149.12 115.913 148.685C117.932 148.222 118.663 147.663 119.439 147.137C122.056 145.035 122.171 143.888 122.515 143.296C122.59 143.117 122.601 143.085 122.629 143.012C122.653 142.946 122.674 142.888 122.692 142.836C122.728 142.732 122.754 142.651 122.773 142.588C122.847 142.332 122.829 142.373 122.821 142.417C122.81 142.469 122.785 142.595 122.76 142.743C122.739 142.865 122.714 143.015 122.688 143.186C122.631 143.553 122.583 143.901 122.53 144.292C122.504 144.489 122.477 144.698 122.449 144.917C122.424 145.112 122.4 145.302 122.375 145.506C122.164 147.216 121.976 148.872 121.761 150.692C121.352 154.187 120.906 157.779 120.401 161.349C119.393 168.479 118.135 175.699 116.492 182.882C113.15 197.218 108.551 211.741 99.9181 225.208C98.1011 228.005 96.0578 230.792 93.7679 233.448C90.004 237.66 84.9744 241.421 77.158 241.579C71.7433 241.184 66.2342 240.474 61.4701 232.718C61.0493 231.886 60.8162 231.183 60.6478 230.57C60.4892 229.976 60.4273 229.633 60.3587 229.221C60.2277 228.373 60.2032 227.934 60.1718 227.381C60.1253 226.4 60.1445 225.619 60.1696 224.913C60.2251 223.497 60.3305 222.26 60.4347 221.084C60.6498 218.717 60.8877 216.505 61.0936 214.318C61.5088 209.96 61.8123 205.718 61.8491 201.59C61.9407 193.381 60.8908 185.427 57.833 179.928C58.0275 180.197 58.7772 180.742 59.6631 180.662C59.6552 180.658 59.6469 180.653 59.6385 180.648C59.5648 180.61 59.5422 180.378 59.4717 180.175C59.4338 180.075 59.3757 179.982 59.2529 179.954C59.1263 179.937 58.9572 179.932 58.5936 180.297C58.4165 180.469 58.224 180.658 58.0141 180.868C54.9327 184.015 50.9876 189.036 44.9726 197.352C36.1516 209.697 29.5311 224.051 29.6851 238.332C30.01 257.836 33.7432 278.016 39.941 297.189C46.3071 316.852 56.4187 335.673 65.5303 355.343C66.5911 357.842 67.7454 359.836 68.3255 364.274C68.3558 365.505 68.7021 366.999 67.3127 369.968C66.6093 371.421 64.962 373.105 63.2442 373.83C61.5368 374.59 60.1081 374.643 59.1216 374.614C55.2668 374.255 54.2394 373.317 52.7132 372.612C49.1085 370.674 45.5659 368.698 42.0696 366.734C31.1389 360.735 18.4908 352.799 10.0913 351.578C9.77517 351.556 9.50817 351.565 9.4201 351.583C9.33908 351.588 9.42504 351.654 10.058 351.428C10.6228 351.254 12.1664 350.305 12.8926 348.701C13.609 347.127 13.415 346.157 13.394 345.863C18.5658 370.451 30.9231 396.429 49.2523 409.89C69.2797 426.961 85.1679 431.887 108.842 432.452C140.043 433.62 170.612 433.816 199.464 435.544C203.915 435.808 201.479 438.224 199.049 439.005C196.63 438.657 194.428 438.211 191.935 437.802C188.97 440.827 189.454 440.08 177.889 440.306C170.765 440.428 176.514 441.437 172.715 441.934C167.824 442.624 144.7 444.635 149.116 442.601C147.685 442.963 146.371 443.306 144.978 443.654C132.66 444.081 120.59 444.434 108.524 444.49C104.13 444.506 99.7409 444.412 95.3327 444.125C92.4415 443.921 92.2576 444.508 89.2633 444.189C81.2554 443.235 74.8547 441.351 67.0866 437.828C62.9435 435.81 61.9507 436.108 56.9507 432.724C52.0963 429.243 52.8064 428.503 45.9964 424.513C47.4733 426.341 44.8007 424.345 40.818 421.373C35.2439 417.404 29.0225 410.199 26.2093 406.482C25.3737 405.59 18.6875 397.867 16.2954 393.047C13.7596 388.292 10.8288 380.743 7.61452 373.181C6.10948 369.632 4.57161 367.673 3.30915 363.667C2.43123 360.848 2.20767 357.24 1.43244 353.588C1.13844 352.21 0.634861 350.167 0.181147 348.126C-0.145518 346.628 -0.219381 343.757 1.64514 341.398C3.48896 339.133 5.49107 338.619 6.7296 338.284C9.2845 337.731 10.6016 337.928 11.2378 337.948C11.3052 337.953 11.3704 337.959 11.4336 337.965C17.7524 338.975 10.672 338.187 14.9368 339.094C31.5629 344.439 44.8947 354.716 58.6773 361.565C59.2508 361.871 59.8585 362.087 59.8806 362.064C59.8637 362.077 59.681 361.908 58.6839 362.113C58.2079 362.221 57.4835 362.545 56.9363 363.061C56.3727 363.58 56.0692 364.151 55.9215 364.536C55.7602 364.973 55.7493 365.106 55.7117 365.198C55.6814 365.277 55.6539 365.298 55.6218 365.303C55.5605 365.305 55.4741 365.262 55.4338 365.02C55.3881 364.807 55.438 364.276 55.6826 363.731C55.9267 363.176 56.2724 362.772 56.0881 362.967C55.049 364.242 55.088 364.979 55.015 365.226C54.9771 365.497 54.9779 365.48 54.9491 365.417C54.8978 365.267 54.7844 364.893 54.658 364.555C54.3982 363.847 54.1115 363.192 53.8929 362.687C53.4476 361.673 53.2682 361.217 53.2648 361.016C53.2347 360.554 53.9732 361.327 53.4211 359.48C52.4749 356.022 40.4314 332.205 39.4471 332.389C40.2765 331.085 36.8374 326.079 36.1667 324.658C33.5506 319.151 35.0661 319.8 32.4643 314.474C31.5212 312.507 32.4168 316.725 31.5489 314.548C29.9088 310.406 29.1158 306.289 27.8359 301.259C27.4508 299.737 27.024 298.141 26.5199 296.432C25.9989 294.644 25.2845 294.231 24.386 291.046C23.3824 287.878 20.8755 274.203 21.2081 280.708C20.2604 272.282 19.3875 270.741 17.9302 261.027C17.5921 258.557 18.0284 255.288 17.282 250.048C17.038 248.265 16.1805 248.395 15.9928 245.684C15.8369 243.329 15.8589 240.98 15.9733 238.583C16.1615 234.439 16.8279 230.156 17.8303 225.193C20.8852 210.148 28.4593 195.626 38.3218 183.748C41.0492 180.547 40.9793 181.866 45.0682 177.393C45.5038 176.924 47.7126 174.031 50.2522 171.39C51.8434 169.748 54.0075 168.514 55.8994 168.016C56.6362 167.814 58.0435 167.501 59.8416 167.566C63.0837 167.547 67.2179 169.805 69.0211 173.218C71.108 176.927 72.2008 180.801 72.5696 182.101C73.7658 186.556 74.6078 187.225 74.8634 189.726C75.2223 196.92 73.5635 191.271 75.6443 199.669C74.8031 202.472 74.7309 207.308 73.4883 208.781C74.5916 211.644 73.0925 215.176 73.0085 220.492C72.9898 222.158 73.1894 223.735 73.4446 225.03C73.5711 225.698 73.7172 226.26 73.8535 226.641C73.9218 226.843 73.988 226.968 74.0317 226.995C74.0663 227.016 74.1113 226.885 73.8839 226.391C73.8777 226.303 73.8518 226.723 73.4794 227.631C73.9367 227.854 75.5484 228.492 77.2466 228.317C79.2278 228.195 81.6311 226.253 82.0919 225.748C82.6689 225.212 83.0379 224.814 83.3158 224.544C84.5921 223.207 84.3112 224.296 86.0377 221.907C86.3966 221.357 85.6703 221.682 88.0404 218.212C90.1157 216.285 98.421 197.284 98.4864 195.921C103.491 182.506 96.7231 203.553 95.5897 206.416C95.2441 206.858 94.8986 207.29 94.5325 207.76C91.6447 213.292 94.1907 210.619 95.631 208.101C97.0831 205.602 98.5717 200.395 99.6769 198.243C100.232 197.168 101.299 198.314 99.8781 201.695C101.618 198.16 100.175 203.338 101.075 202.017C102.34 200.655 107.398 183.553 106.501 183.261C105.719 186.466 104.678 190.467 103.672 193.652C101.174 197.354 101.002 183.791 104.769 172.43C107.478 164.056 106.298 178.458 108.314 157.789C107.837 160.975 107.332 163.579 106.813 166.449C105.817 166.628 107.601 162.105 107.616 159.696C107.635 158.524 105.952 165.486 106.601 159.33C108.733 154.11 107.665 150.192 108.897 140.738C108.721 143.496 108.717 145.988 108.665 148.512C111.542 133.306 107.245 169.143 111.993 138.939C110.977 143.119 110.916 146.333 110.493 149.961C111.189 148.341 112.346 151.198 112.832 149.73C113.294 148.269 113.604 146.639 113.865 144.836C113.992 143.973 114.112 143.021 114.237 142.118C114.306 141.632 114.361 141.24 114.447 140.768C114.485 140.561 114.522 140.371 114.575 140.17C114.598 140.082 114.618 140.017 114.629 139.983C114.637 139.921 114.691 139.977 114.385 140.228C114.382 140.226 114.354 140.25 114.259 140.277C114.159 140.308 113.985 140.318 113.835 140.269C113.529 140.154 113.551 140.063 113.578 140.119C113.653 140.217 113.779 140.528 113.862 140.835C114.039 141.471 114.146 142.179 114.218 142.868C114.405 144.974 113.87 143.702 113.889 143.882C114.059 146.77 114.59 146.113 114.704 148.713C114.805 151.024 114.472 156.457 114.229 159.984C114.235 159.939 114.214 159.947 114.271 159.674C114.295 159.594 114.309 159.491 114.448 159.256C114.523 159.14 114.636 158.973 114.89 158.803C115.135 158.632 115.58 158.514 115.944 158.589C116.687 158.768 116.808 159.113 116.913 159.232C117.003 159.375 117.028 159.447 117.051 159.504C117.159 159.838 117.114 159.748 117.124 159.766C117.125 159.771 117.125 159.775 117.126 159.778C117.127 159.784 117.128 159.789 117.128 159.791C117.13 159.797 117.13 159.798 117.13 159.796C117.13 159.793 117.128 159.777 117.128 159.772C117.127 159.756 117.125 159.735 117.123 159.71C117.118 159.656 117.116 159.627 117.112 159.575C117.102 159.472 117.097 159.403 117.087 159.299C117.072 159.137 117.054 158.954 117.037 158.793C117.003 158.465 116.97 158.171 116.936 157.899C116.871 157.372 116.812 156.975 116.765 156.738C115.948 152.79 115.89 159.59 115.711 159.216C114.833 156.758 114.329 151.588 113.653 151.97C113.903 153.052 114.169 154.302 114.43 155.669C114.562 156.365 114.691 157.08 114.814 157.819C114.873 158.173 114.936 158.568 114.991 158.937C115.021 159.137 115.048 159.321 115.075 159.512C115.087 159.601 115.101 159.708 115.114 159.8C115.121 159.855 115.126 159.894 115.133 159.944C115.136 159.974 115.14 159.999 115.143 160.02C115.144 160.029 115.146 160.045 115.149 160.063C115.15 160.072 115.151 160.08 115.152 160.088C115.153 160.093 115.154 160.097 115.154 160.102C115.155 160.105 115.155 160.107 115.156 160.11C115.158 160.116 115.148 160.093 115.175 160.189C115.2 160.225 115.145 160.242 115.351 160.445C115.411 160.494 115.527 160.563 115.685 160.564C115.843 160.567 115.985 160.487 116.052 160.422C116.186 160.287 116.185 160.224 116.203 160.183C116.237 160.045 116.223 160.058 116.227 160.034C117.169 145.477 114.281 124.328 117.866 152.319C118.867 143.11 120.833 145.788 120.711 158.992C120.706 159.396 120.699 159.797 120.692 160.146C120.687 160.246 120.694 160.341 120.645 160.715C120.605 160.926 120.614 161.152 120.324 161.912C120.143 162.296 119.96 162.899 118.966 163.808C118.096 164.778 115.316 165.454 113.802 164.662C112.285 163.988 111.88 163.264 111.572 162.873C111.288 162.456 111.182 162.208 111.096 162.016C110.938 161.643 110.9 161.482 110.861 161.349C110.794 161.101 110.782 161.016 110.766 160.938C110.747 160.833 110.756 160.88 110.751 160.853C110.747 160.827 110.743 160.806 110.74 160.788C110.735 160.752 110.731 160.726 110.728 160.705C110.722 160.663 110.719 160.637 110.716 160.613C110.711 160.58 110.709 160.566 110.707 160.544C110.701 160.502 110.696 160.464 110.693 160.436C110.685 160.374 110.676 160.306 110.669 160.251C110.651 160.118 110.638 160.023 110.621 159.891C110.591 159.671 110.56 159.449 110.529 159.227C110.472 158.819 110.415 158.42 110.371 158.096C110.278 157.414 110.219 156.924 110.186 156.542C110.124 155.797 110.171 155.521 110.269 155.392C110.458 155.108 110.835 155.266 110.685 152.585C110.715 151.881 108.075 137.863 107.367 137.25C108.643 137.572 108.596 132.751 110.482 135.563C110.758 135.94 111.983 141.741 112.481 139.52C112.732 138.393 113.112 135.275 113.824 135.608C113.134 134.527 112.375 133.398 111.653 132.287C110.798 128.855 110.304 126.633 109.983 124.799C109.515 122.107 109.466 120.405 109.234 117.484C108.962 117.784 108.679 122.454 107.443 115.771C107.385 115.436 107.797 114.988 107.196 111.604C105.954 104.707 105.743 103.283 108.515 108.091C104.097 94.3144 104.896 90.8944 100.7 76.7033C99.5884 80.0301 101.367 84.9438 105.131 97.9608C104.84 98.648 104.473 99.029 104.181 99.7318C100.641 82.0125 102.779 90.6682 99.3099 81.0152C98.4576 78.6546 95.3437 65.695 95.2143 70.3226C95.1842 71.4196 97.3015 79.4185 96.6011 78.6222C96.4651 78.4666 93.709 68.7817 93.6087 67.8913C92.3239 56.7251 98.2215 75.7309 90.1817 46.1766C89.961 45.353 89.3461 45.1889 88.8818 43.6234C88.0006 40.6285 88.6179 40.436 87.8336 37.7982C87.114 35.3639 85.6063 32.1776 85.2924 28.4331C85.2602 28.0696 85.2399 27.7071 85.233 27.346C85.1847 24.1972 85.895 25.2341 86.8395 28.0974C88.1876 32.1836 90.2001 40.1526 90.8921 44.8344C91.9456 45.8933 90.366 37.9473 88.4037 27.7579C87.7147 24.104 86.9947 20.1987 86.5155 16.4202C86.2842 14.5636 86.107 12.6127 86.1782 11.2737C86.1934 10.9648 86.2379 10.687 86.2492 10.6702C86.2507 10.6645 86.2459 10.7389 86.1404 10.9711C86.0143 11.2177 85.7925 11.6983 85.0336 12.2562C84.2925 12.8145 83.1991 13.0028 82.6807 12.9484C82.1324 12.9088 81.9569 12.8142 81.8896 12.7959C81.7847 12.7496 82.0659 12.8899 82.4276 13.1157C88.7058 16.9711 92.7051 22.4517 93.4953 23.1636C103.366 34.3266 87.5822 15.1524 86.5297 14.9235C86.2985 14.5432 87.9327 12.6084 83.7214 10.9603C83.4746 10.8694 83.2283 10.7928 83.014 10.7601C82.8066 10.7269 82.5986 10.7429 82.6378 10.8549C82.6809 10.939 82.8151 11.0205 82.7697 11.0909C82.7384 11.1644 82.5762 11.2189 82.5045 11.2743C82.3386 11.3686 82.6319 11.6594 83.0448 12.0874C83.7261 12.8072 84.1327 13.3392 82.7136 12.6392C82.5921 12.5802 82.4697 12.5205 82.3589 12.4695C81.9927 12.283 81.8664 12.3613 82.4739 12.4807C83.0585 12.6715 84.6496 12.1792 85.079 11.6301C85.5782 11.1241 85.6019 10.899 85.6412 10.7682C85.6614 10.6454 85.6288 10.6056 85.5949 10.5707C85.4491 10.4516 85.1889 10.5041 85.1862 10.4318C85.1494 10.091 84.9509 11.2326 85.0831 12.5762C85.1785 13.8684 85.4034 15.2576 85.3799 15.5562C85.2831 25.6921 81.8399 24.8948 84.587 11.7563C84.2563 9.52481 83.5085 10.7075 83.0045 12.3976C82.543 14.0678 82.1212 15.6773 81.6199 12.0687C81.5211 10.8754 81.4213 9.61081 82.0036 8.62682C82.3109 8.10962 83.0192 8.06608 83.5109 8.26024C84.0289 8.43885 84.4752 8.71922 84.9067 8.98576C89.4484 11.8518 91.4182 15.0726 91.9798 15.6298C100.337 25.9178 91.8939 12.962 101.613 26.1299C106.721 33.6397 92.605 15.9533 104.88 32.6023C114.762 46.918 109.999 38.8153 111.968 39.0152C112.45 39.1136 118.071 46.8244 110.727 36.0336C110.196 35.9411 109.392 35.6673 108.631 35.187C107.09 32.3922 105.577 26.8921 104.588 25.4588C99.7902 18.5459 99.1942 19.5368 96.746 14.9754C98.1956 18.5286 94.8855 13.6125 93.0094 12.3227C87.2487 8.52695 91.9675 12.5482 85.7513 7.57887C85.4048 7.33724 85.0108 7.04006 84.3788 6.73005C84.0517 6.57969 83.6707 6.40942 83.0595 6.34678C82.4735 6.26697 81.5053 6.48088 80.9085 7.0265C79.7602 8.12412 79.6882 9.07509 79.4822 9.90293C79.3211 10.7525 79.258 11.5709 79.2243 12.4279C79.5169 11.1483 79.7561 9.93883 80.58 8.55763C80.8012 8.22187 81.0993 7.82571 81.5887 7.53896C82.0778 7.24195 82.7 7.21898 83.099 7.3444C83.9122 7.60413 84.3094 8.0582 84.7431 8.46857C84.2652 8.20534 83.7735 7.91761 83.1285 7.82202C82.8114 7.77778 82.418 7.82325 82.1093 8.03429C81.7983 8.2449 81.6248 8.5256 81.4949 8.81205C81.0475 9.93378 81.0886 11.0423 81.1007 12.1137C79.6955 15.457 81.961 26.8773 78.9515 16.6986C79.5558 22.3753 80.4238 26.3366 81.1612 29.3296C82.0956 33.0007 82.9394 35.0432 83.8506 36.397C84.1583 36.8336 84.6664 38.6438 85.1954 40.7521C85.3837 40.2774 86.1455 39.5532 86.3342 39.8609C88.0027 42.6128 87.5038 47.642 86.4851 46.2195C86.8256 47.7262 87.0757 48.8775 87.1662 49.3052C87.7286 51.9711 85.8702 46.9431 86.2078 49.1251C86.3173 49.8528 88.304 57.1996 88.1117 57.3947C86.8746 58.6709 84.8002 46.252 90.2138 70.8365C91.7069 71.0796 88.4984 59.8509 90.6744 62.386C93.0061 65.1039 92.5948 71.989 94.8374 72.8896C94.6619 73.485 94.4633 73.7801 94.2268 74.3162C97.606 83.9412 96.0759 84.4747 96.5137 87.5723C97.3729 93.5842 104.406 120.365 99.5291 95.9371C100.58 99.423 101.577 103.009 102.598 106.482C99.9799 108.006 100.614 105.583 104.413 122.57C104.718 123.954 104.786 125.088 104.856 126.046C104.99 127.715 105.171 129.061 106.628 131.109C105.083 130.956 108.493 141.769 108.509 142.822C108.739 148.232 104.479 134.316 103.36 126.411C103.085 124.353 103.039 122.658 103.411 121.876C101.392 118.006 102.705 117.683 101.363 113.128C99.4102 106.529 98.9186 105.685 97.8375 97.5422C94.4821 90.1317 105.065 128.092 97.3141 105.431C94.0715 95.5693 84.8965 65.3099 76.3345 30.377C75.4328 26.4517 74.578 22.5428 73.9145 18.2723C73.6035 16.1117 73.2736 14.0035 73.2993 11.023C73.3227 10.2069 73.3524 9.42746 73.5729 8.21643C73.9257 7.03876 73.7833 5.39215 76.6497 2.42634C78.0906 0.980663 80.8529 -0.0384645 82.6581 0.0014801C84.511 -0.0240602 85.6322 0.371421 86.4186 0.643414C87.9779 1.24134 88.6194 1.70003 89.1162 1.97337C121.077 28.2865 132.652 59.2678 143.858 74.692C145.361 77.14 146.58 79.2713 147.58 81.0505C149.133 83.8075 150.614 86.6165 151.878 88.7691C152.188 89.2942 152.488 89.7671 152.653 89.9933C152.73 90.1022 152.781 90.1436 152.619 89.9527C152.519 89.8424 152.399 89.696 152.013 89.3682C151.649 89.0938 151.089 88.5395 149.44 87.9641C147.983 87.3231 144.349 87.4221 142.462 88.6974C140.517 89.8758 139.968 90.9038 139.614 91.4028C138.959 92.5085 139.024 92.6352 138.968 92.7325C138.942 92.8199 139.038 92.3814 139.099 91.902C139.742 85.866 139.63 77.907 139.727 71.0708C139.762 67.5596 139.801 64.1104 139.916 60.6121C139.976 58.8606 140.051 57.1083 140.19 55.2528C140.397 53.2609 140.31 51.8808 141.316 48.272C141.921 46.3869 142.436 44.8929 143.375 42.8462C144.422 40.9952 144.859 38.684 149.391 35.3154C151.549 33.4891 157.628 32.6409 160.601 34.3061C161.394 34.6435 162.151 35.0821 162.691 35.4477C163.204 35.793 163.66 36.15 164.071 36.5081C164.482 36.8665 164.85 37.2262 165.186 37.5839C165.501 37.9205 165.727 38.1821 165.971 38.4793C167.918 40.9411 168.652 42.5758 169.503 44.3194C172.485 50.9443 173.978 56.6344 175.65 62.5465C177.255 68.3971 178.715 74.2879 180.277 80.1804C181.063 83.1353 181.873 86.0959 182.756 88.8996C183.2 90.2997 183.658 91.6438 184.124 92.7914C184.339 93.323 184.586 93.855 184.707 94.0744C184.768 94.1904 184.808 94.2392 184.715 94.1065C184.639 94.0166 184.356 93.5463 183.407 92.8262C182.158 91.8959 180.962 91.8043 180.829 91.8082C180.644 91.8127 181.084 91.8078 181.892 91.6524C181.313 91.7645 181.118 91.8804 181.1 91.8853C181.085 91.8949 181.243 91.814 181.467 91.6632C182.153 91.4521 185.152 88.1289 191.992 82.6825C192.764 82.1253 193.733 81.4828 195.317 80.9558C196.998 80.1855 202.036 80.1169 204.845 82.5236C206.27 83.6027 207.162 84.8395 207.726 85.8646C208.2 86.744 208.383 87.2621 208.579 87.8526C208.938 88.9834 209.045 89.8661 209.1 90.3508C209.162 90.9148 209.185 91.4186 209.192 91.8961C209.196 92.3293 209.188 92.6353 209.174 92.9896C209.159 93.3334 209.137 93.6697 209.11 94.004C209.087 94.2839 209.06 94.5504 209.03 94.8233C208.775 97.0337 208.431 98.7028 208.065 100.417C207.341 103.71 206.535 106.625 205.849 108.893C204.446 113.491 203.459 115.721 203.652 112.977C203.806 111.845 207.308 94.5869 202.521 108.897C204.011 106.151 202.296 114.702 202.15 115.445C199.382 131.907 202.489 122.881 195.05 147.792ZM201.419 161.254C181.417 188.874 196.815 169.045 194.657 176.296C197.292 172.711 199.819 169.13 202.326 165.542C201.544 166.397 200.761 167.25 199.979 168.096C199.976 168.1 199.973 168.104 199.97 168.108C200.459 165.829 200.948 163.532 201.419 161.254ZM284.034 433.858C285.348 433.536 286.635 433.211 288.057 432.89C292.483 432.975 296.877 433.029 301.243 432.998C300.739 433.233 300.225 433.469 299.713 433.702C294.534 433.822 289.306 433.838 284.034 433.858ZM92.3768 49.3299C93.0442 55.6591 94.4605 54.734 95.8357 63.0276C96.725 61.7383 97.5621 60.3472 98.427 59.0048C96.6797 52.8738 95.88 51.5711 94.4944 44.8023C94.3204 45.6811 94.1436 46.5547 93.9648 47.4179C94.3281 48.5369 94.7084 49.6714 95.0546 50.7499C94.4512 52.7299 91.6134 42.0299 92.3691 49.3093C92.3717 49.3161 92.3743 49.323 92.3768 49.3299ZM109.031 111.936C109.456 113.989 110.671 119.836 111.705 124.38C112.358 127.24 112.936 129.55 113.287 130.222C114.443 132.386 113.764 128.408 112.853 124.1C111.437 117.446 109.551 110.063 113.783 123.874C113.99 124.561 114.208 125.288 114.435 126.05C114.632 125.872 114.883 125.942 115.108 125.888C114.946 125.164 114.779 124.426 114.608 123.673C113.638 119.408 112.629 115.148 111.596 110.865C110.774 111.36 109.849 111.405 109.031 111.936ZM193.31 100.12C193.538 99.2126 193.932 97.4037 194.216 95.4763C194.367 94.4498 194.484 93.4133 194.491 92.5617C194.492 92.3473 194.484 92.2129 194.469 92.0743C194.462 92.018 194.454 91.9903 194.45 92.0014C194.447 92.0106 194.442 92.06 194.486 92.2447C194.507 92.3347 194.541 92.4533 194.6 92.6056C194.63 92.6817 194.665 92.7662 194.71 92.8591C194.752 92.9477 194.849 93.128 194.954 93.2867C195.348 93.9377 196.42 94.9114 197.755 95.1539C198.392 95.2828 198.978 95.2512 199.414 95.1691C199.638 95.1275 199.817 95.0746 199.913 95.0446C200.025 95.0092 200.124 94.9727 200.212 94.9372C200.56 94.7934 200.728 94.6775 200.811 94.6253C196.176 98.8149 190.184 105.15 194.772 101.902C196.04 101.068 198.917 97.5776 201.313 95.3052C201.154 95.3954 200.852 95.6028 200.186 95.8133C199.557 96.1118 197.09 96.2441 195.632 95.0834C194.905 94.5695 194.456 93.9746 194.195 93.5244C194.052 93.276 193.999 93.1483 193.947 93.0233C193.896 92.8988 193.858 92.7888 193.829 92.6924C193.715 92.3091 193.719 92.128 193.729 92.0979C193.788 91.9505 193.857 92.5637 193.853 93.0493C193.854 94.1048 193.714 95.2711 193.564 96.0263C193.018 98.6007 192.849 95.4809 192.03 100.621C192.437 100.474 192.862 100.421 193.311 100.106C193.311 100.111 193.31 100.115 193.31 100.12ZM195.622 110.699C196.854 105.42 198.095 100.043 198.719 94.7165C197.307 98.4511 195.962 106.109 194.572 106.208C194.835 104.767 195.096 103.286 195.322 101.876C195.87 100.796 196.377 99.8498 196.893 98.7871C196.995 96.5071 196.787 96.0395 196.78 95.1028C196.775 94.8792 196.777 94.6388 196.79 94.3573C196.808 94.0296 196.835 93.6575 196.861 93.2559C196.871 93.0803 196.89 92.7854 196.897 92.5544C196.905 92.32 196.908 92.0754 196.895 91.8419C196.889 91.7332 196.882 91.6614 196.874 91.6095C196.881 91.5822 196.834 91.5756 197.025 91.8895C197.136 92.0573 197.367 92.3231 197.737 92.5071C198.109 92.7007 198.577 92.7417 198.857 92.6919C199.173 92.6338 199.194 92.5953 199.264 92.565C199.316 92.5364 199.315 92.5285 199.279 92.5511C199.174 92.6249 199.065 92.7022 198.953 92.7831C199.098 92.7447 199.238 92.7099 199.374 92.6784C199.441 92.7011 199.451 92.7748 199.357 92.8797C199.301 92.9338 199.263 92.9837 199.102 93.0536C198.934 93.1233 198.688 93.185 198.389 93.1848C197.775 93.2027 197.06 92.8545 196.713 92.5208C196.529 92.3559 196.405 92.2052 196.317 92.0907C196.248 92.0138 196.195 91.9536 196.151 91.9073C195.981 91.7167 195.919 91.7937 195.83 91.8786C195.746 91.9655 195.665 92.1626 195.582 92.3005C195.247 93.0009 194.909 93.9188 194.604 95.11C193.97 97.5933 193.446 101.35 192.581 108.517C192.214 105.574 188.217 107.154 188.451 115.705C188.496 117.299 190.498 111.265 190.591 111.174C191.747 110.463 191.38 114.059 192.504 113.27C193.017 112.916 194.026 109.141 194.707 108.696C195.039 108.503 194.819 112.308 195.622 110.699ZM188.218 119.772C188.136 118.017 185.293 123.121 184.151 127.932C182.368 135.431 187.049 124.139 188.218 119.772ZM284.005 433.859C284.015 433.859 284.025 433.859 284.034 433.858C284.03 433.859 284.025 433.861 284.02 433.862C284.015 433.861 284.01 433.86 284.005 433.859ZM105.279 94.7702C106.75 98.5249 108.17 104.303 108.793 103.679C109.139 105.619 109.487 107.563 109.824 109.486C110.04 109.412 110.253 109.32 110.468 109.246C109.153 103.525 107.818 97.8115 106.482 92.1028C106.076 92.9704 105.651 93.7744 105.279 94.7702ZM119.287 157.489C119.347 157.922 119.397 158.278 119.448 158.635C119.473 158.811 119.495 158.96 119.519 159.128C119.529 159.196 119.541 159.285 119.551 159.348C119.555 159.373 119.562 159.421 119.566 159.444C119.568 159.457 119.569 159.464 119.57 159.469C119.57 159.47 119.57 159.465 119.568 159.445C119.566 159.435 119.564 159.421 119.561 159.398C119.559 159.387 119.557 159.373 119.554 159.356C119.553 159.352 119.553 159.347 119.552 159.342C119.548 159.321 119.562 159.393 119.529 159.222C119.509 159.14 119.501 159.059 119.4 158.753C119.333 158.585 119.3 158.388 118.936 157.823C118.729 157.544 118.459 157.098 117.581 156.588C116.768 156.035 114.825 155.909 113.778 156.598C112.714 157.226 112.42 157.848 112.213 158.203C112.021 158.575 111.959 158.797 111.909 158.969C111.818 159.304 111.807 159.447 111.791 159.564C111.767 159.784 111.768 159.857 111.765 159.923C111.731 155.823 110.753 160.498 110.343 159.059C109.902 157.433 110.368 151.019 109.635 151.782C109.619 154.397 109.547 157.124 109.461 159.865C109.464 159.782 109.466 159.679 109.485 159.463C109.495 159.352 109.509 159.213 109.547 158.986C109.592 158.749 109.628 158.456 109.871 157.797C110.005 157.463 110.18 157.02 110.651 156.361C111.118 155.736 111.981 154.714 113.725 154.114C115.465 153.477 117.653 153.923 118.723 154.586C119.858 155.24 120.327 155.854 120.659 156.273C121.274 157.122 121.369 157.484 121.494 157.77C121.6 158.045 121.646 158.205 121.682 158.333C121.897 159.201 121.8 158.87 121.823 158.952C121.827 158.977 121.831 158.997 121.834 159.015C121.839 159.05 121.843 159.074 121.846 159.094C121.852 159.132 121.854 159.149 121.856 159.16C121.858 159.181 121.857 159.17 121.857 159.167C121.856 159.157 121.853 159.133 121.849 159.101C121.844 159.055 121.837 159.001 121.829 158.933C121.818 158.836 121.8 158.691 121.787 158.592C121.757 158.352 121.728 158.129 121.698 157.909C121.634 157.443 121.575 157.033 121.507 156.576C121.375 155.699 121.239 154.853 121.098 154.01C120.534 155.324 119.888 156.284 119.289 157.505C119.288 157.5 119.287 157.494 119.287 157.489ZM274.86 173.295C270.833 170.236 272.759 170.328 264.668 166.022C264.674 166.025 264.679 166.028 264.685 166.032C268.905 169.104 274.197 174.143 280.828 178.027C283.989 179.888 287.096 182.012 290.055 184.078C287.295 181.182 284.492 179.341 281.159 177.451C279.134 176.308 277.053 174.967 274.86 173.295ZM90.5525 31.8884C89.4633 29.9881 91.1693 39.59 92.2666 41.5554C94.0079 44.7284 92.162 34.7491 90.5525 31.8884ZM303.853 297.575C304.949 303.786 306.37 295.747 310.253 286.122C311.27 283.644 312.375 280.935 313.431 278.168C313.852 276.949 309.459 285.508 310.247 282.751C310.304 282.476 312.482 277.641 312.806 276.345C313.118 275.039 311.969 276.023 312.649 273.961C313.83 270.31 318.484 263.04 319.342 260.292C319.445 259.907 316.196 264.234 316.028 264.521C313.048 269.171 311.789 274.441 311.445 275.205C309.658 279.176 309.171 278.24 308.536 279.167C307.464 280.742 306.496 283.784 306.249 284.536C306.218 284.625 306.197 284.685 306.184 284.709C304.976 287.09 305.097 286.313 305.761 284.343C306.759 281.39 309.261 275.84 309.624 274.645C311.271 269.291 308.186 273.536 313.848 261.421C314.372 260.28 321.716 246.848 311.764 263.373C326.796 232.719 305.976 269.566 301.876 282.804C301.285 284.437 300.925 285.695 300.754 286.376C300.036 289.359 302.192 285.195 301.986 287.064C301.41 291.26 300.588 298.13 301.88 297.656C304.131 296.795 304.211 289.977 306.429 284.607C306.723 283.866 307.061 283.09 307.393 282.431C307.656 283.206 308.039 283.646 308.104 284.9C308.103 284.582 307.939 284.696 307.673 285.1C306.07 287.036 303.579 297.069 303.848 297.574C303.85 297.574 303.851 297.575 303.853 297.575ZM333.776 249.973C336.652 242.473 335.111 242.672 336.309 235.766C335.465 232.756 335.284 234.285 335.114 236.61C334.95 238.96 334.405 242.313 334.215 243.004C332.433 249.321 330.975 248.723 328.976 255.053C330.697 253.321 332.231 251.816 333.776 249.973ZM307.193 275.862C308.82 270.384 304.634 279.604 304.375 279.961C300.911 283.326 314.102 255.909 307.193 275.862ZM181.51 103.287C179.891 103.333 179.505 103.36 179.196 103.541C178.876 103.652 178.596 104.069 176.76 103.301C176.524 103.188 176.257 103.037 175.977 102.839C171.969 99.1961 171.361 92.1135 170.75 92.336C170.01 92.4638 175.282 109.131 168.924 93.0887C168.842 93.7124 168.595 93.5889 168.45 93.9232C168.952 95.4868 169.477 97.0512 170.202 98.8118C171.106 100.57 171.066 102.04 174.364 105.012C176.574 106.66 179.082 106.996 180.846 106.986C179.077 106.634 176.735 105.859 175.04 104.101C174.514 103.583 174.166 103.063 173.88 102.553C173.62 102.069 173.506 101.72 173.359 101.303C173.048 100.423 172.979 99.8446 172.842 99.1158C174.036 100.647 174.821 102.352 175.705 103.206C175.937 103.46 176.085 103.609 176.133 103.64C176.134 103.639 176.134 103.639 176.135 103.638C179.991 105.731 183.082 104.142 184.105 103.714C185.046 103.27 185.095 103.017 183.995 103.117C183.515 103.117 182.748 103.223 181.51 103.287ZM227.641 146.319C229.579 147.074 227.153 140.512 226.708 137.908C226.306 135.246 226.525 131.783 225.888 133.163C225.904 137.152 227.409 146.242 227.644 146.319C227.643 146.319 227.642 146.319 227.641 146.319ZM321.865 212.789C317.027 207.744 317.401 208.875 312.29 202.108C312.16 202.657 312.017 203.208 311.891 203.753C316.265 208.838 316.951 207.624 321.587 213.991C322.355 215.039 319.726 213.593 323.791 217.858C323.098 216.172 322.489 214.464 321.865 212.789ZM297.684 188.709C303.305 194.015 310.446 195.912 298.845 186.904C297.081 185.619 293.35 184.826 297.684 188.709ZM185.331 140.687C189.35 127.658 184.333 142.321 182.752 145.548C191.433 115.055 181.89 149.02 179.127 151.501C178.52 155.366 177.6 162.677 180.255 155.053C181.362 151.876 180.465 152.886 180.526 152.693C182.456 146.805 183.128 147.793 185.331 140.687ZM328.327 261.959C328.553 261.658 327.721 261.686 328.345 260.695C328.504 260.427 328.747 260.082 328.98 259.711C329.72 258.515 330.729 256.642 330.549 256.325C330.443 256.025 329.466 257.877 328.505 259.442C328.148 260.002 327.67 260.616 327.308 261.004C327.132 261.197 326.981 261.332 326.977 261.355C326.986 261.392 327.107 261.233 327.904 261.139C328.423 261.06 329.593 261.271 330.271 261.886C330.425 262.195 330.246 262.385 330.069 262.488C329.887 262.598 329.707 262.698 329.594 262.767C329.126 262.409 328.365 262.318 328.068 262.398C327.744 262.464 327.69 262.54 327.704 262.535C327.749 262.535 328.044 262.312 328.327 261.959ZM327.953 217.36C323.129 212.465 328.585 222.527 330.027 223.699C330.312 223.969 330.576 224.209 330.822 224.424C332.46 225.895 332.842 226.472 332.935 226.121C332.995 225.794 332.587 224.655 331.708 223.442C329.603 220.776 327.618 217.467 327.953 217.36ZM180.027 172.145C183.272 157.562 179.063 165.186 175.172 173.828C174.742 174.824 174.353 175.756 174.01 176.607C173.988 177.189 173.892 178.101 173.869 178.791C173.838 179.521 173.846 180.107 173.839 180.941C173.806 180.201 173.774 179.607 173.771 178.929C173.762 178.279 173.825 177.414 173.835 176.827C173.862 175.612 173.958 174.352 173.995 173.478C174.003 172.407 173.87 172.098 173.429 173.31C173.1 174.268 172.718 175.504 172.206 177.995C172.08 178.626 171.981 179.192 171.873 179.934C171.745 180.821 171.669 181.481 171.638 182.554C171.627 183.147 171.642 183.677 171.746 184.342C171.82 184.816 171.936 185.314 172.186 185.865C172.248 186.002 172.32 186.142 172.404 186.283C172.445 186.354 172.49 186.426 172.538 186.497C172.597 186.587 172.678 186.701 172.759 186.802C173.086 187.215 173.548 187.616 174.09 187.884C176.416 188.884 177.791 187.805 178.3 187.578C178.646 187.376 178.967 187.151 179.284 186.904C179.528 186.709 179.748 186.517 179.983 186.302C179.583 186.618 179.253 186.867 178.707 187.204C178.158 187.512 177.885 187.714 176.853 187.979C176.397 188.078 175.868 188.12 175.304 188.025C174.645 187.925 173.919 187.575 173.435 187.12C173.187 186.894 172.988 186.651 172.831 186.413C172.698 186.208 172.629 186.073 172.551 185.911C172.406 185.599 172.315 185.31 172.25 185.042C172.185 184.774 172.147 184.526 172.122 184.29C172.102 184.085 172.1 183.978 172.095 183.832C172.089 183.558 172.097 183.307 172.112 183.077C172.14 182.637 172.204 182.165 172.241 182.014C172.425 181.159 172.498 181.329 172.511 181.925C172.528 182.148 172.511 182.783 172.553 183.31C172.572 183.583 172.603 183.859 172.651 184.131C172.712 184.53 172.818 184.97 173 185.385C173.092 185.594 173.203 185.8 173.343 186.002C173.539 186.292 173.797 186.567 174.096 186.782C174.689 187.226 175.447 187.346 175.794 187.338C176.609 187.325 176.958 187.122 176.985 187.117C177.17 186.806 177.028 186.643 176.714 186.549C176.381 186.433 175.936 186.473 175.167 186.043C174.986 185.928 174.817 185.774 174.683 185.595C174.547 185.416 174.453 185.206 174.42 185.075C174.331 184.775 174.297 184.455 174.297 184.083C174.305 183.748 174.347 183.541 174.393 183.217C174.417 183.062 174.445 182.897 174.477 182.721C174.509 182.546 174.547 182.347 174.58 182.228C175.203 179.601 176.189 176.876 177.271 174.451C178.325 172.212 179.309 170.837 180.023 172.159C180.024 172.154 180.026 172.149 180.027 172.145ZM327.841 243.233C327.501 243.27 327.133 243.374 326.954 243.438C326.756 243.507 326.577 243.585 326.414 243.667C326.096 243.823 325.781 244.036 325.625 244.151C325.256 244.419 324.898 244.752 324.669 244.983C324.123 245.534 323.719 246.033 323.303 246.572C322.472 247.663 321.757 248.758 321.03 249.94C319.608 252.264 318.3 254.732 317.317 256.773C315.364 260.866 314.61 263.281 317.211 259.718C318.323 257.065 319.49 254.408 320.776 251.776C321.427 250.452 322.086 249.161 322.878 247.816C323.27 247.152 323.691 246.477 324.21 245.777C324.473 245.427 324.763 245.06 325.175 244.648C325.691 244.256 325.828 243.679 327.841 243.233ZM127.881 61.4238C125.405 56.0722 122.532 51.4757 118.614 45.4471C121.24 51.4696 118.823 47.8978 117.456 46.2328C115.328 43.6167 119.718 50.4133 119.648 50.4481C118.758 50.8839 115.881 46.5691 122.116 56.4496C120.301 54.1873 118.498 51.9693 116.659 49.7113C121.412 57.2838 121.916 59.3459 124.223 64.5547C122.999 58.9546 125.745 65.6416 129.969 70.7544C132.061 73.274 129.168 64.184 127.869 61.4052C127.873 61.4114 127.877 61.4176 127.881 61.4238ZM185.294 156.005C185.456 154.289 185.461 152.671 185.561 150.992C186.041 149.276 186.529 147.552 187.008 145.837C187.362 145.714 187.719 145.63 188.072 145.469C188.838 143.239 188.168 143.996 188.332 143.316C188.334 143.316 188.335 143.316 188.337 143.317C190.69 133.556 191.914 129.667 195 122.349C194.107 122.093 193.214 121.837 192.321 121.58C191.911 123.33 191.51 125.021 191.092 126.76C191.311 127.79 191.525 128.834 191.736 129.882C190.897 131.755 190.054 133.636 189.21 135.499C188.913 137.123 188.532 139.051 188.29 140.462C183.459 147.515 190.475 130.287 189.467 129.832C188.856 129.522 183.527 147.379 183.196 150.083C183.15 150.473 186.169 147.179 183.227 153.412C182.767 154.386 178.653 153.532 179.764 161.553C179.921 162.694 183.467 159.945 185.294 156.005ZM197.676 86.1309C198.964 85.8587 200.822 86.4457 201.646 87.3237C202.534 88.1822 202.767 88.9735 202.861 89.2899C203.075 90.0641 203.058 90.6326 203.019 90.8247C202.941 91.3156 202.823 91.4156 202.717 91.2523C202.662 91.1694 202.606 91.0183 202.536 90.8029C202.461 90.5696 202.359 90.1312 202.122 89.6035C202.002 89.3215 201.186 87.5239 199.19 87.2324C197.078 87.1089 196.742 87.7417 196.037 88.1609C193.153 90.4122 189.042 94.4089 186.637 96.2677C185.438 97.2213 184.721 97.6576 184.823 97.7555C184.924 97.8294 185.881 97.6368 188.298 96.0731C185.588 99.8055 186.112 99.5119 190.496 97.2116C190.893 97.0145 188.573 99.4336 188.794 99.2763C192.728 96.8203 196.346 92.8264 197.121 93.7136C197.735 93.1341 198.329 92.6015 198.944 92.0967C199.01 92.0377 199.034 92.0253 198.972 92.0426C198.96 92.0401 198.64 92.1642 198.218 92.0205C198.48 92.0819 198.698 92.0427 198.807 91.9994C198.927 91.9512 198.917 91.924 198.928 91.8983C198.933 91.8494 198.856 91.8429 198.768 91.8584C197.885 92.1444 197.839 91.8345 198.27 91.1841C198.376 91.0256 198.481 90.8951 198.554 90.8121C198.657 90.7496 198.61 90.6108 198.808 90.7721C199.116 91.0545 199.292 91.8443 199.396 92.4698C199.601 93.8691 199.632 95.2445 199.732 96.2833C199.886 97.7849 200.54 94.4772 200.69 95.7435C200.774 96.2926 199.636 100.715 199.923 100.991C200.59 101.509 202.489 99.2057 203.707 93.7618C203.707 93.7618 203.708 93.7619 203.709 93.762C203.74 92.9512 203.764 92.34 203.651 91.2062C203.636 91.077 203.618 90.9462 203.597 90.8129C203.575 90.6746 203.556 90.5652 203.511 90.3451C203.426 89.9506 203.31 89.5239 203.093 89.0336C202.948 88.6856 202.366 87.5552 201.319 86.8651C200.277 86.1034 198.674 85.8907 197.676 86.1309ZM236.131 165.386C236.147 165.807 236.587 166.253 237.183 166.493C237.768 166.745 238.407 166.825 238.583 166.98C238.757 167.116 238.509 167.44 237.265 167.678C236.653 167.765 235.708 167.841 234.613 167.245C233.511 166.659 232.585 165.265 232.149 163.511C232.011 164.273 231.955 165.114 232.085 166.009C232.722 167.309 234.098 168.545 235.64 168.856C237.164 169.194 238.551 168.925 239.804 168.548C239.96 168.389 240.115 168.231 240.269 168.076C245.635 162.262 257.641 159.566 249.336 161.165C248.388 161.358 243.89 164.327 248.063 160.901C248.057 160.904 248.05 160.907 248.043 160.91C243.714 163.651 242.01 164.686 239.39 165.53C238.354 165.857 236.872 166.009 236.131 165.386ZM220.484 126.107C218.069 129.077 218.016 130.275 218.394 130.198C218.628 130.157 219.093 129.785 219.653 129.296C220.261 128.762 221.078 127.955 221.878 127.443C223.382 126.478 225.927 125.773 227.693 126.565C228.494 126.943 229.102 128.698 229.452 129.979C229.821 131.331 230.067 132.592 230.274 133.559C230.673 135.492 230.934 136.285 230.973 134.749C230.972 134.594 230.834 133.291 230.522 131.501C230.127 129.788 229.962 127.132 228.106 125.768C225.179 124.452 222.19 125.946 221.098 126.273C220.704 126.384 220.45 126.392 220.484 126.107ZM312.863 192.476C307.469 186.602 305.812 187.507 305.967 188.479C306.114 189.458 310.316 192.97 310.716 193.57C312.036 195.462 308.592 192.046 310.29 194.515C310.921 195.281 319.405 205.962 319.825 206.428C322.369 208.829 320.153 204.042 320.918 204.705C323.404 206.846 325.677 210.701 326.83 210.923C329.329 211.461 322.827 206.259 321.906 205.209C319.15 202.059 320.054 201.759 318.136 199.262C316.206 196.767 314.603 195.42 312.77 193.321C312.157 192.622 313.131 192.776 312.863 192.476ZM291.276 177.292C296.42 180.16 290.566 174.052 285.119 170.558C283.084 169.212 281.373 167.985 280.767 167.683C277.14 165.782 280.066 169.194 284.165 172.219C286.973 174.245 289.873 176.546 291.276 177.292ZM194.48 115.482C193.342 122.968 198.821 106.332 199.454 101.296C198.942 102.17 194.904 112.933 194.48 115.482ZM178.722 176.556C178.87 175.925 178.981 175.391 179.044 174.978C179.229 173.661 178.822 173.786 178.163 174.716C177.022 176.484 175.014 180.404 175.086 183.648C175.135 183.738 175.181 183.794 175.232 183.883C175.285 183.983 175.338 184.064 175.39 184.129C175.494 184.259 175.592 184.325 175.673 184.355C175.834 184.409 175.934 184.351 175.984 184.284C176.064 184.122 176.231 184.181 176.239 184.085C176.184 183.775 176.158 182.245 176.574 180.376C177.396 176.978 177.668 181.505 178.722 176.556ZM325.227 265.049C325.353 265.273 325.697 265.97 326.607 266.653C327.219 267.146 328.154 267.275 328.7 267.17C329.276 267.077 329.656 266.886 329.982 266.702C330.618 266.326 331.063 265.908 331.49 265.459C332.329 264.56 333.036 263.52 333.633 262.346C336.485 256.138 338.097 249.071 334.578 257.451C334.421 257.765 333.737 259.517 332.556 261.736C332.111 262.539 331.556 263.36 330.865 264.136C330.516 264.523 330.138 264.901 329.669 265.238C329.433 265.405 329.173 265.568 328.833 265.684C328.513 265.795 327.948 265.876 327.479 265.518C325.352 263.659 325.875 261.135 325.917 259.604C326.071 257.986 326.289 256.871 326.297 256.568C326.37 255.264 325.875 256.055 325.312 257.747C324.843 259.443 323.893 262.086 325.227 265.049ZM187.265 165.458C186.14 169.067 183.982 171.941 187.079 170.072C187.081 170.068 187.084 170.064 187.087 170.06C182.002 177.672 179.373 176.146 178.295 177.562C174.131 182.41 179.763 179.436 177.348 182.737C183.566 175.327 182.643 177.954 187.363 171.995C188.45 170.582 191.751 164.555 191.933 163.399C192.101 162.28 188.82 164.307 187.265 165.458ZM321.482 260.42C325.691 253.705 328.179 246.649 322.03 255.879C319.169 260.521 318.929 264.577 321.482 260.42ZM105.323 124.861C105.516 123.542 105.702 122.208 105.862 120.795C106.319 122.356 106.778 123.937 107.22 125.471C107.601 126.801 107.963 128.062 108.334 129.377C107.929 128.071 107.535 126.819 107.12 125.495C106.824 124.559 106.513 123.574 106.207 122.612C106.449 123.742 106.63 124.769 106.739 125.588C107.148 128.584 106.779 129.421 105.632 125.858C105.536 125.564 105.435 125.238 105.326 124.875C105.325 124.87 105.324 124.866 105.323 124.861ZM74.2033 201.508C74.7233 198.902 72.8722 193.872 72.7889 194.546C72.342 199.405 73.4943 205.06 74.2033 201.508ZM201.709 105.886C204.063 96.6257 200.294 102.534 198.701 108.051C200.026 104.717 200.293 111.044 201.709 105.886ZM95.5897 206.416C96.1039 205.758 96.6156 205.085 97.1553 204.316C95.7892 206.866 95.3877 207.213 95.5897 206.416ZM333.172 267.013C333.674 266.59 334.836 265.421 335.898 263.629C338.064 259.944 339.994 254.637 340.181 253.535C340.672 250.487 336.892 258.078 334.684 262.823C334.673 262.847 334.66 262.88 334.645 262.919C334.458 263.398 333.957 264.711 333.425 265.756C332.913 266.798 332.361 267.657 333.195 266.989C333.187 266.997 333.179 267.005 333.172 267.013ZM107.298 137.244C107.317 137.223 107.341 137.226 107.367 137.25C107.343 137.245 107.322 137.252 107.298 137.244ZM39.3817 332.51C39.3911 332.442 39.4117 332.398 39.4471 332.389C39.4247 332.424 39.4104 332.481 39.3817 332.51ZM319.698 196.074C319.125 191.848 312.548 186.549 316.134 192.154C316.335 192.455 319.145 195.421 319.698 196.074Z" fill="#E4E4E4"/>
<circle cx="102.017" cy="333.682" r="17" fill="#E4E4E4" stroke="#E4E4E4"/>
<circle cx="242.017" cy="333.682" r="17" fill="#E4E4E4" stroke="#E4E4E4"/>
</svg>
