<svg width="520" height="594" viewBox="0 0 520 594" fill="none" xmlns="http://www.w3.org/2000/svg">
<path d="M158 263.949C173.5 263.949 122.497 115.647 272.5 43.6503C300 30.4511 238.5 98.6502 279 157.65C325.086 224.789 322.067 191.838 341.397 260.306C341.628 261.125 342.74 261.347 343.206 260.634C378.107 207.253 361.061 154.872 395.5 168.65C420.5 178.653 505.19 272.141 468 403.65C454 453.155 400.5 548.949 258 551.949C115.5 554.949 42.0001 438.152 42 357.15C41.9999 287.134 92 216.65 110 208.65C128 200.65 131.425 263.949 158 263.949Z" fill="white" stroke="white" stroke-width="84"/>
<path d="M158 263.949C173.5 263.949 122.497 115.647 272.5 43.6503C300 30.4511 238.5 98.6502 279 157.65C325.086 224.789 322.067 191.838 341.397 260.306C341.628 261.125 342.74 261.347 343.206 260.634C378.107 207.253 361.061 154.872 395.5 168.65C420.5 178.653 505.19 272.141 468 403.65C454 453.155 400.5 548.949 258 551.949C115.5 554.949 42.0001 438.152 42 357.15C41.9999 287.134 92 216.65 110 208.65C128 200.65 131.425 263.949 158 263.949Z" fill="white" stroke="black" stroke-width="21"/>
<circle cx="182" cy="367.993" r="26" fill="black"/>
<circle cx="297" cy="367.993" r="26" fill="black"/>
</svg>
