<svg width="347" height="450" viewBox="0 0 347 450" fill="none" xmlns="http://www.w3.org/2000/svg">
<path d="M272.117 132.663C272.918 138.672 273.929 144.689 275.34 150.391C283.512 175.69 302.546 204.032 316.722 232.045C323.743 244.065 324.877 261.943 324.977 270.613C325.042 271.045 325.124 271.405 325.155 271.514C325.155 271.607 325.249 271.484 324.553 270.464C324.194 269.972 323.509 269.174 322.343 268.484C321.198 267.784 319.677 267.427 318.729 267.412C316.784 267.422 316.779 267.715 317.382 267.464C321.841 266.103 327.438 264.352 334.658 265.846C340.913 267.445 342.895 271.664 343.953 273.644C345.02 275.902 345.443 277.619 345.82 279.23C346.727 283.349 346.382 286.923 345.801 289.99C343.406 299.509 342.508 297.945 341.579 300.281C338.681 306.018 337.447 309.465 335.079 313.19C327.648 324.637 319.373 334.472 312.588 343.939C312.565 343.969 312.581 343.946 312.642 343.835C312.676 343.774 312.739 343.656 312.816 343.488C312.9 343.297 312.97 343.168 313.141 342.633C313.216 342.387 313.295 342.091 313.361 341.724C313.423 341.347 313.495 340.982 313.49 340.123C313.492 338.633 312.918 335.955 310.712 333.921C308.411 331.954 307.128 331.927 306.068 331.71C305.154 331.598 304.784 331.641 304.404 331.666C304.031 331.702 303.923 331.727 303.775 331.755C303.644 331.781 303.562 331.803 303.527 331.813C303.443 331.838 303.463 331.836 303.512 331.822C303.625 331.789 303.861 331.704 304.137 331.593C305.252 331.146 306.75 330.43 308.22 329.713C311.243 328.249 314.258 326.648 318.129 325.036C318.909 324.72 319.739 324.403 320.703 324.107C321.783 323.826 322.551 323.431 325.213 323.385C329.643 323.179 334.902 326.749 336.265 329.607C337.894 332.452 338.005 334.167 338.176 335.493C338.353 337.999 337.987 338.811 337.732 339.368C337.133 340.34 336.709 340.082 336.108 343.884C332.38 358.703 337.515 346.568 336.822 352.574C334.432 361.247 331.346 369.01 326.949 377.049C322.925 383.174 319.819 384.615 316.501 387.319C313.226 389.741 310.009 391.916 306.76 394.076C309.848 391.63 312.903 389.178 316.022 386.485C310.237 390.837 301.824 396.041 310.983 388.747C308.76 390.107 306.654 391.296 304.372 392.633C304.338 393.891 294.227 400.784 293.628 401.871C293.018 402.985 298.663 399.059 298.66 399.118C298.678 399.631 290.47 404.903 283.303 409.355C278.15 412.571 273.445 415.252 272.707 415.668C267.95 418.329 271.4 414.787 267.476 417.252C260.725 421.391 266.535 420.962 255.548 423.335C252.342 426.327 251.723 426.038 246.898 428.472C246.258 428.792 247.038 429.093 246.766 429.252C239.657 433.39 244.759 429.495 244.7 429.455C243.543 428.873 235.911 433.154 234.157 433.821C222.013 438.637 211.523 442.244 200.16 444.937C191.359 446.914 182.139 448.538 171.397 449.146C166.136 449.752 149.804 449.393 144.762 447.651C139.787 446.249 142.671 446.169 140.229 445.074C137.804 445.309 135.477 445.072 132.621 443.604C132.565 443.573 132.407 443.467 132.355 443.428C130.435 442.084 127.907 440.299 124.156 438.003C120.477 437.927 121.361 436.986 115.036 435.112C113.368 434.639 111.265 434.215 108.99 433.809C108.986 433.808 108.975 433.805 108.972 433.804C103.862 432.942 97.9361 431.069 94.442 428.619C100.97 431.328 100.523 430.684 108.347 432.62C108.532 432.663 108.834 432.739 109.242 432.846C109.245 432.846 109.252 432.848 109.254 432.849C113.775 433.684 129.984 439.68 133.395 442.061C133.409 442.072 133.454 442.103 133.471 442.112C134.232 442.37 134.628 442.365 134.451 442.05C134.363 441.896 134.133 441.694 133.838 441.466C132.084 439.514 125.628 436.883 125.387 436.714C123.794 435.198 128.989 436.23 132.801 439.081C131.728 438.573 130.452 438.023 129.287 437.587C132.522 439.726 133.771 440.403 134.55 440.542L134.415 440.452C135.663 440.426 134.881 439.522 138.516 443.154C139.244 443.838 138.789 444.133 140.149 445.021C140.504 444.953 138.813 443.947 140.411 444.383C142.024 444.839 144.976 446.396 145.591 445.803C146.49 445.04 139.694 443.686 139.252 443.344C139.245 443.348 139.238 443.352 139.23 443.356C135.114 441.337 144.118 444.385 144.641 444.206C147.647 444.222 145.79 443.395 150.16 443.623C152.637 443.778 158.916 444.47 161.272 444.377C163.608 444.329 159.994 443.772 161.559 443.705C163.128 443.639 165.047 444 166.897 443.826C167.682 443.749 167.615 443.216 167.992 443.184C172.043 442.776 169.436 444.044 173.134 443.703C175.549 443.517 183.408 441.398 177.864 441.82C180.504 441.386 183.017 440.92 185.631 440.36C183.938 440.507 182.24 440.675 180.608 440.723C185.54 440.243 187.617 438.869 190.605 438.163C193.066 437.568 195.475 437.722 198.049 437.016C198.583 436.868 199.194 436.655 199.744 436.394C202.734 434.97 200.862 435.386 197.82 436.156C193.976 437.143 188.165 438.489 186.922 438.592C186.054 438.683 189.168 437.195 189.649 437.057C191.868 436.477 194.624 436.444 196.322 435.975C196.782 435.848 197.23 435.719 197.668 435.586C202.772 433.997 206.117 432.097 211.278 430.006C230.412 422.261 253.113 409.511 269.606 398.628C271.34 397.495 272.871 396.564 274.304 395.728C278.06 393.533 280.839 392.256 282.868 390.888C289.401 386.474 289.775 385.28 295.372 381.419C298.388 379.324 301.864 377.008 305.212 374.636C306.875 373.454 308.493 372.264 309.866 371.143C310.549 370.586 311.163 370.048 311.621 369.607C312.075 369.185 312.373 368.779 312.266 369.01C313.559 366.84 314.727 364.468 315.614 362.497C317.896 357.444 318.656 352.449 319.019 351.132C319.973 347.753 320.777 344.145 320.964 341.204C321.085 339.804 320.864 338.433 320.877 338.676C320.906 338.776 321.188 339.633 322.277 340.503C323.364 341.385 324.68 341.586 325.009 341.571C325.815 341.573 326.109 341.491 326.243 341.471C326.386 341.442 326.373 341.442 326.323 341.459C326.215 341.493 325.932 341.593 325.606 341.725C324.958 341.987 324.151 342.353 323.32 342.75C321.652 343.547 319.865 344.468 318.039 345.4C316.191 346.338 314.347 347.294 312.157 348.276C310.918 348.783 310.188 349.262 307.398 349.92C306.562 350.013 305.882 350.44 302.849 349.947C302.006 349.766 301.038 349.477 299.883 348.818C298.542 348.063 297.102 346.719 296.221 345.117C294.558 342.169 294.962 339.317 295.1 338.526C295.584 336.165 296.016 335.679 296.392 334.894C296.729 334.281 296.983 333.89 297.28 333.454C300.898 328.223 304.257 323.915 307.156 319.997C312.092 313.379 314.935 310.75 315.866 309.36C319.744 303.407 318.1 304.58 321.047 299.859C322.573 297.307 323.411 297.159 323.626 296.828C325.405 293.893 324.832 292.877 325.698 290.63C326.936 287.447 327.325 284.293 327.073 283.522C326.911 282.733 326.676 282.06 326.673 282.048C326.69 282.05 326.756 282.256 327.258 282.797C327.722 283.31 328.947 284.263 330.533 284.585C329.512 284.22 326.657 284.486 323.287 285.56C322.512 285.741 321.145 286.456 317.961 286.402C314.641 286.513 310.343 283.623 309.183 281.592C306.581 277.527 306.714 275.595 306.287 273.56C305.715 268.729 305.974 266.139 305.787 263.105C305.734 261.984 306.146 262.056 306.076 261.339C305.715 258.297 305.23 259.753 304.776 256.701C303.89 251.305 302.308 246.079 299.706 240.969C299.201 239.979 298.694 238.99 298.185 238.003C297.833 237.319 298.128 236.751 297.294 235.18C296.462 233.616 295.376 232.641 294.078 230.167C290.671 223.678 287.715 217.043 283.984 210.186C283.367 209.051 282.04 207.953 281.113 206.249C278.2 200.906 274.368 192.669 271.934 187.978C266.447 177.202 260.86 167.356 257.382 154.821C256.054 149.611 255.088 144.467 254.312 139.308C253.727 135.389 253.901 131.878 253.687 129.854C253.221 125.298 253.027 128.791 252.566 124.174C251.509 113.049 250.978 101.954 250.785 90.8424C250.776 90.2606 250.766 89.6875 250.754 89.1323C250.748 88.8531 250.742 88.5808 250.735 88.3324C250.732 88.2195 250.728 88.0966 250.725 88.0266C250.724 88.0022 250.721 87.9662 250.727 88.0502C250.735 88.1224 250.723 88.1004 250.783 88.5401C250.791 88.5951 250.801 88.6581 250.814 88.7329C250.821 88.774 250.852 88.9662 250.922 89.2637C251.003 89.5723 251.078 89.9597 251.452 90.8096C251.55 91.0253 251.673 91.2747 251.846 91.5738C251.933 91.7235 252.033 91.8854 252.153 92.0621C252.212 92.1506 252.277 92.2423 252.347 92.3382C252.533 92.5922 252.811 92.9382 253.157 93.2887C253.849 93.9846 254.958 94.8979 256.703 95.4525C258.423 96.0306 260.687 95.9335 262.266 95.3061C265.488 93.9511 266.136 92.3622 266.668 91.6202C266.909 91.21 267.052 90.8994 267.163 90.6429C267.195 90.5674 267.219 90.5089 267.244 90.4473C267.292 90.3265 267.332 90.2193 267.366 90.122C267.434 89.9279 267.482 89.7732 267.52 89.6413C267.595 89.3789 267.634 89.2043 267.664 89.0642C267.727 88.7573 267.726 88.7335 267.741 88.6438C267.787 88.3418 267.783 88.3288 267.789 88.2813C267.792 88.245 267.792 88.2472 267.791 88.2514C267.79 88.2636 267.786 88.3129 267.782 88.3608C267.774 88.4698 267.765 88.599 267.756 88.738C267.737 89.0168 267.717 89.3185 267.695 89.6262C267.652 90.2448 267.603 90.8889 267.539 91.5709C267.355 93.2689 267.194 94.8889 266.323 97.3767C265.744 98.632 265.51 100.289 262.4 102.852C260.846 104.116 257.797 105.08 255.484 104.734C253.149 104.447 251.793 103.626 250.837 103.016C247.624 100.643 247.19 99.4457 246.111 98.0472C245.211 96.7365 244.477 95.5064 243.813 94.3534C242.466 92.0015 241.296 89.7411 240.156 87.5197C237.896 83.0967 235.755 78.7534 233.534 74.6221C231.322 70.5175 228.969 66.4483 226.6 63.5091C226.038 62.815 225.455 62.1833 225.003 61.7794C224.582 61.3776 224.219 61.2535 224.683 61.4487C224.917 61.5346 225.419 61.6707 226.084 61.6452C226.733 61.6317 227.482 61.4022 227.886 61.1822C228.762 60.686 228.605 60.5718 228.374 60.9593C229.259 59.5966 229.351 58.9002 229.45 58.5922C229.517 58.3249 229.538 58.1811 229.55 58.1015C229.569 57.9669 229.559 58.0246 229.553 58.1283C229.54 58.3131 229.527 58.6958 229.521 59.07C229.508 59.8488 229.512 60.7418 229.515 61.6599C229.514 67.1872 229.68 73.5715 228.301 80.7661C227.528 84.3674 226.528 88.3776 223.328 92.6453C220.315 97.1016 213.036 100.137 208.03 99.4722C202.965 98.91 201.246 96.1758 200.314 95.0927C199.361 93.7811 198.988 92.9494 198.605 92.1242C197.919 90.5689 197.56 89.3843 197.223 88.25C196.578 86.0099 196.16 84.0881 195.769 82.2616C194.544 76.4297 195.122 75.3296 194.13 71.705C193.801 70.5518 193.469 69.6459 193.145 68.9256C191.35 64.8061 190.007 63.163 187.567 57.3788C185.173 51.7198 183.249 44.8279 180.604 38.8092C177.984 32.7184 175.828 30.4848 173.035 22.6313C172.119 19.6766 170.917 16.3862 170.909 10.7959C170.928 10.2074 170.951 9.68647 170.962 9.35417C170.97 9.21354 170.961 9.03407 170.99 9.33925C171.001 9.43228 171.01 9.54442 171.062 9.85371C171.093 10.0217 171.108 10.129 171.208 10.5263C171.256 10.708 171.317 10.9221 171.408 11.1858C171.454 11.3178 171.508 11.4622 171.573 11.6222C171.609 11.7097 171.63 11.7609 171.69 11.8967C171.751 12.0335 171.821 12.1808 171.902 12.3395C172.235 12.9682 172.719 13.823 173.798 14.8434C174.48 15.7151 178.165 17.7829 181.09 17.2455C181.815 17.1635 182.479 16.9998 183.058 16.7991C183.506 16.6421 183.798 16.5123 184.116 16.3565C184.732 16.0517 185.214 15.731 185.605 15.4336C186.369 14.8519 186.869 14.2745 187.099 13.9956C187.855 13.0492 188.028 12.5911 188.125 12.4191C188.346 11.9571 188.335 11.9311 188.359 11.8688C188.368 11.8351 188.357 11.8573 188.338 11.9042C188.304 11.9896 188.246 12.1606 188.187 12.3445C188.069 12.7142 187.942 13.1509 187.812 13.6164C187.303 15.4544 186.836 17.4043 186.446 19.219C185.91 21.7244 185.391 24.2482 184.877 26.7794C178.564 58.2517 172.64 89.7555 165.883 121.288C164.732 126.6 163.564 131.866 162.245 137.243C161.574 139.951 160.89 142.632 160.019 145.519C159.576 146.961 159.104 148.456 158.374 150.232C157.991 151.135 157.574 152.117 156.735 153.48C155.955 154.689 154.328 157.161 150.846 158.674C148.023 159.932 144.671 159.811 142.559 159.161C140.374 158.522 138.965 157.621 137.816 156.788C135.566 155.083 134.255 153.475 133.012 151.629C128.365 143.586 127.551 139.214 124.776 134.664C124.563 134.276 124.361 134.029 124.468 134.142C124.585 134.205 125.075 134.944 127.052 135.453C129.098 135.996 131.397 135.088 131.887 134.663C132.512 134.215 132.388 134.193 132.231 134.408C130.371 136.772 128.371 139.749 126.425 142.696C114.007 158.915 107.73 183.304 77.2538 193.323C74.2591 193.684 72.7741 193.052 71.7209 192.754C70.6986 192.408 70.0579 192.118 69.918 192.053C69.8493 192.016 70.0998 192.045 70.2813 192.017C70.4721 191.993 70.5904 191.933 70.6992 191.867C70.8237 191.797 70.9116 191.743 71.4722 191.669C71.7634 191.62 72.1923 191.597 73.0736 191.337C73.9022 191.105 75.4848 190.354 76.525 189C77.2952 188.01 77.4662 187.451 77.6059 187.1C77.7288 186.751 77.7501 186.605 77.7494 186.587C77.7568 186.504 77.728 186.57 77.6871 186.78C77.6263 187.062 77.5319 187.78 77.4673 188.602C77.1893 192.01 77.6076 197.144 76.9104 205.639C76.1577 214.574 75.2616 223.653 73.6459 233.012C72.7953 237.724 71.889 242.407 70.0281 247.634C68.8801 250.269 68.4401 253.049 64.0114 257.094C61.7416 259.43 55.3684 260.53 52.1716 258.604C50.7223 257.933 49.5573 257.039 48.7152 256.271C47.9535 255.576 47.2862 254.841 46.6643 254.064C44.0147 250.726 41.6654 247.322 39.4421 244.128C38.3335 242.538 37.2475 240.988 36.2378 239.687C35.7381 239.043 35.2528 238.465 34.8929 238.088C34.7221 237.907 34.5769 237.776 34.5677 237.762C34.5683 237.743 34.6672 237.864 35.2957 238.109C35.7157 238.218 35.7566 238.292 36.6896 238.14C37.137 238.046 37.8433 237.805 38.5503 237.255C39.2611 236.718 39.8207 235.905 40.055 235.317C40.1767 234.981 40.0564 235.236 39.9935 235.595C39.9179 235.981 39.853 236.46 39.8001 237.025C39.6979 238.106 39.6508 239.409 39.6375 240.705C39.612 243.328 39.7069 246.147 39.8265 248.933C40.073 254.557 40.444 260.333 40.673 266.178C40.8829 272.054 41.0663 277.95 40.4689 284.347C40.0854 287.585 39.7986 290.874 37.7849 295.157C36.7296 297.232 34.8102 300.207 30.8317 301.692C26.8444 303.075 23.6276 302.114 21.3804 301.209C20.2242 300.727 19.2397 300.2 18.3329 299.667C14.8884 297.6 12.374 295.433 9.97752 293.53C8.8094 292.593 7.65378 291.684 6.82978 291.155C6.63409 291.029 6.4645 290.932 6.38483 290.895C6.31304 290.858 6.30539 290.888 6.65051 291.013C6.98796 291.086 7.83924 291.539 9.9149 291.03C10.9086 290.773 12.0557 290.082 12.7168 289.396C13.4342 288.67 13.741 288.087 13.9577 287.627C12.1164 296.09 16.6882 312.566 22.7806 324.685C34.4034 348.688 46.4679 371.713 64.4046 386.593C85.1765 404.048 104.887 422.215 123.208 436.639C124.331 437.421 123.931 437.939 123.693 438.635C123.387 439.3 122.317 439.678 121.329 439.546C119.997 438.354 118.851 437.047 117.545 435.643C114.061 436.862 114.712 436.539 107.567 431.387C103.195 428.162 106.036 431.639 103.482 430.278C100.093 428.561 85.0882 419.026 88.9756 419.548C87.8849 419.132 86.9101 418.783 85.8646 418.386C75.7612 410.94 66.1014 403.668 56.3563 396.211C56.1038 396.017 55.8523 395.822 55.6018 395.627C53.8638 394.257 53.3865 394.637 51.6231 393.147C46.9176 389.098 43.8678 385.173 39.8981 380.227C37.7748 377.517 36.9051 377.541 34.3694 373.798C31.897 370.018 32.7157 369.623 28.6941 364.914C29.6323 368.984 21.5425 353.097 18.8948 347.445C18.4789 346.655 14.2918 340.374 12.7685 336.719C12.0302 334.973 11.2205 332.74 10.2648 330.266C9.1995 327.521 8.04273 324.504 6.72037 321.487C5.53781 318.764 4.17916 317.319 3.20539 314.199C2.52639 311.994 2.5336 309.146 1.98397 306.29C1.35479 303.46 0.0303054 297.147 0.0325694 295.883C-0.150542 291.5 0.490911 296.317 0.45992 293.336C0.57605 289.968 0.433737 287.162 2.20957 282.382C2.63491 281.121 4.75219 278.784 7.10021 278.53C9.29173 278.236 10.3456 278.757 11.1938 279.053C12.8205 279.743 13.6649 280.391 14.544 281.009C16.2301 282.247 17.569 283.413 18.9179 284.533C21.5324 286.727 24.227 288.858 26.2247 289.677C26.6973 289.874 26.9604 289.877 26.8891 289.864C26.8237 289.833 26.3753 289.963 26.2759 290.053C26.0887 290.271 26.7476 289.309 27.0038 288.127C27.2817 286.994 26.2622 288.374 26.2868 288.187C26.9359 284.426 26.8171 282.896 27.06 282.756C27.2509 282.533 27.5348 283.176 27.9064 281.921C29.0114 279.607 27.8049 259.538 26.6492 259.414C27.9262 258.722 26.6337 254.246 26.5246 253.078C26.1042 248.462 27.2756 249.332 26.7351 244.8C26.5474 243.093 25.8951 246.43 25.8526 244.61C25.9845 240.334 26.0033 237.497 28.4619 230.305C29.0018 229.098 30.0398 227.771 31.3655 226.938C34.4613 225.362 35.5725 224.556 39.9843 225.831C40.0215 225.846 40.0587 225.86 40.0958 225.875C43.3392 227.209 45.4625 230.365 46.9824 232.294C48.4666 234.27 49.3883 235.359 48.3691 232.997C51.4987 238.791 52.4456 239.57 56.7429 245.092C56.8657 245.246 56.9843 245.413 57.102 245.59C57.2729 245.864 57.4103 246.12 57.5099 246.328C57.5901 246.524 57.7249 246.73 57.6472 246.769C57.6005 246.833 57.2137 246.694 56.5951 246.809C55.9769 246.936 55.7899 247.21 55.9037 247.002C56.1334 246.569 55.4358 246.168 56.0157 245.023C57.447 241.929 59.3176 237.968 60.3649 232.464C62.2828 222.065 62.6915 210.506 63.8613 199.238C64.1768 196.205 64.9657 197.017 65.3671 192.526C65.3942 192.225 65.3429 190.789 65.3495 188.978C65.3471 188.135 65.3755 187.051 65.4293 186.141C65.4744 185.55 65.5092 185.114 65.5916 184.541C65.6417 184.211 65.697 183.901 65.7726 183.579C65.7953 183.486 65.8 183.46 65.8456 183.294C65.8892 183.138 65.9395 182.974 66.0066 182.787C66.1574 182.409 66.2851 181.963 66.9144 181.159C67.4322 180.513 68.1935 179.928 68.9443 179.598C70.1645 179.024 71.6166 179.024 72.4731 179.189C73.3653 179.349 73.9686 179.59 74.4751 179.788C74.9745 179.989 75.3829 180.169 75.6264 180.266C75.8559 180.383 75.9427 180.307 75.2621 180.406C77.5834 180.28 80.571 178.848 81.4045 178.327C83.8059 176.854 83.6675 175.804 84.9941 174.928C88.7493 172.16 86.9262 175.65 89.7443 170.359C91.7224 169.62 93.8992 166.885 95.4759 166.729C95.7733 164.358 98.3447 163.016 100.326 159.51C102.302 156.004 102.075 151.931 104.789 152.564C105.573 150.84 109.431 143.786 110.115 142.61C112.157 139.163 111.634 141.344 113.163 138.74C113.441 138.273 112.713 138.486 114.614 135.598C115.304 134.586 118.113 130.065 121.265 125.968C122.113 124.891 123.098 123.788 124.652 122.858C126.144 121.904 128.611 121.466 130.358 121.997C133.797 123.132 134.398 124.643 134.707 124.831C135.782 126.163 136.224 127.097 136.553 127.751C137.314 129.41 137.037 129.114 136.268 127.918C135.269 126.766 134.348 123.608 129.319 122.559C126.775 122.289 124.871 123.59 123.926 124.438C122.912 125.354 122.403 126.124 122.106 126.616C122.071 126.68 122.041 126.739 122.016 126.792C121.638 127.055 121.259 127.327 120.856 127.642C117.677 131.72 120.288 129.925 121.847 128.221C122.14 127.902 122.45 127.524 122.767 127.124C123.626 126.078 124.664 124.689 126.69 123.885C128.803 123.006 131.178 124.034 131.877 124.796C132.378 125.278 132.18 125.629 131.594 125.592C130.991 125.622 130.012 124.991 128.094 125.07C129.119 125.079 129.457 125.382 129.496 125.48C129.534 125.6 129.28 125.63 128.987 125.697C128.373 125.816 127.747 126.183 128.324 126.287C128.586 126.351 129.352 126.407 130.18 127.052C131.015 127.676 131.861 128.806 132.586 130.079C134.593 133.535 136.442 137.55 136.854 137.415C135.864 135.092 134.472 132.269 133.208 130.051C133.189 129.933 133.18 129.827 133.18 129.731C133.181 129.144 133.548 128.942 134.195 129.135C136.65 129.553 142.148 136.518 143.592 142.759C143.824 143.589 143.93 144.081 143.946 144.411C143.981 145.274 143.334 145.002 143.298 145.261C143.287 145.389 143.432 145.7 144.004 146.286C144.287 146.569 144.697 146.929 145.193 147.199C145.435 147.331 145.702 147.43 145.88 147.443C146.071 147.458 146.06 147.388 146.013 147.365C145.972 147.354 145.916 147.382 145.98 147.279C146.037 147.18 146.153 146.974 146.274 146.698C146.128 146.943 145.983 147.126 145.903 147.197C145.813 147.274 145.86 147.198 145.925 147.159C146.022 147.08 146.131 147.117 145.888 147.002C145.671 146.89 145.305 146.63 144.944 146.28C145.168 145.92 145.511 146.197 145.818 146.455C145.966 146.584 146.097 146.689 146.091 146.736C146.093 146.781 145.91 146.822 145.804 146.876C145.714 146.913 145.622 146.966 145.59 146.941C145.561 146.907 145.379 146.816 145.645 146.505C145.761 146.33 145.978 146.189 146.019 146.078C146.065 145.985 145.994 145.784 145.393 145.914C145.198 145.961 144.91 146.141 144.832 146.205C144.875 146.42 145.149 146.291 145.367 146.073C145.593 145.853 145.813 145.516 145.996 145.157C146.373 144.41 146.632 143.529 146.858 142.527C147.309 140.514 147.615 138.075 148.433 134.759C148.213 136.657 147.98 138.534 147.702 140.405C151.689 129.589 144.963 155.468 151.327 133.941C150.726 136.592 150.049 139.225 149.352 141.835C150.21 140.696 151.026 143.174 151.667 142.099C153.341 139.303 153.981 134.632 154.914 130.935C155.327 129.294 155.479 130.405 155.513 130.269C156.068 128.059 155.386 128.41 155.794 126.439C156.091 125.001 156.948 121.986 157.637 119.494C158.115 117.774 158.526 116.253 158.6 115.779C159.084 112.736 156.884 117.479 156.859 117.18C156.722 115.167 158.008 111.358 157.25 111.399C156.928 113.428 156.394 116.191 155.773 119.089C153.448 129.965 149.863 142.434 153.342 123.053C150.731 129.376 149.599 127.321 151.419 118.142C151.456 117.949 151.496 117.752 151.537 117.551C153.156 109.53 152.68 114.845 154.277 110.808C154.481 110.307 157.075 99.6358 156.691 98.9693C157.746 99.6408 159.487 96.3625 160.181 98.9508C160.286 99.3169 159.293 103.728 160.565 102.387C161.201 101.728 162.705 99.7122 163.237 100.203C163.002 99.2153 162.724 98.1666 162.477 97.1455C163.725 90.5133 164.373 89.6609 165.907 86.2073C165.544 86.3035 163.473 89.3622 164.939 84.371C165.018 84.1124 165.559 83.9971 166.337 81.4648C167.901 76.3537 168.277 75.2944 168.913 79.5974C170.298 68.6279 172.396 66.6305 174.188 55.4694C171.865 57.2747 171.53 61.2753 169.816 71.4843C169.28 71.8327 168.796 71.9486 168.253 72.3101C172.027 59.0199 170.558 65.672 171.218 57.8412C171.38 55.921 173.663 46.003 171.719 49.0662C171.262 49.7834 170.022 56.0051 169.702 55.1885C169.641 55.0305 170.957 47.4655 171.218 46.8098C174.433 38.7822 172.378 53.8876 176.602 30.8336C176.72 30.1928 176.214 29.8941 176.405 28.6129C176.685 26.706 177.184 26.3773 177.501 25.2046C177.572 24.9384 177.636 24.6321 177.688 24.266C177.986 22.168 177.755 19.1229 179.247 16.1934C181.376 12.0658 180.452 19.3012 179.051 25.5354C178.66 27.2454 178.212 28.9232 177.768 30.2091C178.09 30.8776 178.838 28.9903 179.81 25.6976C180.509 23.339 181.33 20.2167 182.212 16.8655C182.655 15.1909 183.113 13.4355 183.597 11.7807C183.723 11.3515 183.841 10.9651 183.958 10.6219C184.011 10.4672 184.073 10.3018 184.095 10.2592C184.101 10.2456 184.111 10.2478 184.012 10.4439C183.996 10.4768 183.935 10.5897 183.854 10.7148C183.812 10.7799 183.762 10.8548 183.697 10.9421C183.621 11.0398 183.593 11.0887 183.374 11.3252C183.178 11.5291 182.91 11.7845 182.468 12.0595C182.246 12.1957 181.979 12.3349 181.656 12.4546C181.214 12.6225 180.547 12.7686 179.871 12.737C178.498 12.7406 177.125 11.7739 176.858 11.4559C176.4 11.012 176.169 10.6337 176.01 10.3458C175.933 10.2058 175.866 10.0582 175.833 9.97994C175.801 9.9074 175.775 9.84145 175.753 9.78094C175.708 9.66001 175.677 9.5608 175.653 9.47675C175.604 9.3042 175.586 9.2115 175.574 9.15172C175.549 9.02386 175.543 8.9677 175.54 8.94709C175.534 8.90122 175.536 8.94058 175.536 8.99759C175.536 9.1086 175.535 9.3036 175.53 9.49693C175.522 9.89901 175.505 10.3595 175.493 10.8509C176.34 22.6831 180.761 29.395 181.026 30.7334C186.291 41.531 178.209 23.2884 178.557 21.8856C178.659 21.3471 181.282 20.8696 178.194 16.2529C177.25 14.8224 178.262 21.4774 176.935 17.6952C175.701 13.7557 176.936 15.1328 176.913 14.8494C176.921 14.2464 176.577 12.5526 176.559 10.8637C176.544 9.85108 176.52 9.12921 176.562 9.00659C176.587 8.93227 176.61 8.86308 176.635 8.83795C176.666 8.82741 176.669 8.78571 176.77 9.09452C176.802 9.18875 176.845 9.31621 176.934 9.50771C177.082 9.771 177.209 10.2612 178.153 10.9421C178.754 11.377 179.841 11.6387 180.658 11.4593C180.86 11.4223 181.055 11.3656 181.21 11.3082C181.318 11.2679 181.419 11.2243 181.511 11.1794C181.695 11.0895 181.846 10.9951 181.973 10.9051C182.474 10.5384 182.631 10.2684 182.688 10.1917C182.839 9.96493 182.875 9.84877 182.879 9.81393C182.888 9.76551 182.881 9.74398 182.868 9.73961C182.732 9.76666 182.503 10.0837 182.309 10.3388C181.911 10.8713 181.557 11.3207 181.238 11.6873C180.61 12.3905 180.151 12.6832 179.972 12.483C179.792 12.2972 179.889 11.6136 180.391 10.5358C180.513 10.2828 180.668 9.97818 180.851 9.67315C180.941 9.5286 181.043 9.36483 181.144 9.23979C181.194 9.17635 181.252 9.10071 181.297 9.06834C181.337 9.03387 181.424 8.9668 181.334 9.15663C181.309 9.1953 181.269 9.29452 181.035 9.48315C180.976 9.52826 180.905 9.57661 180.817 9.62393C180.722 9.67126 180.65 9.71479 180.424 9.77127C180.023 9.8816 179.445 9.7703 179.125 9.54697C178.616 9.19232 178.565 8.94877 178.492 8.8353C178.446 8.74773 178.424 8.69598 178.407 8.66352C178.352 8.56598 178.335 8.64459 178.303 8.71209C178.243 8.85792 178.172 9.08077 178.092 9.30456C177.931 9.76496 177.734 10.2866 177.519 10.8752C177.368 11.3362 177.232 11.8844 177.104 12.3849C178.005 15.4155 178.277 12.3417 178.957 10.8924C179.317 10.1446 179.643 9.78728 179.869 10.9034C179.921 11.1551 179.976 11.4957 180.049 11.924C181.54 18.5697 182.625 23.4845 182.759 24.3561C185.907 34.182 183.193 22.5023 187.454 34.3078C189.886 40.857 182.186 25.1782 188.575 39.8003C193.929 52.0092 191.691 45.1387 193.452 45.4437C193.859 45.5051 197.125 52.0905 193.077 42.9736C192.607 42.8665 191.925 42.5778 191.347 42.1424C190.643 39.7842 190.827 35.2822 190.383 34.0643C188.22 28.1394 187.406 28.7914 187.15 24.9347C186.904 27.8536 186.048 23.5925 185.257 22.1887C183.781 19.5845 183.623 20.0985 183.418 19.6911C183.359 19.3231 182.498 17.6831 182.437 11.5823C181.903 13.1277 181.626 14.7968 181.458 16.5851C181.035 15.0305 180.686 13.4466 180.566 11.865C180.696 11.5972 180.811 11.2589 180.929 10.9161C181.153 10.0933 181.446 9.34993 181.415 7.98348C181.405 7.91804 181.39 7.83638 181.363 7.74531C181.337 7.66816 181.305 7.51535 181.114 7.26568C181.01 7.14823 180.908 6.99602 180.531 6.83917C180.191 6.69134 179.701 6.76562 179.524 6.8542C179.176 7.00083 179.024 7.18951 178.938 7.28117C178.678 7.59317 178.638 7.69816 178.542 7.8593C178.473 7.97403 178.405 8.10081 178.347 8.21055C178.294 8.30802 178.24 8.41078 178.187 8.51828C177.993 8.89269 177.834 9.21136 177.689 9.47751C177.421 9.93645 177.219 10.146 177.145 9.71745C177.106 9.51494 177.095 9.15966 177.14 8.60994C177.172 8.31416 177.192 8.02042 177.323 7.51047C177.349 7.40026 177.404 7.22431 177.487 7.02604C177.517 6.95022 177.608 6.75947 177.743 6.55672C177.779 6.50406 177.819 6.44781 177.866 6.38705C177.915 6.32342 178.033 6.18549 178.166 6.06354C178.304 5.93661 178.484 5.79204 178.742 5.65178C178.887 5.57731 178.97 5.53045 179.239 5.44318C179.507 5.35965 179.831 5.30664 180.172 5.32016C180.852 5.32563 181.57 5.70637 181.848 5.95748C182.128 6.18759 182.301 6.41015 182.426 6.5953C182.548 6.77753 182.632 6.9505 182.679 7.05632C182.719 7.14296 182.75 7.2204 182.776 7.29132C182.828 7.43263 182.862 7.55012 182.889 7.65227C182.911 7.72888 182.928 7.79885 182.944 7.86502C183.007 8.1492 183.033 8.28824 183.064 8.45818C183.046 8.21258 183.074 8.0604 182.925 7.43569C182.9 7.34422 182.869 7.24195 182.824 7.1212C182.789 7.03057 182.698 6.79139 182.508 6.50425C182.411 6.35929 182.285 6.19466 182.105 6.01906C182.012 5.92892 181.924 5.85043 181.782 5.7457C181.612 5.62216 181.409 5.50255 181.176 5.40637C180.243 4.94127 178.863 5.3633 178.673 5.52763C178.266 5.74624 178.04 5.96607 177.873 6.14064C177.783 6.23669 177.739 6.29191 177.705 6.33393C177.669 6.3792 177.636 6.42206 177.606 6.46286C177.49 6.62214 177.403 6.77053 177.35 6.8663C176.994 7.54723 176.952 7.74413 176.812 8.1077C176.591 8.72638 176.439 9.22038 176.279 9.75864C175.975 10.7857 175.743 11.6671 175.53 12.5267C175.117 14.2037 174.825 15.6449 174.643 16.8115C174.269 19.1907 174.285 20.7081 174.58 21.8177C174.668 22.2013 174.541 23.1847 174.291 24.519C174.246 24.7614 174.196 25.016 174.143 25.2799C174.497 25.0352 175.468 24.8429 175.524 25.116C175.989 27.6341 173.592 30.806 173.211 29.4717C172.945 30.5891 172.713 31.5198 172.635 31.8159C172.118 33.7975 172.366 29.7543 171.83 31.3368C171.657 31.8383 170.592 37.5883 170.341 37.6325C168.707 38.0175 171.712 28.8636 166.967 47.5042C168.236 48.2186 169.73 39.4506 170.714 41.9845C171.772 44.6955 168.68 49.1857 170.363 50.6515C169.968 50.9881 169.67 51.1159 169.244 51.3818C168.516 59.148 166.909 58.935 166.083 61.1842C164.476 65.5611 160.328 86.3209 165.518 67.9773C165.098 70.7304 164.591 73.5236 164.157 76.2581C161.186 76.2931 162.662 74.8763 159.54 87.8369C158.852 90.6818 157.409 91.3599 158.308 94.491C156.934 93.8011 156.045 102.476 155.699 103.235C153.492 108.073 155.827 88.8831 158.893 86.9854C158.547 83.5934 159.87 83.8746 160.426 80.279C161.229 75.0844 161.117 74.3169 163.347 68.4092C163.201 62.1195 157.915 91.8103 159.76 73.5336C160.489 66.4689 163.882 46.5162 168.305 23.241C168.937 19.9694 169.583 16.6812 170.302 13.2952C170.672 11.5737 171.03 9.9069 171.529 7.97807C171.657 7.49434 171.794 6.98534 172.009 6.32295C172.139 5.95094 172.2 5.68191 172.616 4.78533C172.672 4.6702 172.734 4.5466 172.807 4.4104C172.884 4.26659 173.033 4.0022 173.208 3.7378C173.297 3.60109 173.4 3.45238 173.524 3.28811C173.669 3.10145 173.713 3.02548 174.087 2.61522C174.413 2.26725 174.839 1.85544 175.493 1.40921C175.821 1.18727 176.207 0.958731 176.67 0.745843C176.786 0.692786 176.907 0.640696 177.032 0.590438C177.173 0.534843 177.233 0.509624 177.481 0.425408C177.899 0.285347 178.364 0.168024 178.865 0.0935473C180.888 -0.270092 183.412 0.468029 184.772 1.5164C185.865 2.31342 186.38 2.99779 186.793 3.5915C187.183 4.16712 187.429 4.69615 187.556 4.9949C187.664 5.24968 187.743 5.46977 187.808 5.66566C187.934 6.0489 188.012 6.37955 188.056 6.58244C188.096 6.7704 188.125 6.93204 188.148 7.0776C188.299 8.11527 188.279 8.4088 188.3 8.77929C188.312 9.132 188.315 9.40534 188.317 9.66954C188.321 10.1852 188.319 10.6218 188.321 11.0047C191.315 25.5306 204.028 48.2368 209.121 63.0099C212.434 72.5002 213.212 78.9197 214.34 82.4873C214.6 83.4136 214.887 84.2711 215.069 84.6766C215.14 84.8534 215.236 84.9406 214.959 84.4988C214.801 84.2769 214.573 83.8956 213.805 83.2315C213.134 82.6445 211.477 81.572 209.29 81.4304C209.524 81.4354 209.574 81.4001 209.504 81.4049C209.434 81.4062 209.254 81.4641 209.15 81.5213C208.912 81.66 209.135 81.5422 209.464 80.8719C210.159 79.5408 210.805 76.8252 211.098 74.108C211.413 71.343 211.501 68.4036 211.501 65.4269C211.502 63.9243 211.478 62.4168 211.461 60.8111C211.453 60.0326 211.445 59.1756 211.462 58.2232C211.466 58.0145 211.475 57.701 211.486 57.436C211.498 57.1632 211.511 56.8845 211.542 56.4972C211.577 56.1104 211.597 55.8056 211.715 55.0934C211.777 54.7443 211.829 54.4541 211.987 53.8756C212.201 53.1698 212.445 52.2578 213.394 50.8125C214.66 48.9942 216.122 47.0459 219.252 45.2467C222.244 43.4027 227.226 43.0752 230.169 44.1431C236.213 46.3231 238.046 49.1104 240.2 51.3719C244.096 56.0194 246.534 60.3342 249.011 64.7256C251.446 69.1163 253.666 73.5317 255.951 77.985C257.089 80.1979 258.237 82.4149 259.401 84.482C259.988 85.5216 260.563 86.4902 261.099 87.2949C261.346 87.6667 261.612 88.0301 261.734 88.1776C261.834 88.3408 262 88.3308 261.019 87.6347C260.596 87.3637 259.972 86.9753 258.811 86.6468C257.687 86.3162 255.804 86.1725 254.084 86.7049C250.492 87.9231 249.729 89.7905 249.341 90.3122C249.027 90.8564 248.94 91.2163 248.971 91.1029C248.998 91.0089 249.096 90.5333 249.155 89.887C249.237 89.0239 249.274 88.3119 249.402 86.6569C249.409 86.5781 249.415 86.5024 249.431 86.3585C249.45 86.2142 249.446 86.1105 249.562 85.459C249.625 85.1669 249.66 84.8455 249.984 83.9133C250.027 83.7931 250.078 83.6604 250.139 83.5104C250.155 83.473 250.171 83.4344 250.188 83.3947C250.217 83.3253 250.312 83.1091 250.397 82.9364C250.579 82.5661 250.819 82.1104 251.251 81.5041C252.043 80.4985 254.03 77.6868 258.995 77.3911C264.018 77.3273 266.568 80.5102 267.25 81.4484C268.464 83.2178 268.534 83.9056 268.735 84.4529C268.888 84.9748 268.941 85.2667 268.986 85.5021C269.009 85.6247 269.021 85.7045 269.034 85.7875C269.059 85.9479 269.074 86.0686 269.086 86.1715C269.112 86.399 269.115 86.4489 269.123 86.5406C269.13 86.623 269.135 86.6939 269.139 86.7592C269.164 87.1564 269.168 87.3268 269.174 87.5243C269.186 87.9026 269.192 88.2253 269.198 88.5561C269.209 89.2069 269.216 89.8369 269.222 90.4851C269.273 99.6934 269.597 110.317 268.339 106.463C268.031 105.608 266.895 92.8831 266.079 103.875C266.724 101.618 267.526 108.016 267.647 108.544C270.325 120.7 269.929 113.668 272.117 132.663ZM277.764 190.943C266.013 167.703 273.91 185.161 269.222 181.464C270.746 184.483 272.303 187.469 273.865 190.418C273.584 189.561 273.317 188.73 273.043 187.881C273.041 187.877 273.039 187.874 273.037 187.871C274.604 188.89 276.194 189.94 277.764 190.943ZM173.468 440.713C174.411 440.305 175.289 439.892 176.29 439.461C179.502 439.199 182.708 438.813 185.933 438.314C185.596 438.6 185.268 438.885 184.916 439.17C181.11 439.839 177.299 440.35 173.468 440.713ZM177.377 33.8057C175.515 38.3475 177.17 38.2565 175.161 44.3814C176.477 43.8514 177.785 43.2403 179.101 42.6558C179.918 37.839 179.699 36.6706 181.069 31.5422C180.572 32.0571 180.06 32.6351 179.568 33.1238C179.471 33.9818 179.362 34.9612 179.263 35.7908C177.94 36.921 179.519 28.5877 177.378 33.7887C177.378 33.7944 177.378 33.8 177.377 33.8057ZM167.88 82.385C167.207 84.9016 164.56 94.8607 164.75 96.3436C165.417 101.342 170.258 72.6762 167.375 93.947C167.623 93.8985 167.827 94.0404 168.053 94.0873C168.925 90.2746 169.78 86.4743 170.636 82.6356C169.693 82.6572 168.833 82.3369 167.88 82.385ZM254.867 99.503C254.858 97.9981 254.658 94.3845 254.418 90.772C254.374 90.1237 254.328 89.4947 254.276 88.8708C254.25 88.5744 254.222 88.2565 254.193 88.0023C254.185 87.9469 254.177 87.8743 254.17 87.8366C254.164 87.7957 254.153 87.7393 254.157 87.8447C254.159 87.8739 254.164 87.9471 254.186 88.0987C254.204 88.1657 254.18 88.2608 254.389 88.9228C254.448 89.0959 254.527 89.3138 254.694 89.6386C254.778 89.8014 254.887 89.9924 255.048 90.2228C255.184 90.3786 256.238 92.1314 258.828 92.3984C260.071 92.5196 261.288 92.098 262.001 91.636C262.738 91.1688 263.117 90.717 263.38 90.3797C263.638 90.0369 263.777 89.7809 263.881 89.5754C263.933 89.4728 263.974 89.3826 264.009 89.302C264.025 89.2629 264.029 89.2545 264.038 89.2318C264.104 89.0722 264.147 88.9499 264.18 88.8477C264.4 88.0875 264.34 88.1666 264.368 88.063C264.379 87.9946 264.383 87.9679 264.385 87.9556C264.396 87.9053 264.395 87.9648 264.397 88.0085C264.411 89.0377 264.431 90.3014 264.443 91.2873C264.412 94.2369 264.3 95.9051 265.255 92.9077C265.351 92.5629 265.427 92.0317 265.465 91.3809C265.516 90.4667 265.488 89.1818 265.422 88.1273C265.418 88.0752 265.414 88.0237 265.404 88.0357C265.397 88.0558 265.397 88.0403 265.365 88.2312C265.315 88.3746 265.452 88.2466 265.007 89.5297C264.989 89.5749 264.969 89.6229 264.947 89.674C264.9 89.7855 264.776 90.0665 264.602 90.3629C264.204 90.9021 263.728 92.1994 261.081 93.1552C259.785 93.5882 258.026 93.4688 256.857 92.9344C255.66 92.415 254.997 91.7438 254.574 91.2573C254.469 91.1341 254.373 91.0099 254.3 90.9102C254.273 90.8735 254.247 90.8375 254.222 90.8024C254.173 90.7321 254.128 90.6648 254.087 90.6005C254.004 90.4717 253.935 90.3543 253.875 90.2465C253.427 89.3992 253.381 89.0675 253.301 88.7978C253.173 88.2482 253.203 88.3073 253.182 88.1903C253.143 87.8656 253.159 87.9047 253.159 87.8629C253.162 87.8438 253.167 87.8519 253.172 87.8657C253.183 87.8962 253.195 87.9499 253.206 88.0098C253.253 88.2503 253.3 88.5754 253.346 88.8717C253.439 89.5033 253.53 90.1402 253.618 90.7875C253.907 92.9259 254.17 94.9672 254.183 96.2216C254.209 98.3378 253.299 95.9925 253.753 100.158C254.109 99.9599 254.508 99.8306 254.864 99.4918C254.865 99.4955 254.866 99.4993 254.867 99.503ZM259.999 106.804C259.634 102.69 259.284 98.5139 259.017 94.361C258.147 97.4241 258.997 103.378 257.699 103.79C257.546 102.655 257.399 101.53 257.254 100.392C257.509 99.506 257.768 98.6376 258.028 97.7682C257.245 94.4075 256.925 96.1686 256.944 90.723C256.946 90.4017 256.949 90.0716 256.953 89.723C256.783 90.0727 256.619 90.4033 256.464 90.7323C254.892 94.0049 254.122 95.6206 256.453 105.972C255.271 103.857 251.799 106.087 254.722 112.323C255.263 113.483 255.268 108.491 255.346 108.431C256.229 107.617 256.978 110.334 257.806 109.464C258.178 109.074 258.008 106.061 258.538 105.584C258.794 105.364 259.71 108.181 259.999 106.804ZM255.817 115.354C255.165 114.101 254.138 118.617 254.762 122.444C255.745 128.39 256.1 118.839 255.817 115.354ZM173.446 440.716C173.453 440.715 173.461 440.714 173.468 440.713C173.464 440.715 173.461 440.716 173.457 440.718C173.454 440.717 173.45 440.717 173.446 440.716ZM171.209 69.3889C171.063 72.4858 170.085 76.9093 170.896 76.7346C170.451 78.1621 170.004 79.6101 169.559 81.037C169.785 81.0692 170.015 81.0878 170.24 81.1195C171.281 76.7585 172.317 72.4111 173.357 68.0517C172.645 68.482 171.94 68.8651 171.209 69.3889ZM160.748 117.098C159.48 122.597 161.489 118.201 161.716 119.514C161.752 119.726 161.745 120.029 161.712 120.381C161.522 122.282 160.598 125.58 161.289 125.236C161.642 123.707 162.001 122.136 162.365 120.523C162.753 118.808 163.146 117.05 163.532 115.311C162.583 116.02 161.675 116.473 160.745 117.109C160.746 117.105 160.747 117.102 160.748 117.098ZM326.726 280.907C324.452 281.199 324.383 280.749 322.005 281.63C321.502 281.796 320.857 282.16 319.188 282.416C318.36 282.523 317.114 282.563 315.696 282.062C314.273 281.576 313.013 280.549 312.234 279.589C312.243 279.601 312.252 279.612 312.261 279.624C313.09 281.036 315.799 282.891 318.085 282.904C320.293 283.007 321.472 282.519 322.243 282.36C325.7 281.503 329.154 281.079 331.191 281.599C330.3 281.415 329.659 280.869 329.506 280.673C329.328 280.456 329.415 280.499 329.518 280.681C329.748 281.058 330.081 281.889 330.367 282.768C330.39 282.828 330.414 282.89 330.437 282.953C330.447 282.883 330.455 282.814 330.461 282.747C330.436 281.718 330.248 280.837 330.068 280.383C329.989 280.162 329.903 280.069 330.025 280.207C330.127 280.328 330.618 280.762 331.34 280.922C330.211 280.705 328.799 280.694 326.726 280.907ZM182.423 21.2735C182.238 20.0795 181.14 23.2626 180.593 25.8648C180.368 26.9338 180.214 28.0201 180.29 28.5045C180.501 30.0929 181.29 28.3634 181.854 26.1339C182.296 24.3732 182.588 22.4346 182.423 21.2735ZM317.918 375.947C317.156 377.503 317.255 378.138 318.153 378.001C319.015 377.807 320.67 377.174 322.558 374.645C324.737 371.67 326.979 367.142 328.403 362.217C328.724 361.255 325.312 368.085 325.81 365.85C325.876 365.639 327.459 361.785 327.542 360.72C327.639 359.665 326.693 360.464 327.006 358.801C327.593 355.928 330.227 349.773 330.015 347.459C330.019 347.175 328.284 350.965 328.163 351.181C326.618 355.059 326.271 359.172 326.053 359.798C324.931 362.94 324.289 362.15 323.802 362.855C322.875 364.188 322.13 366.854 322.012 367.035C319.31 371.283 324.107 360.942 324.213 359.336C324.734 355.169 323.088 358.505 325.222 349.102C325.45 348.165 327.683 337.824 323.818 350.713C325.084 344.098 324.668 341.925 324.523 341.976C324.324 342.01 324.078 344.334 323.274 347.761C321.809 354.647 317.68 365.307 316.887 367.274C316.192 369.192 318.256 366.767 318.054 368.04C317.879 369.15 317.462 370.476 317.068 371.639C316.783 372.884 315.605 374.472 316.354 374.764C317.339 375.231 318.641 374.471 319.543 372.995C320.793 370.855 321.793 367.666 323.028 365.356C323.336 366.01 323.753 366.376 323.876 367.408C323.804 366.414 321.764 370.393 320.034 373.264C319.076 374.803 317.97 375.785 317.914 375.944C317.915 375.945 317.916 375.946 317.918 375.947ZM302.133 341.916C301.729 341.21 301.691 340.647 301.704 340.17C301.717 339.906 301.74 339.806 301.767 339.662C301.794 339.528 301.826 339.405 301.862 339.291C302.025 338.788 302.134 338.625 302.27 338.373C302.411 338.125 302.52 337.964 302.628 337.809C302.737 337.652 302.849 337.499 302.963 337.346C305.802 333.756 305.018 332.908 308.776 329.193C310.744 324.218 304.713 332.421 303.954 333.379C302.87 334.691 302.009 335.536 301.273 336.189C300.968 336.518 300.732 336.757 300.429 337.173C300.121 337.65 299.784 338.004 299.465 339.303C299.352 339.754 299.139 341.279 299.907 342.814C300.325 343.678 301.042 344.46 301.769 344.941C302.495 345.419 302.976 345.584 303.49 345.736C304.568 346.008 304.949 345.977 305.453 345.989C305.964 345.979 306.208 345.958 306.523 345.923C308.707 345.62 309.851 345.118 311.71 344.096C310.579 344.125 309.552 344.09 308.412 344.04C307.837 344.015 307.252 343.982 306.569 343.919C306.398 343.904 306.179 343.894 305.977 343.871C305.773 343.848 305.556 343.824 305.242 343.784C304.926 343.733 304.676 343.701 304.075 343.51C303.795 343.411 303.511 343.287 303.163 343.05C302.774 342.79 302.381 342.387 302.133 341.916ZM322.07 360.21C322.778 356.074 320.195 362.964 319.893 363.163C317.425 365.612 325.035 345.179 322.07 360.21ZM253.11 95.7897C251.672 93.9094 251.943 95.5086 250.6 93.9607C249.168 92.3171 246.68 86.2273 246.335 86.562C245.911 86.8971 250.866 98.395 244.649 87.5842C244.611 88.0839 244.369 88.0492 244.252 88.3423C245.887 91.3783 247.302 94.305 249.918 97.7048C249.019 95.3395 248.77 93.2845 248.496 91.3469C249.969 92.692 249.912 94.0166 249.988 94.1369C249.989 94.1365 249.989 94.1361 249.99 94.1356C251.022 95.681 252.73 97.3423 254.242 97.8723C254.733 98.056 255.127 98.0804 255.189 97.9902C255.265 97.8998 255 97.7092 254.589 97.348C254.242 97.0337 253.677 96.4806 253.11 95.7897ZM303.144 236.297C305.128 235.98 300.876 232.481 299.682 230.755C298.494 229.03 297.752 226.17 297.543 227.507C298.647 230.735 302.932 236.341 303.146 236.296C303.146 236.296 303.145 236.297 303.144 236.297ZM322.024 310.784C324.521 306.136 323.706 306.625 327.377 301.429C326.857 301.416 326.329 301.396 325.815 301.382C323.286 305.664 324.597 306.086 320.898 310.691C320.28 311.438 320.577 309.142 318.388 312.913C319.579 312.2 320.828 311.495 322.024 310.784ZM331.666 287.854C331.167 290.356 331.079 293.035 331.549 293.83C331.928 294.632 333.401 293.313 333.786 288.032C333.832 286.423 332.22 284.185 331.666 287.854ZM260.475 131.103C259.42 120.691 260.096 132.57 259.947 135.364C256.682 111.124 260.247 138.055 258.986 140.799C259.986 143.707 262.245 149.013 261.457 142.807C261.161 140.225 260.764 141.247 260.739 141.093C260.142 136.342 261.13 136.784 260.475 131.103ZM315.809 338.911C315.471 339.114 316.31 339.408 315.254 340.088C314.202 340.771 311.4 341.66 311.298 342.135C311.243 342.633 316.572 340.294 317.943 339.272C319.341 338.249 318.855 337.091 315.809 338.911ZM320.225 316.342C322.82 311.848 316.033 317.393 315.369 318.277C309.629 326.308 319.82 315.712 320.225 316.342ZM268.686 153.995C268.421 153.335 268.181 152.722 267.975 152.208C265.689 146.097 264.967 148.362 264.979 152.947C265.003 154.946 265.314 157.372 265.76 159.646C266.367 160.581 266.979 161.469 267.604 162.358C264.54 158.397 259.805 151.025 268.151 168.08C264.459 158.48 268.189 166.262 268.302 166.272C271.15 166.255 264.775 152.665 268.689 154.005C268.688 154.002 268.687 153.998 268.686 153.995ZM326.437 336.324C328.444 338.921 325.086 353.654 327.835 347.402C328.138 343.299 328.027 338.377 326.437 336.324ZM202.618 64.3998C201.703 59.9415 200.165 56.0694 198.011 50.9807C198.955 55.9825 197.599 52.9837 196.73 51.542C195.406 49.3311 197.788 55.021 197.719 55.0581C196.762 55.3264 195.188 51.7373 198.503 60.0128C197.384 58.088 196.254 56.1948 195.109 54.2907C197.621 60.5861 197.585 62.3205 198.361 66.5989C198.545 64.0124 198.883 64.6667 199.621 66.5276C200.169 67.8908 200.816 70.0059 201.739 71.9888C202.666 74.0179 203.242 68.4454 202.768 65.3626C202.719 64.9813 202.666 64.6476 202.612 64.3839C202.614 64.3892 202.616 64.3945 202.618 64.3998ZM266.412 141.537C265.861 140.338 265.219 139.257 264.647 138.091C264.408 136.758 264.185 135.419 263.97 134.086C264.249 133.88 264.545 133.7 264.808 133.469C264.667 131.694 264.339 132.436 264.233 131.915C264.235 131.915 264.236 131.915 264.238 131.915C262.772 124.442 262.584 121.3 263.061 115.295C262.134 115.363 261.208 115.431 260.281 115.499C260.469 116.837 260.661 118.188 260.86 119.522C261.418 120.195 261.978 120.863 262.539 121.53C262.404 123.101 262.28 124.656 262.168 126.234C262.475 127.452 262.828 128.917 263.128 129.969C261.267 136.444 261.411 122.206 260.397 122.175C259.63 122.155 261.243 136.375 262.127 138.328C262.245 138.606 263.681 135.288 263.486 140.574C263.473 141.384 259.331 142.429 263.743 147.368C264.375 148.055 266.347 144.805 266.412 141.537ZM263.611 90.4559C263.597 90.5028 263.583 90.5491 263.569 90.5946C262.957 92.4743 262.635 92.0772 262.467 90.616C262.373 89.7882 262.342 88.7644 262.286 87.3802C262.278 87.2612 262.283 87.223 262.248 86.9231C262.242 86.878 262.235 86.8261 262.222 86.7556C262.212 86.6985 262.193 86.5948 262.148 86.4364C262.086 86.2664 262.073 86.0589 261.688 85.4954C261.564 85.3277 261.32 85.0179 260.876 84.7338C260.443 84.445 259.691 84.1954 258.961 84.2824C257.43 84.511 256.988 85.3387 256.765 85.6242C256.652 85.7983 256.59 85.9275 256.542 86.0327C256.494 86.142 256.508 86.1098 256.493 86.1462C256.475 86.1927 256.459 86.2338 256.446 86.271C256.395 86.4187 256.372 86.5097 256.354 86.5839C256.319 86.7344 256.312 86.7921 256.305 86.8289C256.279 86.9996 256.275 87.0525 256.267 87.1246C256.243 87.3688 256.232 87.5165 256.219 87.6911C256.193 88.0228 256.169 88.3426 256.142 88.6603C256.09 89.294 256.031 89.9203 255.963 90.5106C255.771 92.5119 255.13 93.8951 255.256 93.7462C255.282 93.7492 255.334 93.7395 255.363 93.7731C255.396 93.8018 255.407 93.8779 255.478 93.8969C255.606 93.9587 256.08 93.5682 256.585 92.3104C256.89 93.9731 256.829 94.5418 257.158 94.5643C257.466 94.5885 258.16 93.8027 258.967 92.0445C259.151 91.7275 258.957 94.3405 259.002 94.1481C259.505 93.1176 259.774 91.956 259.954 90.8761C260.15 89.6943 260.274 88.5997 260.465 87.8404C260.489 87.7504 260.514 87.6602 260.54 87.5891C260.553 87.5572 260.567 87.5205 260.578 87.5129C260.582 87.5178 260.595 87.4895 260.582 87.5793C260.577 87.6043 260.571 87.6379 260.552 87.6976C260.548 87.7126 260.542 87.7294 260.535 87.7487C260.52 87.7856 260.549 87.7299 260.48 87.8763C260.409 87.9839 260.358 88.2008 259.885 88.4698C259.652 88.5966 259.26 88.6637 258.941 88.5763C258.619 88.4944 258.416 88.3277 258.298 88.2079C258.241 88.1508 258.183 88.0749 258.17 88.0566C258.158 88.0401 258.147 88.0245 258.137 88.0094C258.117 87.9794 258.1 87.9521 258.086 87.9272C258.058 87.8775 258.038 87.837 258.023 87.8025C257.992 87.7338 257.977 87.6882 257.966 87.6522C257.944 87.5823 257.937 87.5456 257.932 87.5265C257.892 87.4094 257.885 87.5486 257.86 87.5827C257.838 87.6462 257.813 87.695 257.786 87.7513C257.678 87.962 257.535 88.0963 257.346 88.1041C257.429 88.9716 257.495 89.8141 257.569 90.7109C257.572 90.7416 257.574 90.7723 257.577 90.8031C257.585 90.7715 257.592 90.7406 257.6 90.7103C258.058 88.9205 258.485 89.412 258.907 90.685C259.352 92.016 259.803 94.1998 260.283 95.3923C260.707 96.4575 260.758 93.9807 261.129 94.8759C261.261 95.2058 261.121 98.6706 261.49 98.8004C262.318 99.0643 263.332 96.8562 263.843 93.1846C263.844 93.1846 263.845 93.1846 263.845 93.1846C263.773 92.3165 263.693 91.4595 263.622 90.5936C263.618 90.5472 263.615 90.5013 263.611 90.4559ZM314.87 249.6C313.703 251.373 314.692 256.581 311.355 246.718C311.227 247.29 311.101 247.885 310.955 248.443C311.444 250.097 311.846 251.721 312.189 253.441C317.611 258.062 312.885 268.544 315.725 261.985C316.037 261.274 315.317 257.03 316.551 261.177C316.551 261.171 316.551 261.165 316.552 261.16C315.792 255.265 315.139 254.65 314.87 249.6ZM297.19 214.742C288.078 204.536 304.465 231.753 302.648 226.721C302.493 226.244 295.388 214.564 297.19 214.742ZM335.861 300.003C338.601 294.243 336.89 293.16 336.168 293.577C335.436 293.963 334.348 298.094 333.992 298.535C332.941 300.008 334.368 296.517 332.995 298.408C332.673 299.119 326.978 307.854 326.697 308.235C325.616 310.685 328.866 308.153 328.595 308.874C327.71 311.277 325.214 313.695 325.415 314.701C325.843 316.886 328.021 310.694 328.539 309.769C330.196 306.988 330.797 307.684 332.19 305.662C333.568 303.622 334.068 302.05 335.093 300.118C335.429 299.477 335.716 300.288 335.861 300.003ZM335.801 279.361C336.778 281.164 337.113 280.94 337.114 279.542C337.092 278.845 336.971 277.865 336.515 276.695C336.073 275.597 335.138 273.907 333.018 273.299C330.174 272.411 327.407 272.662 326.726 272.848C322.963 274.176 328.306 273.757 332.594 275.224C334.916 276.184 335.225 278.575 335.801 279.361ZM260.369 110.551C261.638 116.18 261.563 102.895 261.109 99.1217C260.733 99.8337 259.907 108.605 260.369 110.551ZM269.702 157.192C267.849 152.439 267.868 159.547 269.682 163.632C271.935 165.439 270.715 163.35 269.737 160.696C268.796 158.051 271.262 160.855 269.702 157.192ZM316.378 333.195C315.288 333.944 299.614 342.209 309.118 338.581C309.876 338.347 321.113 332.267 322.146 331.896C323.913 330.763 318.997 331.871 316.378 333.195ZM281.748 178.844C279.436 176.949 278.233 174.514 278.138 177.396C278.139 177.4 278.141 177.403 278.143 177.406C274.616 171.361 277.084 169.805 276.394 168.514C274.02 163.883 274.249 169.22 272.281 166.486C276.047 173.195 273.915 171.784 276.445 177.082C277.01 178.263 280.162 182.577 280.973 183.015C281.775 183.452 281.881 180.395 281.748 178.844ZM332.056 347.132C333.744 340.704 331.469 334.717 330.84 343.532C330.146 347.668 330.95 350.9 332.056 347.132ZM159.491 89.7315C160.171 88.9173 160.856 88.07 161.548 87.1763C161.207 89.4322 160.867 91.6851 160.528 93.9336C160.736 92.1457 160.95 90.3406 161.161 88.5443C160.127 92.6877 158.836 94.4175 159.489 89.7424C159.49 89.7388 159.49 89.7351 159.491 89.7315ZM91.6783 170.411C90.1301 171.457 88.6352 175.028 89.0268 174.794C92.1649 173 93.8814 168.911 91.6783 170.411ZM264.469 101.931C264.408 94.9022 262.142 99.8124 262.178 104.154C262.521 101.491 264.529 105.922 264.469 101.931ZM122.016 126.792C122.072 126.753 122.128 126.714 122.184 126.676C122.771 126.225 123.392 125.786 124.158 125.344C123.238 126.04 122.749 126.538 122.4 126.842C121.925 127.233 121.838 127.171 122.016 126.792ZM312.792 332.595C311.825 332.921 304.182 336.488 304.645 336.278C304.67 336.329 304.961 336.38 305.02 336.467C305.095 336.55 304.904 336.637 304.801 336.744C304.594 336.967 305.057 337.101 305.8 336.989C307.307 336.781 309.631 335.889 311.159 334.886C311.493 334.67 313.841 332.272 312.777 332.603C312.782 332.601 312.787 332.598 312.792 332.595ZM156.63 98.9396C156.655 98.9322 156.675 98.9432 156.691 98.9693C156.671 98.957 156.649 98.9546 156.63 98.9396ZM26.5421 259.482C26.577 259.436 26.613 259.411 26.6492 259.414C26.615 259.433 26.58 259.469 26.5421 259.482ZM335.57 306.34C339.039 305.037 340.898 298.28 337.524 302.575C337.344 302.828 335.917 305.765 335.57 306.34Z" fill="#E4E4E4"/>
<circle cx="100.345" cy="336.566" r="17" fill="#E4E4E4" stroke="#E4E4E4"/>
<circle cx="240.345" cy="336.566" r="17" fill="#E4E4E4" stroke="#E4E4E4"/>
</svg>
