<svg width="530" height="600" viewBox="0 0 530 600" fill="none" xmlns="http://www.w3.org/2000/svg">
<path d="M151 266.972C166.5 266.972 216.5 177.471 179.5 47.4595C173.889 27.7417 262.4 84.8106 295.5 148.259C316.737 188.967 322.851 202.638 334.08 269.462C334.23 270.353 335.383 270.671 335.896 269.928C373.106 216.032 455.5 140.429 455.5 177.472C455.5 241.972 510.69 265.249 473.5 396.759C459.5 446.264 417 552.759 274.5 555.759C132 558.759 43.5001 451.973 43.5 370.972C43.4999 300.956 58.3444 279.226 62.5 259.972C92.5 120.972 124.425 266.972 151 266.972Z" fill="white" stroke="white" stroke-width="87"/>
<path d="M151 266.972C166.5 266.972 216.5 177.471 179.5 47.4595C173.889 27.7417 262.4 84.8106 295.5 148.259C316.737 188.967 322.851 202.638 334.08 269.462C334.23 270.353 335.383 270.671 335.896 269.928C373.106 216.032 455.5 140.429 455.5 177.472C455.5 241.972 510.69 265.249 473.5 396.759C459.5 446.264 417 552.759 274.5 555.759C132 558.759 43.5001 451.973 43.5 370.972C43.4999 300.956 58.3444 279.226 62.5 259.972C92.5 120.972 124.425 266.972 151 266.972Z" fill="white" stroke="black" stroke-width="21"/>
<circle cx="187.5" cy="370.498" r="26" fill="black"/>
<circle cx="302.5" cy="370.498" r="26" fill="black"/>
</svg>
