<svg width="359" height="384" viewBox="0 0 359 384" fill="none" xmlns="http://www.w3.org/2000/svg">
<path d="M332.572 11.8808C332.354 12.7745 332.1 13.6561 331.813 14.5062C329.482 23.6761 323.296 49.536 315.122 90.877C309.763 117.983 309.463 140.33 308.738 150.4C308.012 160.469 307.887 157.765 309.377 151.254C310.866 144.743 313.974 134.507 318.359 144.101C335.22 180.999 333.976 219.71 333.22 231.611C331.803 253.89 325.438 261.647 320.394 268.106C319.393 269.389 318.281 270.537 317.109 271.568C323.569 268.326 330.431 265.173 334.393 264.077C337.389 263.249 341.259 263.445 343.542 265.566C356.743 277.831 343.12 303.903 337.5 313.174C334.153 318.695 326.641 322.832 311.997 327.98C304.636 330.567 295.474 333.41 284.134 336.811C280.215 337.987 277.962 338.911 277.127 339.284C276.637 339.534 276.618 339.511 277.127 339.284C277.269 339.211 277.45 339.116 277.669 338.997C292.803 330.744 300.84 327.98 311.997 327.98C326.641 322.832 334.153 318.695 337.5 313.174C343.12 303.903 356.743 277.831 343.542 265.566C341.259 263.445 337.389 263.249 334.393 264.077C330.431 265.173 323.569 268.326 317.109 271.568C312.125 275.95 306.032 278.226 302.516 279.831C297.699 282.031 306.902 276.689 317.109 271.568C318.281 270.537 319.393 269.389 320.394 268.106C325.438 261.647 331.803 253.89 333.22 231.611C333.976 219.71 335.22 180.999 318.359 144.101C313.974 134.507 310.866 144.743 309.377 151.254C307.887 157.765 308.012 160.469 308.738 150.4C309.463 140.33 309.763 117.983 315.122 90.877C323.296 49.536 329.482 23.6761 331.813 14.5062C332.794 10.6508 333.093 9.74566 332.572 11.8808Z" fill="#E4E4E4"/>
<path d="M321.365 114.295C319.887 126.208 319.323 138.001 318.6 151.11C318.453 153.229 318.274 155.484 318.105 157.478C318.101 157.53 318.099 157.568 318.098 157.576C318.098 157.57 318.098 157.585 318.103 157.498C318.105 157.453 318.109 157.387 318.112 157.256C318.113 157.223 318.114 157.186 318.114 157.142C318.115 157.065 318.117 156.894 318.106 156.629C318.083 156.332 318.106 156.022 317.888 154.947C317.734 154.374 317.656 153.623 316.688 151.938C316.431 151.515 316.098 151.028 315.613 150.482C315.088 149.877 313.887 148.744 312.28 148.035C308.883 146.316 304.274 147.568 302.708 148.839C300.912 150.097 300.388 151.01 299.95 151.62C299.548 152.238 299.365 152.63 299.22 152.938C298.949 153.541 298.865 153.826 298.789 154.055C298.72 154.272 298.676 154.439 298.676 154.439C298.665 154.477 298.656 154.512 298.648 154.543C298.615 154.669 298.596 154.751 298.582 154.814C298.554 154.936 298.541 155.004 298.538 155.016C298.529 155.062 298.527 155.07 298.529 155.063C298.531 155.052 298.54 154.998 298.549 154.946C298.589 154.718 298.637 154.442 298.687 154.16C298.785 153.604 298.89 153.031 299 152.461C299.22 151.319 299.456 150.189 299.716 149.043C300.549 145.667 301.133 142.532 303.478 137.863C304.181 136.643 304.851 135.229 307.1 133.198C308.259 132.215 310.066 130.919 312.937 130.41C315.799 129.88 318.803 130.732 320.518 131.735C323.879 133.763 324.67 135.38 325.59 136.637C326.434 137.944 326.917 138.926 327.401 139.969C340.649 169.1 344.97 201.259 343.17 232.244C342.596 245.981 337.985 263.499 328.14 274.154C326.607 276.102 324.903 277.815 323.131 279.312C314.717 285.687 314.877 283.853 312.527 285.157C309.877 286.348 307.719 287.307 306.289 288.093C305.809 288.331 305.596 288.463 304.812 288.795C304.721 288.832 304.632 288.869 304.517 288.912C304.305 288.99 304.065 289.075 303.677 289.183C303.48 289.236 303.246 289.296 302.914 289.358C302.748 289.389 302.556 289.421 302.322 289.449C302.264 289.456 302.202 289.463 302.138 289.47C302.101 289.473 302.087 289.475 302.026 289.48C301.871 289.493 301.7 289.505 301.505 289.511C300.72 289.491 299.582 289.637 297.3 288.638C295.007 287.912 291.745 283.613 292.023 280.437C292.086 277.352 293.03 276.167 293.473 275.361C293.558 275.229 293.541 275.257 293.564 275.221C293.58 275.197 293.596 275.173 293.612 275.15C293.643 275.104 293.674 275.059 293.704 275.016C293.764 274.93 293.822 274.851 293.877 274.777C293.988 274.629 294.09 274.502 294.183 274.39C294.556 273.946 294.811 273.704 295.019 273.507C295.872 272.743 295.896 272.777 296.107 272.606C296.281 272.474 296.444 272.357 296.578 272.26C297.449 271.635 297.974 271.279 298.581 270.874C299.754 270.095 300.857 269.413 302.085 268.755C311.893 263.711 320.05 259.108 331.952 255.252C337.263 254.068 343.164 253.443 349.715 258.922C359.145 267.697 358.897 280.726 356.917 289.37C353.743 301.885 351.182 303.969 350.285 304.93C349.216 305.761 348.983 304.842 346.956 308.388C338.508 321.847 347.427 311.327 344.811 317.14C344.741 317.255 344.671 317.369 344.602 317.48C336.561 328.768 327.036 330.572 318.804 334C310.363 336.994 302.042 339.406 293.753 341.793C297.733 340.313 301.722 338.816 305.744 337.268C298.487 339.554 287.996 342.294 299.909 337.877C297.163 338.531 294.626 339.07 291.799 339.73C291.599 340.26 288.879 341.36 285.837 342.488C284.115 343.133 282.339 343.838 281.038 344.458C280.408 344.758 279.779 345.089 279.658 345.22C279.67 345.219 279.663 345.229 279.805 345.159C279.846 345.138 279.897 345.112 279.997 345.054C280.049 345.024 280.113 344.987 280.216 344.923C280.268 344.89 280.33 344.85 280.414 344.793C280.455 344.764 280.503 344.731 280.558 344.691C280.583 344.673 280.551 344.697 280.633 344.635C280.722 344.569 280.827 344.488 280.972 344.363C281.119 344.235 281.302 344.075 281.576 343.771C281.844 343.448 282.241 343.053 282.727 341.939C283.187 340.975 283.759 338.184 282.078 335.794C280.411 333.519 278.603 333.254 277.811 333.083C276.117 332.873 275.837 333.089 275.464 333.125C274.86 333.257 274.747 333.318 274.602 333.364C274.558 333.379 274.535 333.388 274.507 333.398C274.455 333.417 274.416 333.432 274.383 333.444C274.318 333.47 274.278 333.486 274.245 333.499C274.122 333.55 274.143 333.54 274.113 333.551C274.059 333.567 274.087 333.545 274.101 333.528C274.138 333.491 274.191 333.444 274.24 333.398C274.336 333.308 274.413 333.223 274.451 333.157C274.457 333.146 274.463 333.135 274.468 333.126C274.555 332.993 274.513 332.944 274.377 332.958C274.285 332.959 274.153 332.99 274.01 333.03C273.948 333.045 273.855 333.076 273.848 333.065C273.852 333.06 273.849 333.057 273.934 333.016C273.945 333.01 274.002 332.983 274.122 332.934C274.154 332.921 274.191 332.905 274.241 332.886C274.266 332.876 274.294 332.866 274.327 332.853C274.344 332.847 274.361 332.841 274.381 332.834C274.402 332.826 274.36 332.841 274.447 332.81C274.531 332.781 274.636 332.745 274.814 332.694C275.004 332.644 275.219 332.57 275.819 332.484C276.133 332.448 276.54 332.384 277.367 332.448C278.149 332.589 279.758 332.516 281.949 334.711C282.978 335.789 283.705 337.534 283.775 338.953C283.871 340.37 283.557 341.4 283.289 342.081C282.707 343.444 282.245 343.859 281.942 344.222C281.342 344.857 281.078 345.012 280.931 345.13C280.791 345.233 280.697 345.296 280.619 345.348C280.466 345.447 280.382 345.497 280.314 345.537C280.055 345.687 280.057 345.681 280.021 345.701C279.991 345.718 279.971 345.728 279.956 345.737C279.878 345.782 279.925 345.764 279.952 345.757C280.272 345.655 280.917 345.416 281.503 345.209C282.705 344.781 283.902 344.38 283.891 344.406C283.862 344.524 283.3 344.778 282.399 345.144C281.951 345.327 281.407 345.543 280.852 345.775C280.581 345.888 280.27 346.022 280.101 346.102C280.083 346.11 280.069 346.117 280.09 346.107C280.102 346.101 280.112 346.097 280.209 346.047C280.238 346.032 280.243 346.031 280.378 345.956C280.443 345.92 280.522 345.877 280.688 345.774C280.773 345.721 280.878 345.655 281.057 345.529C281.079 345.513 281.103 345.496 281.129 345.477C281.141 345.468 281.154 345.458 281.168 345.448C281.206 345.42 281.315 345.339 281.415 345.258C281.63 345.076 281.907 344.878 282.463 344.229C282.743 343.881 283.117 343.434 283.556 342.469C283.95 341.553 284.581 339.746 283.872 337.308C283.181 334.836 281.007 333.143 279.754 332.657C278.43 332.096 277.641 332.072 277.085 332.032C276 332.002 275.631 332.115 275.305 332.167C274.719 332.29 274.553 332.36 274.388 332.411C274.19 332.479 274.278 332.449 274.24 332.462C274.226 332.467 274.212 332.472 274.199 332.477C274.173 332.487 274.149 332.496 274.128 332.504C274.086 332.52 274.051 332.533 274.022 332.545C273.962 332.568 273.921 332.585 273.888 332.6C273.821 332.628 273.783 332.645 273.771 332.65C273.573 332.74 273.699 332.683 273.723 332.669C273.819 332.621 273.959 332.547 274.108 332.467C281.996 327.637 299.342 321.672 301.488 322.053C308.147 321.293 302.527 323.23 308.036 322.642C314.611 322.297 313.495 321.202 316.58 321.706C317.523 321.805 318.878 322.052 320.374 323.008C321.881 323.938 323.127 325.675 323.569 327.172C324.443 330.227 323.749 332.309 322.861 334.473C322.842 335.096 322.791 335.652 322.719 336.166C322.109 340.232 321.352 341.149 318.324 346.166C317.86 346.892 318.743 346.659 318.555 346.988C313.31 355.354 316.729 348.472 316.635 348.502C315.392 348.772 309.245 356.78 307.535 358.051C296.225 367.88 285.314 373.793 273.753 379.313C264.339 383.878 253.256 383.877 241.907 381.774C237.566 381.091 226.749 378.818 219.456 377.16C217.103 376.633 215.084 376.231 213.777 375.942C208.503 374.825 211.475 374.567 208.729 373.752C203.921 374.848 199.785 374.809 189.483 372.171C187.877 372.422 186.93 372.362 185.931 372.065C185.431 371.909 184.926 371.706 184.253 371.328C183.618 370.932 182.696 370.459 181.859 369.049C181.234 367.938 180.784 366.439 180.227 365.131C180.033 364.646 179.68 364.279 179.792 364.475C179.836 364.56 179.961 364.592 179.793 364.638C179.641 364.688 179.32 364.814 178.962 365.014C178.233 365.414 177.365 366.052 176.497 366.757C172.905 369.749 168.844 373.657 165.086 375.492C171.025 370.992 170.208 370.535 175.888 365.865C176.136 365.675 176.395 365.483 176.668 365.292C176.926 365.113 177.49 364.734 178.26 364.354C178.991 363.95 180.117 363.741 180.189 363.917C180.634 364.015 181.186 366.572 182.417 368.726C184.807 371.749 187.566 371.444 189.874 371.941C192.234 372.252 194.437 372.395 196.324 372.501C200.073 372.695 202.496 372.685 201.858 372.178C200.77 371.309 190.781 370.905 190.421 370.623C188.377 369.526 193.878 369.416 198.777 370.232C197.545 370.253 196.042 370.251 194.716 370.256C205.621 372.457 198.494 367.854 206.486 372.149C207.453 372.688 207.021 373.042 208.636 373.711C209.009 373.589 207.005 372.851 208.799 373.04C210.646 373.229 213.937 374.651 214.584 374.075C215.543 373.191 207.901 372.293 207.336 372.198C207.329 372.203 207.322 372.208 207.315 372.214C202.33 370.964 212.915 372.419 213.429 372.493C216.808 372.491 214.672 371.545 219.695 372.084C219.959 372.115 220.259 372.159 220.591 372.215C223.792 372.747 229.723 374.282 232.063 374.71C234.636 375.184 230.773 373.832 232.51 374.115C234.24 374.397 236.293 375.214 238.314 375.494C239.18 375.611 239.23 375.077 239.65 375.138C244.098 375.738 241.011 376.339 245.033 376.898C247.696 377.364 256.226 376.743 250.414 376.105C253.223 376.209 255.9 376.152 258.537 375.825C256.857 375.822 255.105 375.76 253.44 375.534C258.554 375.849 260.621 374.531 263.448 373.807C265.647 373.197 267.852 373.083 270.039 372.017C270.727 371.678 271.413 371.279 272.087 370.792C275.13 368.551 273.017 369.542 269.634 371.22C266.348 372.979 261.117 374.18 259.932 374.155C259.116 374.203 262.101 372.875 262.515 372.711C264.515 372.165 267.025 371.899 268.499 371.163C268.798 371.017 269.089 370.865 269.373 370.709C274.85 367.699 278.055 365.019 283.099 361.565C293.921 354.112 306.307 343.073 309.326 332.195C309.395 331.93 309.447 331.648 309.466 331.461C309.488 331.28 309.462 331.168 309.464 331.411C309.511 331.65 309.382 332.343 310.42 334.015C311.395 335.809 314.564 337.228 315.77 337.12C309.081 336.829 303.891 337.523 298.791 339.322C292.229 341.684 287.517 343.324 284.383 344.96C283.389 345.497 282.528 345.987 281.736 346.454C281.453 346.617 281.18 346.773 280.847 346.951C280.751 347.002 280.681 347.039 280.544 347.108C280.487 347.136 280.41 347.174 280.285 347.232C280.23 347.254 280.162 347.297 279.709 347.469C279.693 347.475 279.675 347.481 279.657 347.488C279.648 347.491 279.639 347.495 279.629 347.498C279.611 347.505 279.644 347.493 279.531 347.533C279.344 347.592 279.164 347.671 278.491 347.818C278.112 347.88 277.707 348.022 276.372 347.989C275.688 347.934 274.689 347.925 272.963 347.11C271.299 346.442 268.629 343.707 268.316 340.753C267.938 337.87 268.82 336.252 269.27 335.358C269.782 334.445 270.173 334.02 270.465 333.692C271.048 333.07 271.329 332.875 271.554 332.694C271.604 332.655 271.675 332.603 271.688 332.593C271.697 332.587 271.705 332.581 271.713 332.575C271.729 332.563 271.745 332.552 271.76 332.541C271.79 332.519 271.819 332.498 271.846 332.48C271.953 332.404 272.035 332.35 272.105 332.304C272.376 332.129 272.486 332.07 272.584 332.014C272.782 331.904 272.808 331.892 272.851 331.869C273.019 331.78 273.084 331.749 273.149 331.715C273.221 331.68 273.268 331.656 273.315 331.632C273.419 331.581 273.49 331.546 273.573 331.505C274.171 331.214 274.617 331.008 275.059 330.805C275.933 330.403 276.675 330.073 277.387 329.759C278.804 329.136 280.038 328.606 281.508 328.058C282.89 327.536 284.404 327.002 286.511 326.351C297.181 323.054 312.44 319.021 320.191 315.589C325.787 313.251 328.414 310.011 328.75 309.49C329.108 309.088 329.37 308.72 329.57 308.368C337.419 296.042 343.021 275.788 337.078 272.523C337.465 272.883 337.804 273.044 337.953 273.104C338.109 273.164 338.1 273.144 337.997 273.134C337.79 273.1 337.226 273.141 336.926 273.234C335.497 273.633 333.31 274.506 331.427 275.32C323.594 278.785 319.355 280.148 317.743 280.976C310.819 284.737 312.834 284.472 307.587 287.386C307.274 287.567 307.052 287.69 306.906 287.761C306.853 287.783 306.797 287.812 306.927 287.703C306.964 287.672 306.99 287.649 307.074 287.58C307.2 287.477 307.376 287.34 307.729 286.999C307.907 286.824 308.133 286.598 308.452 286.207C308.613 286.009 308.797 285.768 309.013 285.44C309.329 284.925 309.975 284.008 310.372 282.097C310.836 280.308 310.428 276.488 308.189 274.131C306.026 271.782 303.92 271.355 302.786 271.131C301.588 270.94 300.93 271 300.432 271.036C300.21 271.056 300.033 271.08 299.877 271.104C299.568 271.152 299.352 271.201 299.178 271.243C298.836 271.327 298.657 271.389 298.525 271.435C298.393 271.482 298.334 271.509 298.313 271.52C298.256 271.55 298.232 271.568 298.226 271.58C298.211 271.605 298.282 271.595 298.324 271.597C298.426 271.593 298.575 271.571 298.732 271.544C299.713 271.323 300.08 271.413 300.347 271.311C304.225 269.866 304.35 268.789 306.66 267.483C309.386 265.893 311.522 264.16 312.98 262.317C320.918 253.316 323.325 243.697 324.339 231.047C324.439 229.682 324.518 228.332 324.58 226.931C324.635 225.658 325.04 225.755 325.043 224.937C325.024 221.332 324.358 222.996 324.327 219.239C324.213 211.413 323.852 203.374 322.915 195.142C322.821 194.336 323.302 193.901 323.043 192.031C322.778 190.174 322.079 188.837 321.604 185.927C320.342 178.34 319.169 170.822 316.704 163.077C316.295 161.799 315.168 160.427 314.496 158.546C313.375 155.392 311.975 151.424 310.449 147.716C310.241 147.164 310.012 146.727 310.055 146.744C310.093 146.758 310.177 146.9 310.679 147.307C311.161 147.672 312.259 148.489 314.257 148.666C316.28 148.847 318.021 147.982 318.674 147.48C319.397 146.944 319.562 146.659 319.662 146.533C319.815 146.291 319.628 146.535 319.501 146.816C318.843 148.181 318.115 150.729 317.579 153.13C317.364 154.079 317.169 155.022 316.99 155.973C316.9 156.449 316.814 156.924 316.731 157.406C316.687 157.659 316.65 157.882 316.599 158.18C316.583 158.272 316.573 158.328 316.548 158.464C316.533 158.545 316.53 158.566 316.491 158.751C316.469 158.854 316.446 158.969 316.377 159.228C316.369 159.241 316.337 159.458 316.079 160.136C315.9 160.517 315.843 160.953 314.836 162.301C314.268 162.943 313.457 164.125 310.903 165.064C308.352 166.168 304.013 164.951 302.567 163.33C302.364 163.148 302.158 162.94 302.027 162.798C301.918 162.68 301.817 162.564 301.724 162.452C301.538 162.228 301.381 162.015 301.245 161.816C300.975 161.419 300.787 161.076 300.641 160.779C300.353 160.185 300.218 159.766 300.117 159.43C299.929 158.768 299.886 158.416 299.847 158.138C299.781 157.603 299.784 157.385 299.778 157.199C299.775 157.017 299.777 156.916 299.777 156.895C299.778 156.856 299.779 156.821 299.78 156.789C299.781 156.726 299.783 156.674 299.785 156.629C299.789 156.542 299.794 156.459 299.796 156.424C299.8 156.35 299.804 156.288 299.809 156.229C299.817 156.111 299.821 156.053 299.828 155.962C300.002 153.807 300.143 151.857 300.274 149.79C300.811 139.109 301.182 127.767 302.418 116.647C302.877 112.383 303.952 108.715 304.274 106.507C305.019 101.545 303.909 105.215 304.685 100.18C305.269 96.5132 305.921 92.8519 306.645 89.2009C309.348 75.585 312.183 61.9955 315.185 48.376C316.678 41.6103 318.218 34.803 319.824 27.9644C320.626 24.5486 321.433 21.1697 322.275 17.7421C322.693 16.0412 323.126 14.3055 323.564 12.5909C323.775 11.7644 324.007 10.8658 324.242 9.98816C324.382 9.47153 324.451 9.18562 324.691 8.38882C324.711 8.32157 324.734 8.24891 324.766 8.15314C324.782 8.10495 324.801 8.05076 324.824 7.98386C324.861 7.88188 324.907 7.74832 325.013 7.49463C325.068 7.36365 325.137 7.2023 325.271 6.93601C325.422 6.65793 325.561 6.31993 326.177 5.51665C326.513 5.1112 326.935 4.54858 328.062 3.75885C329.1 3.04323 331.566 1.75543 334.836 2.53509C338.102 3.34755 339.744 5.69496 340.325 6.84139C340.958 8.09757 341.06 8.80631 341.164 9.33169C341.322 10.3472 341.281 10.7134 341.28 11.033C341.276 11.1741 341.265 11.3359 341.263 11.3703C341.261 11.3928 341.259 11.4145 341.258 11.4352C341.202 12.0535 341.166 12.1641 341.14 12.3303C341.114 12.4748 341.094 12.5702 341.075 12.6621C341.035 12.8494 341.006 12.9746 340.968 13.1396C340.903 13.4165 340.858 13.6036 340.789 13.8856C339.643 17.966 338.739 21.8621 334.417 26.7327C331.671 30.017 324.698 32.8905 319.317 30.9414C313.656 28.7444 312.927 26.6492 311.242 25.0051C309.81 23.3229 308.689 21.7938 307.638 20.4144C306.614 19.0581 305.533 17.7058 304.94 17.1535C304.809 17.0279 304.725 16.9757 304.843 17.0689C304.983 17.1509 305.276 17.4646 306.507 17.8051C307.671 18.2168 310.424 17.9389 311.793 16.9279C313.215 15.9648 313.46 15.3431 313.653 15.0797C307.646 26.036 302.208 39.6292 297.17 50.5776C294.48 56.4677 293.298 57.2373 291.394 61.4361C287.962 68.9185 288.268 70.7146 284.386 78.7113C280.979 85.1993 277.125 91.7291 270.034 98.9654C268.815 100.088 267.449 101.196 265.614 102.127C259.792 104.511 256.914 108.551 244.075 106.084C242.847 105.704 241.546 105.157 240.268 104.403C235.147 101.461 228.619 95.6389 226.144 87.5486C225.088 83.9937 225.06 81.7732 224.872 79.6672C224.478 73.3282 224.617 68.0165 224.019 63.3595C223.741 61.0808 223.252 59.0316 222.713 57.8812C222.454 57.3074 222.213 57.0074 222.14 56.95C222.056 56.8883 222.188 57.0081 222.184 57.008C222.429 57.0989 222.103 57.0153 221.982 57.0444C221.835 57.0542 221.849 57.1157 222.152 56.9809C211.837 64.4301 196.217 86.043 179.442 97.5878C178.184 98.4757 176.486 99.8471 172.855 100.366C169.049 100.933 165.405 98.9018 164.941 98.5977C164.604 98.3934 164.739 98.535 165.531 98.8383C166.294 99.1464 167.875 99.4249 169.144 99.2336C171.769 98.7861 172.215 98.0217 172.396 97.9589C163.384 106.418 152.789 119.103 141.42 129.417C135.623 134.689 129.524 139.903 121.859 144.301C117.979 146.449 113.667 148.545 107.952 149.373C102.435 150.383 94.2292 148.43 89.6935 143.629C88.1292 142.078 87.5555 140.943 87.0538 140.025C86.3086 138.571 85.9546 137.5 85.7064 136.848C85.651 136.698 85.6052 136.578 85.6022 136.567C85.6165 136.576 85.5865 136.594 85.9646 137.244C86.2257 137.585 86.3153 138.104 88.0145 139.545C88.5236 139.939 89.1031 140.342 90.0635 140.761C91.0718 141.196 92.3912 141.527 93.8278 141.502C96.9213 141.43 98.8633 140.007 99.8018 139.176C100.646 138.416 101.085 137.762 101.307 137.427C101.434 137.233 101.535 137.062 101.619 136.909C101.693 136.776 101.744 136.675 101.794 136.574C101.995 136.157 102.042 136.009 102.096 135.861C98.3415 144.541 98.7708 153.248 88.6135 166.456C86.625 168.6 82.2854 171.197 78.0226 171.157C73.8399 171.193 71.0369 169.867 68.8428 168.73C61.9823 164.749 58.0167 160.537 54.2873 157.905C53.9201 157.64 53.5786 157.418 53.3236 157.266C53.078 157.114 52.8857 157.04 53.0742 157.077C53.2898 157.03 53.8505 157.554 56.396 156.71C57.6398 156.268 59.1511 155.017 59.8209 153.817C60.5222 152.626 60.6335 151.763 60.6853 151.278C60.762 150.149 60.6456 150.187 60.6632 150.254C60.6657 150.363 60.701 150.608 60.7569 150.896C60.8796 151.517 61.0591 152.236 61.2566 152.975C61.8539 155.051 59.8121 152.048 62.3998 158.837C63.8005 162.517 66.5863 167.476 69.5775 176.592C71.7388 183.404 73.8002 190.409 74.6194 198.538C74.9306 202.643 75.2073 207.048 73.2828 212.589C71.7641 218.357 63.9932 224.034 58.325 224.017C43.8801 225.463 28.6825 225.813 16.2849 228.705C14.4087 229.148 13.0764 229.76 13.5267 229.499C13.7218 229.361 14.115 228.812 14.1649 228.592C14.2368 228.359 14.1451 228.51 14.1232 228.915C13.6166 240.234 13.1078 253.129 16.1382 260.679C20.6202 269.147 29.5946 279.121 37.2766 287.996C41.6454 292.968 46.1141 297.897 50.6195 302.978C52.8746 305.532 55.1242 308.084 57.3939 310.887C58.5597 312.368 59.6186 313.603 61.0084 315.94C61.1508 316.187 61.3862 316.618 61.6004 317.082C61.7086 317.316 61.8162 317.566 61.9222 317.842C62.0287 318.131 62.1244 318.362 62.2926 319.011C62.4361 319.597 62.5732 320.309 62.5706 321.281C62.569 321.524 62.5571 321.784 62.5301 322.06C62.5165 322.198 62.4992 322.341 62.4773 322.487C62.4663 322.561 62.4542 322.635 62.4409 322.71C62.4213 322.821 62.3978 322.939 62.3717 323.057C62.1662 323.999 61.7337 325.114 60.9876 326.136C60.2516 327.162 59.2157 328.028 58.2023 328.561C57.949 328.696 57.6974 328.814 57.451 328.915C57.2078 329.014 57.0982 329.053 56.9262 329.111C56.6067 329.219 56.3003 329.301 56.0101 329.363C54.8448 329.608 53.96 329.578 53.2506 329.513C49.4446 328.857 49.3293 328.319 47.9638 327.744C43.0219 325.167 39.1641 322.731 35.4235 321.154C33.6183 320.375 31.8558 319.874 30.9526 319.848C30.5075 319.823 30.3633 319.919 30.5732 319.9C30.7733 319.895 31.2299 319.661 31.3576 319.552C32.926 318.08 33.4944 315.654 33.4379 314.683C33.4277 313.61 33.27 313.286 33.2416 313.129C33.1604 312.868 33.3507 313.262 33.6418 313.65C42.3153 324.66 55.0551 336.007 67.2002 345.388C83.1996 356.363 108.081 360.091 129.796 363.039C146.066 365.078 161.853 367.478 176.954 370.157C180.385 370.753 178.507 373.003 176.307 373.569C174.356 373.019 172.562 372.376 170.512 371.742C167.773 374.483 168.257 373.785 158.61 372.948C152.671 372.417 157.32 373.944 154.15 374.094C149.997 374.31 130.566 374.327 134.434 372.688C133.227 372.93 132.067 373.16 130.896 373.397C130.272 373.362 129.643 373.327 129.007 373.292C115.616 372.537 102.536 371.216 89.507 368.381C87.1516 367.854 86.8825 368.404 84.4558 367.79C77.9217 366.067 72.9712 363.87 66.6432 360.632C63.364 358.836 62.4417 359.153 58.5954 356.266C58.4599 356.16 58.3208 356.049 58.178 355.933C54.3885 352.824 55.0608 352.211 49.3491 348.626C51.8102 352.431 37.8424 338.857 33.2067 333.68C32.5009 332.977 26.1298 327.614 23.4371 323.787C22.9333 323.085 22.4152 322.327 21.8267 321.342C21.2935 320.427 20.7344 319.43 20.2203 317.944C19.9751 317.185 19.7057 316.306 19.6694 314.961C19.6042 313.693 20.0842 311.413 21.6454 309.935C25.3595 306.085 31.6147 306.067 35.333 307.005C39.0953 307.87 41.3505 308.09 44.6412 309.742C46.926 310.917 49.0963 313.071 51.6046 314.578C52.3074 314.998 53.2689 315.508 54.2345 315.949C54.5506 316.094 54.8109 316.194 54.9802 316.242C55.1373 316.293 55.3235 316.299 54.952 316.185C54.7048 316.149 53.9841 315.889 52.4883 316.387C51.4963 316.684 50.0376 317.888 49.5419 319.118C48.9828 320.476 49.094 320.897 49.0682 321.362C49.0983 322.218 49.2463 322.508 49.2432 322.568C49.2664 322.668 49.263 322.682 49.2355 322.655C49.1691 322.577 49.0768 322.459 48.9508 322.293C48.8888 322.211 48.821 322.122 48.7503 322.03C48.6894 321.953 48.6325 321.882 48.5737 321.809C48.3397 321.516 48.1179 321.238 48.0005 321.077C45.6612 317.998 48.6783 321.158 47.0532 318.979C38.6269 308.25 27.4258 295.832 18.1945 285.15C17.0566 283.839 18.1206 286.076 17.9603 285.913C9.86731 277.16 14.4985 281.565 12.9189 278.717C12.1768 277.197 8.06811 272.414 4.69429 265.976C1.5858 259.109 1.23613 253.359 0.583075 253.298C1.76852 252.405 0.38666 247.273 0.330109 245.922C0.0297327 240.691 1.19678 241.716 0.87406 236.734C0.770584 234.907 -0.0458236 238.456 0.00200844 236.489C0.0717173 233.77 0.547839 231.23 1.02439 228.413C1.24071 226.868 1.58679 225.053 2.69426 223.039C3.76695 221.012 5.86872 219.238 7.73382 218.364C9.6627 217.461 10.2277 216.777 12.767 216.044C12.8389 216.024 12.9127 216.004 12.9884 215.983C15.9905 214.989 27.6947 213.985 22.1489 213.64C29.3408 213.533 30.6501 212.921 38.7104 212.148C40.745 211.961 43.4422 212.606 47.7132 211.939C49.1562 211.713 49.0364 210.866 51.2153 210.655C53.1218 210.468 54.993 210.413 56.9282 210.375C58.9243 210.321 59.89 210.381 60.8864 208.148C63.4088 199.915 58.4319 186.634 54.894 175.347C53.8556 172.163 54.9523 172.677 53.3154 168.057C53.0889 167.403 50.3353 162.069 49.2854 158.713C49.1448 158.258 48.8328 157.216 48.4911 155.886C48.318 155.208 48.1383 154.469 47.9672 153.589C47.8345 152.689 47.5376 151.879 47.7115 149.837C47.8372 148.925 48.1183 147.716 49.064 146.49C49.9988 145.242 51.5878 144.46 52.7235 144.275C55.0431 143.919 56.207 144.46 57.2086 144.783C59.1295 145.531 60.1695 146.289 60.7425 146.638C61.0075 146.808 61.2481 146.964 61.48 147.114C64.1724 148.909 65.0454 148.785 66.4177 150.031C70.5098 153.815 66.3197 152.21 72.4464 154.669C72.9969 155.62 74.0244 156.562 74.8895 157.278C75.7825 158.025 76.5004 158.509 76.7955 159.152C78.0899 158.367 78.2831 158.957 79.8527 157.723C80.3414 157.293 80.8694 156.612 81.2961 155.704C82.9129 152.151 81.7024 147.933 84.5296 147.879C84.9463 145.931 87.0746 137.387 87.5291 135.902C88.757 131.869 88.763 133.842 89.6146 131.393C89.6773 131.22 89.7264 131.084 89.8452 130.821C89.974 130.57 90.0544 130.297 90.5905 129.651C90.9635 129.222 91.7255 128.514 92.9538 128.27C94.1428 128.031 95.1934 128.394 95.7449 128.689C96.9281 129.363 97.2308 129.876 97.6114 130.355C98.2732 131.264 98.6348 132.225 99.1392 133.399C99.1816 133.495 99.2456 133.63 99.2992 133.726C99.3423 133.818 99.422 133.882 99.2258 133.683C100.506 135.028 102.984 136.195 106.197 135.642C109.357 135.172 112.339 133.613 112.708 133.481C122.992 128.617 107.487 137.353 105.434 136.835C105.041 136.727 104.674 136.6 104.309 136.458C102.344 136.264 102.005 136.204 102.184 136.583C102.378 136.931 103.375 137.48 104.396 137.6C106.466 137.985 110.35 136.294 112.221 135.779C113.145 135.533 113.225 137.103 110.349 137.981C113.477 137.269 109.528 139.183 110.843 139.116C112.633 139.65 125.496 131.612 124.869 130.759C122.672 132.412 119.814 134.427 117.389 135.79C113.781 136.396 120.596 127.66 128.948 122.301C135.151 118.337 127.121 127.375 138.888 114.613C136.961 116.453 135.254 117.934 133.456 119.54C132.618 119.016 136.184 117.107 137.414 115.458C138.003 114.679 133.252 118.353 136.804 114.577C140.947 112.417 142.396 108.983 147.546 103.502C146.296 105.186 145.021 106.882 143.746 108.559C153.281 100.035 133.023 121.689 150.58 104.095C148.544 106.327 146.514 108.454 144.46 110.674C145.834 109.977 145.277 112.683 146.409 111.961C149.396 110.057 152.527 106.007 155.43 103.003C156.716 101.673 156.224 102.783 156.331 102.672C158.083 100.865 157.266 100.879 158.753 99.2454C160.419 97.3963 165.489 92.7899 167.105 91.5961C167.261 91.4721 167.361 91.3996 167.436 91.3401C167.728 91.1087 167.838 91.0242 167.886 90.9342C167.927 90.8504 167.903 90.7718 167.81 90.7076C167.635 90.567 167.064 90.6056 166.487 90.8533C165.822 91.1101 165.121 91.5026 165.196 91.3894C165.435 91.0352 165.742 90.6735 166.064 90.3443C166.464 89.9461 166.968 89.5583 167.569 89.3745C168.172 89.1751 168.842 89.3202 169.305 89.5282C170.238 89.9814 170.796 90.1448 170.83 89.8201C170.311 89.6831 169.702 89.1288 168.633 88.9153C167.507 88.7172 166.499 89.3511 165.763 89.9829C156.704 98.6652 143.06 113.118 158.572 94.8891C152.566 99.5711 152.571 96.9109 160.465 88.7987C161.418 87.8618 162.289 87.0824 162.927 86.5715C164.326 85.3585 166.39 84.6179 167.62 84.6551C168.868 84.663 169.147 84.8964 169.355 85.0326C169.547 85.1913 169.747 85.3421 170.384 85.7217C170.96 86.0587 172.035 86.8964 171.944 87.0014C171.945 87.0267 171.82 86.9474 171.378 86.9746C171.181 86.9925 171.025 87.0619 171.028 87.0755C171.025 87.0909 171.15 87.0422 171.338 86.9119C174.382 84.7538 178.816 81.158 178.911 80.6038C179.307 81.8077 182.905 80.099 181.724 82.6945C181.557 83.0903 177.702 86.1725 179.648 85.8285C180.623 85.6673 183.22 84.8735 183.313 85.604C183.82 84.611 184.317 83.5451 184.808 82.5195C190.303 77.4855 191.326 77.0287 194.817 74.7281C194.442 74.6238 190.788 76.2913 195.127 72.5416C195.349 72.3474 195.899 72.5335 198.085 70.6063C202.486 66.6616 203.416 65.8189 201.44 70.173C209.113 60.9236 211.73 58.4521 219.814 52.6554C217.195 51.8564 214.033 54.3064 206.915 63.0284C206.241 63.0983 205.763 62.9572 205.081 63.0296C215.968 52.7447 210.67 57.9119 216.227 52.0125C216.634 51.6456 217.596 50.9491 218.772 50.3166C221.314 48.7221 225.875 50.1006 223.719 48.603C223.217 48.164 219.588 48.1074 218.052 48.8952C217.418 49.1372 217.039 49.2559 217.166 49.0276C217.183 48.9992 217.449 48.8205 217.887 48.5714C219.486 47.3399 224.337 47.3065 225.703 48.1513C225.907 48.2383 226.044 48.3102 226.108 48.3527C228.053 49.7412 228.1 50.6294 228.017 50.903C227.897 51.2112 227.467 51.1546 227.399 51.3579C226.875 52.0158 230.038 51.8969 231.49 64.4446C231.559 65.1296 232.138 65.3287 232.29 66.6891C232.555 69.2515 231.898 69.3046 232.102 71.609C232.316 73.9235 233.155 77.1024 232.666 80.7372C231.726 87.655 229.947 71.6688 230.548 65.4285C230.056 64.8596 229.891 66.8736 229.713 70.4768C229.709 74.2143 228.788 78.8579 230.485 86.1284C232.462 92.7822 237.931 97.6976 242.614 100.426C247.27 103.07 251.454 102.538 254.108 102.177C256.825 101.728 258.462 101.11 258.962 100.934C265.67 97.9911 263.356 98.8326 259.26 100.325C255.229 101.987 247.865 101.994 247.108 101.226C246.673 100.857 247.081 99.4431 243.981 98.1066C243.331 97.7872 242.467 97.4693 241.303 97.0915C239.458 96.5619 245.425 101.238 241.446 99.0805C237.478 96.6832 239.525 97.0064 239.279 96.7895C238.452 96.0382 234.765 92.6557 234.543 91.9416C232.661 88.1038 233.039 85.5971 233.398 85.1753C233.467 85.0922 233.544 85.0682 233.624 85.1012C234.335 85.3212 234.355 88.5174 237.663 94.7056C240.039 96.2383 239.019 94.5912 238.324 93.1205C237.635 91.599 237.176 90.3526 239.529 92.3785C241.517 93.9655 243.402 95.2296 245.046 96.302C248.371 98.3419 251.359 98.3304 251.963 98.3968C257.614 97.9718 257.235 97.2894 257.043 97.1511C256.808 96.8306 256.778 96.8693 262.087 94.7184C262.463 94.5571 262.892 94.3272 263.331 94.0409C266.909 91.2236 263.727 94.825 262.486 95.5565C262.276 95.7256 262.248 95.8005 262.556 95.7041C263.193 95.5212 265.539 94.3002 268.433 90.3904C276.635 77.9221 271.487 84.2267 270.862 82.6065C270.687 82.1991 274.296 75.1953 268.972 84.5146C269.139 84.9815 269.262 85.747 269.194 86.5041C267.509 88.6582 263.217 90.7787 262.334 91.2834C261.738 91.7355 261.225 92.0342 260.883 92.1902C257.049 93.8765 256.911 94.5339 253.622 94.2454C256.45 94.9499 252.089 95.2063 250.618 95.3563C248.459 95.6955 248.165 95.7594 247.937 95.8863C247.742 95.9427 247.447 96.0524 245.843 94.9489C244.782 94.1455 243.059 92.8959 241.052 90.5039C241.862 92.1732 242.823 93.6923 244.042 95.2138C242.554 94.2716 241.141 93.2018 239.871 91.9855C238.517 89.2926 234.854 82.1011 239.636 87.8598C238.678 86.401 238.086 85.0223 237.698 83.7682C236.624 78.7621 236.668 75.0938 235.693 73.442C235.484 73.0232 235.38 71.4687 235.31 69.6327C235.025 69.99 234.127 70.4536 234.008 70.1694C232.988 67.6421 234.392 63.5604 235.131 64.87C235.07 63.5673 234.993 62.5268 234.967 62.1624C234.795 59.8173 235.895 64.3284 235.887 62.4136C236.023 61.7951 234.573 55.0952 234.553 54.8774C235.148 54.2233 236.017 56.7565 236.013 56.7386C236.011 56.7301 235.921 56.0979 235.273 54.0824C234.472 52.3312 233.743 47.6938 227.161 44.4837C226.604 44.245 226.037 44.0507 225.457 43.8918C225.201 44.202 225.866 44.5624 226.889 45.1674C228.342 45.9885 230.305 47.5913 231.176 49.0169C232.073 50.4282 232.2 51.3368 231.171 50.7633C229.611 49.9373 228.05 48.1866 226.031 47.3275C224.226 46.5276 222.434 46.5134 221.877 47.4454C221.418 47.1346 221.192 46.883 220.732 46.5659C219.421 46.834 218.344 47.2629 217.467 47.7429C212.667 50.6963 211.843 50.3675 209.84 51.6506C205.322 54.7943 190.257 72.205 205.153 57.6499C203.207 59.9969 201.186 62.3819 199.247 64.6855C196.595 63.1656 198.892 62.9068 188.427 72.7274C186.083 74.8428 184.462 74.6058 183.187 77.7868C182.538 76.441 176.064 83.1421 175.218 83.5104C170.275 86.1218 184.905 71.8109 188.409 71.6228C190.174 68.4464 191.114 69.4256 193.694 66.4767C197.401 62.1655 197.658 61.4203 203.008 56.9764C206.423 51.1745 184.996 75.7608 196.957 59.9864C199.832 56.9185 202.801 49.9046 214.705 42.2962C219.145 40.1103 223.438 39.8723 228.322 41.5597C233.313 43.3232 236.953 48.1149 238.451 52.0671C240.079 56.1298 240.63 59.9134 241.018 63.5773C241.743 70.4927 241.424 79.1264 242.43 82.2202C243.316 84.7576 245.686 87.2281 249.226 89.2125C249.142 89.6145 254.347 89.1951 258.386 86.9456C257.97 87.1756 258.778 86.6257 259.439 85.8139C260.14 85.0057 260.934 83.9253 261.657 82.8397C263.16 80.5883 264.591 78.0669 265.939 75.536C268.62 70.4792 270.995 65.3701 273.125 60.6793C277.372 51.2624 280.695 43.4028 282.785 38.5974C287.996 26.605 292.533 16.0286 298.023 6.11867C298.763 4.89997 299.602 3.44124 302.023 1.79279C304.35 0.107343 308.468 -0.392811 310.775 0.30439C315.313 1.65194 316.27 3.23391 317.521 4.2579C319.7 6.41688 320.829 8.00625 322.017 9.51375C323.155 10.99 324.169 12.318 325.012 13.2767C325.422 13.7465 325.806 14.1289 325.961 14.2535C326.063 14.3964 326.161 14.1504 324.533 13.5764C324.072 13.3992 323.008 13.3507 322.303 13.6012C321.581 13.8354 321.326 14.1197 321.342 14.0866C321.175 14.2855 321.691 13.5859 322.038 12.7157C322.415 11.8279 322.773 10.7126 323.044 9.55627C323.099 9.32509 323.134 9.174 323.17 9.01627C323.188 8.93383 323.2 8.87481 323.192 8.91235C323.187 8.93507 323.177 8.97876 323.154 9.108C323.142 9.17472 323.127 9.262 323.105 9.41448C323.094 9.4916 323.082 9.58548 323.068 9.71538C323.061 9.78054 323.053 9.85497 323.046 9.94402C323.044 9.96629 323.042 9.9895 323.04 10.0138C323.039 10.0259 323.038 10.0383 323.037 10.051C323.037 10.0587 323.035 10.0836 323.03 10.1595C323.017 10.4308 322.988 10.7602 323.041 11.5162C323.075 11.9055 323.117 12.4024 323.333 13.2459C323.592 14.0796 323.852 15.37 325.541 17.3301C327.037 19.3498 331.654 21.2158 334.669 20.3901C337.68 19.7317 338.837 18.5101 339.601 17.8478C341.001 16.4326 341.143 15.9142 341.415 15.4905C341.634 15.0896 341.73 14.8688 341.808 14.6928C341.954 14.3536 342.003 14.2102 342.046 14.0942C342.074 14.0129 342.064 14.0429 342.072 14.0189C342.091 13.9639 342.105 13.9238 342.115 13.8918C342.136 13.8284 342.146 13.7968 342.152 13.779C342.166 13.7331 342.099 13.971 342.057 14.1322C342.017 14.2824 341.954 14.5211 341.907 14.7026C341.702 15.4906 341.49 16.3357 341.288 17.1473C340.874 18.8169 340.461 20.5177 340.045 22.2573C339.227 25.6767 338.405 29.1952 337.575 32.8095C335.914 40.042 334.212 47.6727 332.406 55.9773C331.407 60.2492 324.985 92.3865 324.761 85.4034C324.715 84.4095 326.933 70.4116 323.264 82.0591C324.488 79.8038 323.562 86.8652 323.523 87.482C323.387 89.5628 323.314 91.1842 323.275 92.489C323.237 99.4696 323.713 96.6383 321.365 114.295ZM313.169 144.321C313.255 144.383 313.428 144.513 313.787 144.647C314.13 144.778 314.686 144.871 315.191 144.805C316.255 144.651 316.59 144.223 316.647 144.183C316.732 144.054 316.354 144.547 316.131 145.023C315.626 146.029 315.228 147.199 314.934 148.167C314.345 150.14 314.086 151.508 313.974 152.305C313.757 153.967 314.185 153.346 314.803 152.495C315.606 151.39 316.747 149.994 317.186 152.249C317.569 150.664 317.999 149.127 318.46 147.853C318.687 147.224 318.932 146.654 319.106 146.328C319.188 146.17 319.257 146.074 319.218 146.131C319.167 146.185 319.058 146.422 318.358 146.943C319.046 146.332 319.062 146.066 319.037 145.992C318.995 145.916 318.841 146.01 318.675 146.168C318.674 146.17 318.673 146.172 318.673 146.173C318.418 145.608 318.34 145.137 317.455 145.336C317.023 145.413 315.979 145.784 314.779 145.525C313.585 145.259 313.143 144.579 313.169 144.321ZM246.073 374.064C247.141 373.884 248.179 373.683 249.281 373.471C252.638 373.896 255.884 374.055 258.997 373.81C258.65 374.069 258.309 374.324 257.944 374.573C254.16 374.868 250.181 374.603 246.073 374.064ZM229.826 61.7354C229.928 59.2477 229.465 58.2086 228.927 57.098C228.341 56.0296 227.814 54.6941 226.52 52.7071C226.069 53.9438 225.419 55.0434 224.631 56.0176C226.079 58.5842 226.808 59.9296 227.006 65.033C227.337 64.3912 227.66 63.7298 227.975 63.0972C227.798 62.2374 227.579 61.3497 227.369 60.5853C228.282 58.975 229.462 67.4645 229.831 61.7519C229.83 61.7464 229.828 61.7409 229.826 61.7354ZM198.867 72.2462C196.813 74.3133 188.117 81.8167 187.208 83.1561C184.53 88.1747 207.347 64.7815 191.007 82.5369C191.246 82.6332 191.319 82.8768 191.475 83.047C194.792 80.1155 197.992 77.0582 201.093 73.8968C200.266 73.4322 199.717 72.6933 198.867 72.2462ZM313.522 74.6639C314.497 70.3928 318.07 49.7964 315.631 56.2214C314.907 58.1163 314.459 67.5574 313.685 71.0184C313.182 73.254 312.888 70.5796 312.276 75.0806C312.672 74.9592 313.092 74.9196 313.522 74.6515C313.522 74.6556 313.522 74.6598 313.522 74.6639ZM316.6 83.6513C317.335 79.2446 318.087 74.6215 318.845 70.1864C317.257 73.2079 316.541 79.7601 315.165 79.8966C315.317 78.6381 315.467 77.3993 315.616 76.1674C316.088 75.3008 316.559 74.444 317.034 73.5669C317.12 69.5893 316.287 71.828 317.974 64.7591C315.132 68.6099 313.869 69.2967 313.389 81.8731C312.794 79.3456 308.874 80.8595 310.006 88.1157C310.215 89.4697 311.573 84.2505 311.66 84.2031C312.732 83.5739 312.729 86.614 313.762 85.9166C314.223 85.6335 314.876 82.3447 315.51 81.9869C315.819 81.8121 315.951 85.0476 316.6 83.6513ZM310.218 91.6317C309.938 90.1216 307.686 94.6673 307.27 98.9066C306.638 105.497 309.51 95.4087 310.218 91.6317ZM246.05 374.062C246.058 374.063 246.065 374.064 246.073 374.064C246.069 374.065 246.065 374.066 246.061 374.066C246.057 374.065 246.054 374.064 246.05 374.062ZM209.311 61.7843C207.457 64.5458 204.058 68.2346 204.855 68.4747C203.641 69.5907 202.383 70.7406 201.138 71.8462C201.315 71.9913 201.503 72.1253 201.679 72.2687C205.228 68.712 208.616 65.023 211.916 61.6602C211.071 61.6723 210.239 61.6719 209.311 61.7843ZM168.395 93.6141C164.169 97.3944 168.398 94.8866 167.822 96.1037C167.282 97.2601 163.243 100.866 164.216 100.896C166.187 98.8723 168.355 96.666 170.114 95.2149C170.162 95.1756 170.15 95.2089 169.93 95.3311C169.714 95.4457 169.203 95.6881 168.397 95.7392C169.298 95.3383 169.519 94.7899 169.48 94.4437C169.437 94.0838 169.176 93.8383 168.843 93.6856C168.697 93.6578 168.545 93.6357 168.387 93.6207C168.39 93.6185 168.393 93.6163 168.395 93.6141ZM324.152 251.057C325.49 247.567 326.072 249.304 326.668 241.59C326.667 241.596 326.666 241.601 326.665 241.607C324.807 248.945 321.457 256.467 316.76 263.037C320.499 259.532 321.805 256.414 324.152 251.057ZM228.203 76.0555C228.854 77.8145 229.236 69.4777 228.561 67.8404C227.527 65.0845 227.21 73.1926 228.203 76.0555ZM311.93 328.069C306.455 331.792 318.847 330.795 330.33 323.649C331.313 323.127 323.422 326.37 325.519 324.912C325.756 324.797 329.893 322.761 330.738 321.874C331.592 321.031 330.245 321.156 331.664 319.923C333.231 318.553 336.463 316.325 338.131 313.557C339.015 312.154 339.703 310.872 339.927 310.032C340.007 309.766 338.032 312.093 337.211 312.999C337.038 313.193 336.915 313.323 336.884 313.361C334.077 316.762 330.781 319.772 330.191 320.199C327.047 322.097 327.098 320.995 326.209 321.251C324.523 321.701 321.916 323.26 321.698 323.316C316.388 324.781 327.954 320.063 329.024 318.7C330.621 317.234 330.465 316.809 330.858 316.1C331.143 315.355 332.449 314.432 334.297 311.233C334.428 310.988 334.572 310.722 334.728 310.43C335.234 309.581 340.786 299.635 333.515 310.759C333.354 310.975 333.17 311.207 332.97 311.436C333.123 311.178 333.261 310.919 333.378 310.676C339.472 297.6 336.72 302.373 332.38 310.071C330.244 314.475 319.352 319.175 317.544 320.107C315.538 321.127 318.992 320.622 317.868 321.467C315.277 323.43 310.17 325.376 311.027 326.323C312.848 328.32 319.111 324.396 323.749 322.695C323.502 323.4 323.523 323.97 322.85 324.839C323.953 323.714 312.353 327.874 311.928 328.064C311.929 328.066 311.929 328.067 311.93 328.069ZM343.339 269.476C342.843 268.592 342.311 267.95 341.794 267.447C340.971 266.675 340.041 266.639 339.139 266.61C338.208 266.614 337.127 266.543 335.119 266.7C335.07 266.705 335.019 266.71 334.968 266.716C332.957 268.015 333.881 268.05 335.417 267.777C336.978 267.472 339.438 267.758 339.666 267.974C340.273 268.249 340.477 268.579 340.519 268.82C341.714 270.883 341.407 271.604 342.883 274.554C343.295 272.88 343.567 271.322 343.339 269.476ZM326.739 318.058C330.065 315.255 323.409 319.026 322.963 318.937C321.039 318.933 325.52 316.591 328.118 315.007C329.444 314.232 330.385 313.678 330.501 313.998C330.592 314.292 329.964 315.601 326.739 318.058ZM322.221 48.7124C322.785 46.3881 321.721 47.694 321.949 45.6105C322.178 43.4981 324.366 36.7069 323.878 36.7398C323.37 36.8101 319.307 49.3588 321.928 36.4402C321.568 36.8257 321.409 36.6326 321.126 36.7954C320.326 40.3084 319.52 43.8871 318.735 47.4455C319.916 45.6225 321.132 43.8487 322.272 42.1258C322.425 44.2456 321.415 45.2056 321.393 45.3011C321.394 45.3013 321.395 45.3014 321.396 45.3016C320.629 49.0686 320.985 53.8371 322.221 48.7124ZM328.164 195.376C330.142 195.823 327.354 190.656 326.751 188.484C326.182 186.321 326.32 183.166 325.72 184.448C325.844 188.085 327.966 195.307 328.166 195.376C328.165 195.376 328.164 195.376 328.164 195.376ZM312.777 276.918C310.312 278.48 309.378 279.268 308.223 280.028C307.641 280.412 307.017 280.785 306.156 281.244C305.706 281.485 305.232 281.728 304.648 282.027C304.515 282.094 304.366 282.17 304.208 282.252C304.048 282.335 303.932 282.391 303.761 282.483C303.59 282.574 303.487 282.622 303.349 282.698C303.323 282.711 303.306 282.719 303.3 282.718C303.298 282.713 303.285 282.726 303.404 282.615C303.465 282.554 303.554 282.478 303.731 282.251C303.784 282.18 303.797 282.168 303.909 281.994C304.019 281.812 304.168 281.563 304.289 281.099C304.405 280.653 304.481 279.873 304.117 279.048C303.764 278.216 303.035 277.657 302.54 277.443C302.028 277.215 301.686 277.184 301.443 277.163C301.21 277.146 301.008 277.164 300.956 277.169C300.928 277.172 300.902 277.175 300.878 277.178C300.509 277.232 300.456 277.274 300.417 277.287C300.419 277.226 300.446 277.156 300.545 277.073C300.595 277.032 300.665 276.988 300.776 276.943C300.803 276.931 300.834 276.92 300.868 276.909C300.926 276.898 300.848 276.889 301.144 276.869C301.383 276.862 301.72 276.837 302.343 277.032C302.923 277.197 304.036 277.868 304.484 279.072C304.929 280.261 304.654 281.171 304.489 281.62C304.397 281.859 304.307 282.028 304.229 282.163C304.183 282.241 304.17 282.261 304.164 282.274C304.156 282.29 304.147 282.305 304.139 282.32C304.075 282.439 304.021 282.53 303.976 282.606C303.886 282.757 303.829 282.853 303.79 282.931C303.712 283.084 303.698 283.165 303.707 283.232C303.795 283.456 303.988 283.599 304.19 283.737C308.525 281.152 307.852 280.056 313.774 277.508C314.753 277.1 313.236 279.074 317.332 276.582C315.834 276.707 314.276 276.804 312.777 276.918ZM313.406 268.831C311.237 270.651 309.268 272.773 309.085 273.705C308.82 274.575 310.941 274.495 314.97 270.279C316.141 268.946 316.528 265.98 313.406 268.831ZM310.514 109.592C312.217 98.2504 309.762 111.059 308.893 113.976C312.067 87.383 308.487 116.946 306.538 119.461C306.739 122.791 307.456 128.977 308.387 122.249C308.795 119.431 308.134 120.42 308.152 120.246C308.833 115.064 309.665 115.797 310.514 109.592ZM346.433 279.26C346.39 278.876 345.783 279.484 345.591 278.299C345.441 277.122 345.344 274.466 344.855 274.345C344.546 274.183 345.098 279.21 345.134 280.959C345.303 282.653 346.665 282.838 346.433 279.26ZM317.478 272.614C312.625 275.587 321.958 273.509 323.045 273.015C332.69 268.348 317.534 273.322 317.478 272.614ZM312.04 136.319C311.784 122.591 308.933 132.39 307.228 140.975C307.42 142.121 307.613 143.302 307.806 144.439C306.529 139.166 305.528 130.134 305.74 150.184C305.74 150.19 305.74 150.195 305.74 150.201C305.74 150.195 305.741 150.19 305.741 150.184C306.748 139.357 306.636 148.482 306.715 148.574C309.495 149.973 309.053 133.555 312.04 136.331C312.04 136.327 312.04 136.323 312.04 136.319ZM342.236 296.043C340.494 301.508 333.235 314.929 337.849 309.352C339.628 304.991 341.143 300.513 342.236 296.043ZM279.903 61.629C277.215 65.7479 275.327 69.816 272.633 75.124C275.993 70.8177 274.514 73.9882 273.888 75.7427C272.959 78.359 275.995 72.4155 276.05 72.4125C276.852 72.9554 275.144 76.8818 279.385 68.0919C278.655 70.4102 277.907 72.7227 277.119 75.0225C280.499 68.3769 281.777 67.0274 284.485 63.0525C280.823 66.4286 284.471 61.4312 285.847 56.0418C286.535 53.3562 281.276 59.5425 279.895 61.6456C279.898 61.6401 279.9 61.6346 279.903 61.629ZM313.505 122.271C313.298 120.833 312.966 119.503 312.72 118.117C312.842 116.626 312.977 115.147 313.117 113.675C313.44 113.529 313.773 113.415 314.088 113.237C314.415 111.311 313.904 112.016 313.937 111.434C313.939 111.434 313.94 111.434 313.942 111.434C314.475 103.098 315.116 99.7223 317.223 93.488C316.31 93.3148 315.398 93.1416 314.485 92.9683C314.296 94.4397 314.115 95.916 313.947 97.3896C314.305 98.2436 314.665 99.1066 315.029 99.9581C314.481 101.583 313.949 103.209 313.425 104.857C313.402 106.23 313.361 107.874 313.376 109.076C309.886 115.472 313.743 100.381 312.788 100.085C312.032 99.8635 309.886 115.394 310.224 117.695C310.263 118.021 312.53 114.88 310.941 120.444C310.706 121.293 306.466 121.256 309.333 127.696C309.745 128.608 312.564 125.757 313.505 122.271ZM324.28 67.0502C319.843 75.0666 329.333 44.0169 324.263 57.2268C323.905 53.0364 323.761 53.7756 321.851 57.4869C321.678 57.8245 321.934 55.0175 321.842 55.241C320.464 58.7895 319.844 63.2821 318.768 63.0842C318.618 64.0825 318.461 65.0809 318.318 66.0525C320.191 62.1352 319.495 68.834 319.823 71.5665C319.972 72.7927 320.634 70.1849 320.773 71.2171C320.825 71.5844 319.812 75.2656 320.132 75.5069C320.868 75.9862 322.43 73.8442 323.837 70.0234C323.838 70.0236 323.838 70.0237 323.839 70.0239C323.994 69.0122 324.131 68.0379 324.28 67.0502ZM335.507 213.278C334.051 214.863 333.858 220.789 332.725 209.362C332.462 209.946 332.199 210.535 331.931 211.103C332.036 213.053 332.111 214.885 332.16 216.856C336.671 222.747 331.182 233.471 334.581 226.663C334.953 225.91 334.689 221.265 335.482 225.862C335.483 225.856 335.484 225.85 335.485 225.844C335.362 219.435 334.809 218.674 335.507 213.278ZM328.776 171.146C322.335 157.758 331.493 191.164 330.836 185.449C330.967 184.883 327.169 170.392 328.776 171.146ZM308.138 281.368C314.44 278.456 313.861 276.429 312.972 276.35C312.104 276.235 308.282 278.9 307.675 279.028C305.788 279.554 309.416 277.642 306.964 278.305C306.647 278.399 304.733 279.09 302.556 279.918C302.315 280.015 302.105 280.095 301.927 280.157C301.665 280.251 301.507 280.315 301.264 280.359C301.251 280.359 301.257 280.363 301.212 280.359C301.172 280.358 301.181 280.296 301.195 280.289C301.206 280.276 301.222 280.26 301.244 280.242C301.285 280.208 301.362 280.153 301.391 280.135C301.468 280.085 301.585 280.013 301.688 279.951C301.845 279.861 302.105 279.712 302.27 279.624C303.076 279.184 303.812 278.81 304.525 278.443C305.904 277.738 306.912 277.233 307.035 277.141C309.405 275.387 304.996 276.22 305.657 275.678C307.773 273.91 311.412 272.812 311.763 271.802C312.542 269.614 307.196 274.287 306.191 274.893C303.142 276.667 303.023 275.702 300.539 276.983C300.433 277.039 300.283 277.124 300.171 277.189C300.042 277.264 299.98 277.297 299.804 277.411C299.73 277.458 299.659 277.506 299.586 277.556C299.499 277.618 299.494 277.614 299.292 277.776C299.206 277.846 299.112 277.924 298.977 278.061C298.909 278.13 298.83 278.214 298.731 278.339C298.682 278.401 298.627 278.475 298.567 278.567C298.426 278.881 297.74 279.544 298.197 281.312C298.452 282.153 299.164 282.845 299.699 283.114C300.248 283.403 300.635 283.453 300.91 283.485C301.186 283.511 301.368 283.5 301.514 283.489C301.553 283.485 301.578 283.483 301.608 283.479C301.721 283.467 301.809 283.451 301.885 283.437C302.036 283.407 302.14 283.379 302.232 283.353C303.183 283.042 303.323 282.927 303.825 282.697C304.966 282.135 306.067 281.558 307.439 280.983C308.169 280.675 307.823 281.506 308.138 281.368ZM323.249 264.597C321.696 267.706 323.757 266.251 326.203 263.428C328.688 260.624 330.942 256.15 331.139 255.126C332.518 249.298 325.189 262.047 323.249 264.597ZM315.944 87.7229C315.628 94.0325 319.196 79.9168 319.681 75.756C319.157 76.3831 316.039 85.5925 315.944 87.7229ZM311.816 140.117C311.853 134.366 309.349 141.855 309.133 146.657C310.334 149.551 310.222 146.875 310.44 143.744C310.662 140.626 311.798 144.588 311.816 140.117ZM351.171 282.736C351.28 282.114 351.316 276.307 349.656 272.54C348.905 270.659 347.965 269.361 347.676 269.188C347.343 269.027 347.872 269.876 348.697 272.727C348.853 273.147 349.908 276.881 349.8 280.729C349.786 284.57 348.99 288.334 348.974 288.885C348.867 291.115 350.897 286.173 351.171 282.736ZM306.22 145.536C306.384 149.071 305.785 151.99 307.773 149.519C307.774 149.515 307.775 149.511 307.776 149.507C307.687 149.979 307.597 150.42 307.507 150.826C307.154 152.431 306.767 153.639 306.363 154.566C306.161 155.029 305.955 155.426 305.749 155.767C305.646 155.942 305.544 156.097 305.444 156.225C305.394 156.293 305.344 156.357 305.302 156.373C305.292 156.375 305.281 156.378 305.278 156.349C305.276 156.334 305.276 156.313 305.281 156.275C305.289 156.24 305.269 156.289 305.318 156.12C305.344 156.042 305.368 155.947 305.48 155.712C305.541 155.591 305.616 155.433 305.825 155.163C306.047 154.919 306.378 154.406 307.496 154.091C308.655 153.715 310.19 154.541 310.502 155.027C310.824 155.394 310.946 155.664 311.035 155.863C311.197 156.257 311.214 156.43 311.242 156.567C311.284 156.824 311.281 156.903 311.287 156.974C311.294 157.116 311.297 157.075 311.302 157.104C311.31 157.133 311.319 157.14 311.329 157.139C312.008 156.297 312.676 155.719 312.709 154.963C312.958 149.082 310.517 154.472 310.131 150.772C310.134 152.869 310.046 154.335 309.919 155.378C309.854 155.912 309.777 156.351 309.696 156.717C309.676 156.818 309.657 156.888 309.636 156.979C309.627 157.013 309.617 157.056 309.61 157.058C309.608 157.053 309.607 157.068 309.605 157.025C309.602 156.996 309.607 156.969 309.583 156.821C309.56 156.738 309.573 156.64 309.389 156.323C309.363 156.283 309.333 156.239 309.294 156.191C309.258 156.147 309.207 156.085 309.104 155.999C308.918 155.836 308.566 155.67 308.209 155.679C307.461 155.723 307.244 156.093 307.131 156.207C306.93 156.487 306.947 156.538 306.918 156.598C306.902 156.646 306.893 156.68 306.894 156.679C306.892 156.69 306.891 156.698 306.891 156.703C306.89 156.713 306.892 156.714 306.895 156.712C306.945 156.616 307.007 156.446 307.068 156.297C307.558 155.105 308.055 154.191 308.797 151.121C308.808 151.075 308.819 151.028 308.831 150.981C309.102 149.564 309.982 143.722 310.083 142.619C310.013 141.505 307.24 144.026 306.22 145.536ZM342.004 310.28C345.711 304.362 346.422 297.829 342.125 306.257C339.921 310.262 339.682 313.83 342.004 310.28ZM187.205 74.3606C188.283 74.0319 189.392 73.659 190.52 73.2493C188.826 75.0777 187.127 76.8445 185.364 78.6018C186.708 77.1762 188.045 75.7163 189.342 74.2503C185.86 77.3288 183.693 78.0418 187.197 74.369C187.199 74.3662 187.202 74.3634 187.205 74.3606ZM72.7235 156.632C71.4217 155.228 67.3184 153.911 67.6461 154.314C70.2093 157.493 74.6233 158.629 72.7235 156.632ZM322.218 79.5625C323.964 72.0539 320.527 76.7042 319.411 81.3858C320.443 78.6293 321.22 83.8903 322.218 79.5625ZM105.434 136.835C106.009 136.995 106.607 137.121 107.334 137.184C105.175 137.296 104.891 136.988 105.434 136.835ZM353.433 279.302C353.515 278.633 353.54 275.703 352.787 272.726C352.101 269.735 350.458 266.916 349.94 266.375C347.922 264.095 351.479 271.822 351.918 276.281C352.09 276.741 353.287 280.64 353.432 279.28C353.432 279.287 353.432 279.295 353.433 279.302ZM178.882 80.5417C178.908 80.5508 178.916 80.5724 178.911 80.6038C178.904 80.5815 178.887 80.566 178.882 80.5417ZM0.480813 253.383C0.512524 253.327 0.546692 253.296 0.583075 253.298C0.550206 253.321 0.517799 253.366 0.480813 253.383ZM296.539 275.952C296.39 276.1 296.212 276.286 295.984 276.587C295.955 276.625 295.926 276.664 295.896 276.706C295.881 276.727 295.866 276.749 295.85 276.771C295.85 276.771 295.753 276.918 295.701 277.006C295.461 277.415 295.141 277.973 294.913 278.991C294.69 279.968 294.639 281.667 295.491 283.294C296.322 284.931 297.78 285.903 298.74 286.286C300.688 287.023 301.544 286.746 301.84 286.768C301.965 286.762 302.074 286.753 302.173 286.744C302.37 286.726 302.526 286.706 302.661 286.687C303.184 286.611 303.447 286.554 303.684 286.513C303.944 286.5 304.169 286.486 304.403 286.462C304.834 286.425 305.099 286.432 305.497 286.36C308.539 286.298 312.554 283.338 307.682 284.457C307.492 284.501 306.091 285.146 305.154 285.607C304.954 285.703 304.773 285.788 304.609 285.864C304.527 285.901 304.449 285.937 304.375 285.97C304.264 286.019 304.154 286.066 304.049 286.11C303.943 286.154 303.84 286.195 303.735 286.235C303.676 286.257 303.651 286.267 303.556 286.301C303.449 286.339 303.334 286.378 303.199 286.419C302.923 286.498 302.61 286.599 301.948 286.679C301.906 286.684 301.863 286.688 301.817 286.692C301.84 286.69 301.656 286.706 301.552 286.711C301.43 286.717 301.295 286.72 301.142 286.718C300.536 286.681 299.599 286.727 297.996 285.848C296.349 285.093 294.636 282.19 294.82 280.3C294.877 278.404 295.434 277.59 295.726 277.039C295.941 276.691 295.896 276.772 295.951 276.688C295.989 276.634 296.024 276.584 296.058 276.537C296.126 276.443 296.189 276.363 296.246 276.292C296.361 276.149 296.456 276.042 296.539 275.952Z" fill="#E4E4E4"/>
<circle cx="106.677" cy="303.998" r="17" fill="#E4E4E4" stroke="#E4E4E4"/>
<circle cx="246.677" cy="303.998" r="17" fill="#E4E4E4" stroke="#E4E4E4"/>
</svg>
