<svg width="32" height="24" viewBox="0 0 32 24" fill="none" xmlns="http://www.w3.org/2000/svg">
<path d="M16.8201 0.123123C15.9082 0.490299 15.4842 1.45428 15.0351 2.47448C14.5919 3.48093 14.1339 4.52086 13.2201 4.91255C11.2515 5.75574 7.56358 9.84192 6.69468 10.8244L4.78405 10.8244L4.78405 9.05016C4.78405 8.71946 4.51674 8.45215 4.18604 8.45215L0.598006 8.45215C0.267309 8.45215 1.82222e-07 8.71946 1.78279e-07 9.05016L7.13115e-09 23.4023C3.18762e-09 23.733 0.267309 24.0003 0.598006 24.0003L4.18604 24.0003C4.51674 24.0003 4.78405 23.733 4.78405 23.4023L4.78405 21.7709L7.09235 21.7709C8.4558 22.766 10.9118 23.3598 11.0195 23.3856C11.0649 23.3963 11.1116 23.4017 11.1582 23.4017L19.3293 23.4017C20.6946 23.4017 21.6119 22.5059 21.6119 21.1723C21.6119 20.6903 21.3859 20.3256 21.0582 20.0493C21.1604 20.0403 21.2489 20.0355 21.3201 20.0355C22.8229 20.0355 23.7941 19.2049 23.7941 17.9204C23.7941 17.3517 23.6362 16.9169 23.4131 16.594C24.0847 16.3996 24.8286 15.8298 24.8286 14.739C24.8286 14.1398 24.6504 13.6787 24.4244 13.3355C26.6507 13.3205 29.1259 13.3038 29.2718 13.3038C29.8907 13.3038 31.0951 12.5616 31.0951 11.2C31.0951 10.0297 29.9966 9.37607 29.3477 9.17454C29.2957 9.15899 29.2425 9.14943 29.1881 9.14763L16.8183 8.77507C16.9272 8.60225 17.0486 8.4079 17.1825 8.19202C17.5174 7.6562 17.8714 7.0875 18.1375 6.68863C18.7445 5.77906 19.2229 5.06026 19.2229 3.96471C19.2229 1.96677 18.8587 0.707974 18.1405 0.221794C17.8738 0.0435889 17.4277 -0.120863 16.8201 0.123123ZM1.19601 22.8043L1.19601 9.64816L3.58804 9.64816L3.58804 11.4224L3.58804 21.1729L3.58804 22.8043L1.19601 22.8043ZM17.4719 1.21508C17.7398 1.39628 18.0287 2.33455 18.0287 3.96711C18.0287 4.66916 17.7416 5.13083 17.1442 6.02724C16.8733 6.43388 16.5109 7.01395 16.1701 7.56052C15.8047 8.14597 15.3897 8.81036 15.2635 8.96943C15.123 9.14584 15.0931 9.38683 15.1888 9.59315C15.2838 9.79826 15.4872 9.93222 15.7132 9.93939L29.0571 10.3424C29.2652 10.4256 29.9003 10.7186 29.9003 11.2012C29.9003 11.8751 29.2718 12.0988 29.2718 12.1084L29.2724 12.109C28.9901 12.109 20.8608 12.1652 20.8608 12.1652C20.5451 12.1676 20.285 12.4151 20.2682 12.7303C20.2383 13.046 20.4811 13.3193 20.7957 13.357L23.0591 13.6225C23.2313 13.7331 23.6338 14.0626 23.6338 14.7396C23.6338 15.3436 23.1333 15.456 22.8755 15.4811L20.4494 15.8567C20.1379 15.9045 19.9148 16.1772 19.9453 16.5007C19.9734 16.8141 20.2401 17.0533 20.5559 17.0455L22.1077 17.0078C22.262 17.0718 22.5986 17.2847 22.5986 17.9204C22.5986 18.6804 21.9038 18.8395 21.3207 18.8395C20.5971 18.8395 18.7272 19.1858 18.5167 19.2246C18.2236 19.2802 18.0042 19.5535 18.0293 19.8382C18.0418 20.1354 18.2715 20.3782 18.5675 20.4075C19.4005 20.4906 20.4171 20.859 20.4171 21.1711C20.4171 22.0251 19.8263 22.2045 19.3305 22.2045L11.2306 22.2045C10.4801 22.0185 8.56404 21.4361 7.67421 20.7083C7.56717 20.621 7.43381 20.5731 7.29567 20.5731L4.78405 20.5731L4.78405 12.0181L6.96557 12.0181C7.139 12.0181 7.30345 11.9427 7.41707 11.8117C8.61547 10.4321 12.0785 6.70059 13.6907 6.0093C15.0387 5.43162 15.6187 4.11541 16.1294 2.95408C16.4775 2.16352 16.807 1.41601 17.2662 1.23063C17.4115 1.17442 17.454 1.20312 17.4719 1.21508Z" fill="white"/>
</svg>
