<svg width="19" height="20" viewBox="0 0 19 20" fill="none" xmlns="http://www.w3.org/2000/svg">
<path d="M18.5359 8.46815L10.6192 0.468252C10.3223 0.168425 9.91975 0 9.5 0C9.08025 0 8.67768 0.168425 8.38078 0.468252L0.464124 8.46815C0.316384 8.61633 0.199271 8.79272 0.119595 8.98705C0.0399184 9.18139 -0.000730961 9.38979 9.94875e-06 9.60013V19.2C9.94875e-06 19.4122 0.0834175 19.6157 0.231884 19.7657C0.38035 19.9157 0.581713 20 0.791676 20H7.125C7.33497 20 7.53633 19.9157 7.68479 19.7657C7.83326 19.6157 7.91667 19.4122 7.91667 19.2V13.6001H11.0833V19.2C11.0833 19.4122 11.1667 19.6157 11.3152 19.7657C11.4637 19.9157 11.665 20 11.875 20H18.2083C18.4183 20 18.6197 19.9157 18.7681 19.7657C18.9166 19.6157 19 19.4122 19 19.2V9.60013C19.0007 9.38979 18.9601 9.18139 18.8804 8.98705C18.8007 8.79272 18.6836 8.61633 18.5359 8.46815ZM17.4167 18.4H12.6667V12.8001C12.6667 12.5879 12.5833 12.3844 12.4348 12.2344C12.2863 12.0844 12.085 12.0001 11.875 12.0001H7.125C6.91504 12.0001 6.71368 12.0844 6.56521 12.2344C6.41674 12.3844 6.33334 12.5879 6.33334 12.8001V18.4H1.58334V9.60013L9.5 1.60024L17.4167 9.60013V18.4Z" fill="black"/>
</svg>
